# MagicaVoxel @ Ephtracy

# group
o 

# material
mtllib DungeonTile-0.mtl
usemtl palette

# normals
vn -1 0 0
vn 1 0 0
vn 0 0 1
vn 0 0 -1
vn 0 -1 0
vn 0 1 0

# texcoords
vt 0.533203 0.5
vt 0.537109 0.5
vt 0.986328 0.5
vt 0.990234 0.5

# verts
v -5 0 5
v -5 0 4.7
v -5 0 -2.7
v -5 0 -2.9
v -5 0 -3.1
v -5 0 -3.4
v -5 0 -5
v -5 0.1 5
v -5 0.1 4.7
v -5 0.1 4.5
v -5 0.1 4.3
v -5 0.1 3
v -5 0.1 -0.3
v -5 0.1 -2
v -5 0.1 -2.7
v -5 0.1 -2.9
v -5 0.1 -3.1
v -5 0.1 -3.4
v -5 0.1 -5
v -5 0.2 4.5
v -5 0.2 4.3
v -5 0.2 3
v -5 0.2 -0.3
v -5 0.2 -2
v -4.9 0.1 -2
v -4.9 0.1 -2.4
v -4.9 0.2 -2
v -4.9 0.2 -2.4
v -4.8 0.1 -2.4
v -4.8 0.1 -2.8
v -4.8 0.2 -2.4
v -4.8 0.2 -2.8
v -4.7 0.1 4.6
v -4.7 0.1 4.5
v -4.7 0.1 -2.8
v -4.7 0.1 -3.2
v -4.7 0.1 -3.3
v -4.7 0.2 4.6
v -4.7 0.2 4.5
v -4.7 0.2 -2.8
v -4.7 0.2 -3.3
v -4.6 0.1 -3.3
v -4.6 0.1 -3.8
v -4.6 0.2 -3.3
v -4.6 0.2 -3.8
v -4.5 0.1 -3.8
v -4.5 0.1 -4.2
v -4.5 0.2 -3.8
v -4.5 0.2 -4.2
v -4.4 0.1 -4.2
v -4.4 0.1 -4.3
v -4.4 0.2 -4.2
v -4.4 0.2 -4.3
v -4.3 0.1 -4.3
v -4.3 0.1 -4.4
v -4.3 0.2 -4.3
v -4.3 0.2 -4.4
v -4.2 0.1 4.7
v -4.2 0.1 4.6
v -4.2 0.1 -4.4
v -4.2 0.1 -4.5
v -4.2 0.2 4.7
v -4.2 0.2 4.6
v -4.2 0.2 -4.4
v -4.2 0.2 -4.5
v -4.1 0.1 -4.5
v -4.1 0.1 -4.6
v -4.1 0.2 -4.5
v -4.1 0.2 -4.6
v -3.9 0.1 -4.6
v -3.9 0.1 -4.7
v -3.9 0.2 -4.6
v -3.9 0.2 -4.7
v -3.8 0.1 4.8
v -3.8 0.1 4.7
v -3.8 0.1 -4.7
v -3.8 0.1 -4.8
v -3.8 0.2 4.8
v -3.8 0.2 4.7
v -3.8 0.2 -4.7
v -3.8 0.2 -4.8
v -3.7 0.1 -4.8
v -3.7 0.1 -4.9
v -3.7 0.2 -4.8
v -3.7 0.2 -4.9
v -3.6 0.1 -4.9
v -3.6 0.1 -5
v -3.6 0.2 -4.9
v -3.6 0.2 -5
v -3.3 0.1 4.9
v -3.3 0.1 4.8
v -3.3 0.2 4.9
v -3.3 0.2 4.8
v -2.9 0.1 5
v -2.9 0.1 4.9
v -2.9 0.2 5
v -2.9 0.2 4.9
v 4.6 0.1 3.3
v 4.6 0.1 2.4
v 4.6 0.2 3.3
v 4.6 0.2 2.4
v 4.7 0.1 3.4
v 4.7 0.1 3.3
v 4.7 0.1 2.4
v 4.7 0.1 1.4
v 4.7 0.2 3.4
v 4.7 0.2 3.3
v 4.7 0.2 2.4
v 4.7 0.2 1.4
v 4.8 0.1 3.5
v 4.8 0.1 3.4
v 4.8 0.1 1.4
v 4.8 0.1 0.5
v 4.8 0.2 3.5
v 4.8 0.2 3.4
v 4.8 0.2 1.4
v 4.8 0.2 0.5
v 4.9 0.1 0.5
v 4.9 0.1 -0.5
v 4.9 0.2 0.5
v 4.9 0.2 -0.5
v -2.1 0.1 -4.9
v -2.1 0.1 -5
v -2.1 0.2 -4.9
v -2.1 0.2 -5
v 1.2 0.1 5
v 1.2 0.1 4.9
v 1.2 0.2 5
v 1.2 0.2 4.9
v 1.5 0.1 -4.8
v 1.5 0.1 -4.9
v 1.5 0.2 -4.8
v 1.5 0.2 -4.9
v 3 0.1 4.9
v 3 0.1 4.8
v 3 0.2 4.9
v 3 0.2 4.8
v 4.3 0.1 4.8
v 4.3 0.1 4.3
v 4.3 0.2 4.8
v 4.3 0.2 4.3
v 4.4 0.1 4.3
v 4.4 0.1 3.3
v 4.4 0.2 4.3
v 4.4 0.2 3.3
v 4.5 0.1 3.3
v 4.5 0.1 3.2
v 4.5 0.1 2.4
v 4.5 0.2 3.3
v 4.5 0.2 3.2
v 4.5 0.2 2.4
v 4.6 0.1 2.4
v 4.6 0.1 1.4
v 4.6 0.2 2.4
v 4.6 0.2 1.4
v 4.7 0.1 1.4
v 4.7 0.1 0.5
v 4.7 0.2 1.4
v 4.7 0.2 0.5
v 4.8 0.1 0.5
v 4.8 0.1 -0.5
v 4.8 0.2 0.5
v 4.8 0.2 -0.5
v 4.9 0.1 -0.5
v 4.9 0.1 -1
v 4.9 0.2 -0.5
v 4.9 0.2 -1
v 5 0 5
v 5 0 3.5
v 5 0 -5
v 5 0.1 5
v 5 0.1 3.5
v 5 0.1 -0.5
v 5 0.1 -1
v 5 0.1 -3.6
v 5 0.1 -4.8
v 5 0.1 -5
v 5 0.2 3.5
v 5 0.2 -0.5
v 5 0.2 -1
v 5 0.2 -3.6
v 5 0.2 -4.8
v -5 0 5
v -5 0.1 5
v -3.6 0 5
v -3.6 0.1 5
v -2.9 0.1 5
v -2.9 0.2 5
v -2.1 0.1 5
v -2.1 0.2 5
v 1.2 0.1 5
v 1.2 0.2 5
v 3.6 0 5
v 3.6 0.1 5
v 5 0 5
v 5 0.1 5
v -3.3 0.1 4.9
v -3.3 0.2 4.9
v -2.9 0.1 4.9
v -2.9 0.2 4.9
v 1.2 0.1 4.9
v 1.2 0.2 4.9
v 3 0.1 4.9
v 3 0.2 4.9
v -3.8 0.1 4.8
v -3.8 0.2 4.8
v -3.3 0.1 4.8
v -3.3 0.2 4.8
v 3 0.1 4.8
v 3 0.2 4.8
v 3.6 0.1 4.8
v 4.3 0.1 4.8
v 4.3 0.2 4.8
v -4.2 0.1 4.7
v -4.2 0.2 4.7
v -3.8 0.1 4.7
v -3.8 0.2 4.7
v -4.7 0.1 4.6
v -4.7 0.2 4.6
v -4.2 0.1 4.6
v -4.2 0.2 4.6
v -5 0.1 4.5
v -5 0.2 4.5
v -4.7 0.1 4.5
v -4.7 0.2 4.5
v 4.3 0.1 4.3
v 4.3 0.2 4.3
v 4.4 0.1 4.3
v 4.4 0.2 4.3
v 4.8 0.1 3.5
v 4.8 0.2 3.5
v 5 0.1 3.5
v 5 0.2 3.5
v 4.7 0.1 3.4
v 4.7 0.2 3.4
v 4.8 0.1 3.4
v 4.8 0.2 3.4
v 4.4 0.1 3.3
v 4.4 0.2 3.3
v 4.5 0.1 3.3
v 4.5 0.2 3.3
v 4.6 0.1 3.3
v 4.6 0.2 3.3
v 4.7 0.1 3.3
v 4.7 0.2 3.3
v 4.5 0.1 2.4
v 4.5 0.2 2.4
v 4.6 0.1 2.4
v 4.6 0.2 2.4
v 4.6 0.1 1.4
v 4.6 0.2 1.4
v 4.7 0.1 1.4
v 4.7 0.2 1.4
v 4.7 0.1 0.5
v 4.7 0.2 0.5
v 4.8 0.1 0.5
v 4.8 0.2 0.5
v 4.8 0.1 -0.5
v 4.8 0.2 -0.5
v 4.9 0.1 -0.5
v 4.9 0.2 -0.5
v 4.9 0.1 -1
v 4.9 0.2 -1
v 5 0.1 -1
v 5 0.2 -1
v 4.6 0.1 2.4
v 4.6 0.2 2.4
v 4.7 0.1 2.4
v 4.7 0.2 2.4
v 4.7 0.1 1.4
v 4.7 0.2 1.4
v 4.8 0.1 1.4
v 4.8 0.2 1.4
v 4.8 0.1 0.5
v 4.8 0.2 0.5
v 4.9 0.1 0.5
v 4.9 0.2 0.5
v 4.9 0.1 -0.5
v 4.9 0.2 -0.5
v 5 0.1 -0.5
v 5 0.2 -0.5
v -5 0.1 -2
v -5 0.2 -2
v -4.9 0.1 -2
v -4.9 0.2 -2
v -4.9 0.1 -2.4
v -4.9 0.2 -2.4
v -4.8 0.1 -2.4
v -4.8 0.2 -2.4
v -4.8 0.1 -2.8
v -4.8 0.2 -2.8
v -4.7 0.1 -2.8
v -4.7 0.2 -2.8
v -4.7 0.1 -3.3
v -4.7 0.2 -3.3
v -4.6 0.1 -3.3
v -4.6 0.2 -3.3
v -4.6 0.1 -3.8
v -4.6 0.2 -3.8
v -4.5 0.1 -3.8
v -4.5 0.2 -3.8
v -4.5 0.1 -4.2
v -4.5 0.2 -4.2
v -4.4 0.1 -4.2
v -4.4 0.2 -4.2
v -4.4 0.1 -4.3
v -4.4 0.2 -4.3
v -4.3 0.1 -4.3
v -4.3 0.2 -4.3
v -4.3 0.1 -4.4
v -4.3 0.2 -4.4
v -4.2 0.1 -4.4
v -4.2 0.2 -4.4
v -4.2 0.1 -4.5
v -4.2 0.2 -4.5
v -4.1 0.1 -4.5
v -4.1 0.2 -4.5
v -4.1 0.1 -4.6
v -4.1 0.2 -4.6
v -3.9 0.1 -4.6
v -3.9 0.2 -4.6
v -3.9 0.1 -4.7
v -3.9 0.2 -4.7
v -3.8 0.1 -4.7
v -3.8 0.2 -4.7
v -3.8 0.1 -4.8
v -3.8 0.2 -4.8
v -3.7 0.1 -4.8
v -3.7 0.2 -4.8
v 1.5 0.1 -4.8
v 1.5 0.2 -4.8
v 2.2 0.1 -4.8
v 4.4 0.1 -4.8
v 5 0.1 -4.8
v 5 0.2 -4.8
v -3.7 0.1 -4.9
v -3.7 0.2 -4.9
v -3.6 0.1 -4.9
v -3.6 0.2 -4.9
v -2.1 0.1 -4.9
v -2.1 0.2 -4.9
v -0.4 0.1 -4.9
v 1.5 0.1 -4.9
v 1.5 0.2 -4.9
v -5 0 -5
v -5 0.1 -5
v -4.3 0 -5
v -4.3 0.1 -5
v -3.6 0 -5
v -3.6 0.1 -5
v -3.6 0.2 -5
v -2.1 0.1 -5
v -2.1 0.2 -5
v -0.4 0 -5
v -0.4 0.1 -5
v 2.2 0 -5
v 2.2 0.1 -5
v 5 0 -5
v 5 0.1 -5
v -5 0 5
v -3.6 0 5
v 3.6 0 5
v 5 0 5
v -4 0 4.9
v -3.6 0 4.9
v -4.6 0 4.8
v -4 0 4.8
v 3.6 0 4.8
v 4.5 0 4.8
v -5 0 4.7
v -4.6 0 4.7
v 4.5 0 4.6
v 4.6 0 4.6
v 4.6 0 4.2
v 4.7 0 4.2
v 4.7 0 3.9
v 4.8 0 3.9
v 4.8 0 3.5
v 5 0 3.5
v -5 0 -2.7
v -4.9 0 -2.7
v -5 0 -2.9
v -4.9 0 -2.9
v -4.8 0 -2.9
v -5 0 -3.1
v -4.9 0 -3.1
v -4.9 0 -3.2
v -4.8 0 -3.2
v -4.7 0 -3.2
v -4.7 0 -3.3
v -4.6 0 -3.3
v -5 0 -3.4
v -4.9 0 -3.4
v -4.8 0 -3.4
v -4.8 0 -3.5
v -4.7 0 -3.5
v -4.9 0 -3.6
v -4.8 0 -3.6
v -4.7 0 -3.6
v -4.6 0 -3.8
v -4.5 0 -3.8
v -4.8 0 -3.9
v -4.7 0 -3.9
v -4.7 0 -4.1
v -4.6 0 -4.1
v -4.5 0 -4.2
v -4.4 0 -4.2
v -4.4 0 -4.3
v -4.3 0 -4.3
v -4.6 0 -4.4
v -4.5 0 -4.4
v -4.3 0 -4.4
v -4.2 0 -4.4
v -4.2 0 -4.5
v -4.1 0 -4.5
v -4.5 0 -4.6
v -4.4 0 -4.6
v -4.1 0 -4.6
v -3.9 0 -4.6
v -3.9 0 -4.7
v -3.8 0 -4.7
v -4.4 0 -4.8
v -4.3 0 -4.8
v -3.8 0 -4.8
v -3.7 0 -4.8
v 2.2 0 -4.8
v 4.4 0 -4.8
v -3.7 0 -4.9
v -3.6 0 -4.9
v -0.4 0 -4.9
v 2.2 0 -4.9
v 4.4 0 -4.9
v -5 0 -5
v -4.3 0 -5
v -3.6 0 -5
v -0.4 0 -5
v 2.2 0 -5
v 5 0 -5
v -5 0.1 5
v -3.6 0.1 5
v -2.9 0.1 5
v 1.2 0.1 5
v 3.6 0.1 5
v 5 0.1 5
v -4 0.1 4.9
v -3.6 0.1 4.9
v -3.3 0.1 4.9
v -2.9 0.1 4.9
v 1.2 0.1 4.9
v 3 0.1 4.9
v -4.6 0.1 4.8
v -4 0.1 4.8
v -3.8 0.1 4.8
v -3.3 0.1 4.8
v 3 0.1 4.8
v 3.6 0.1 4.8
v 4.3 0.1 4.8
v 4.5 0.1 4.8
v -5 0.1 4.7
v -4.6 0.1 4.7
v -4.2 0.1 4.7
v -3.8 0.1 4.7
v -4.7 0.1 4.6
v -4.2 0.1 4.6
v 4.5 0.1 4.6
v 4.6 0.1 4.6
v -5 0.1 4.5
v -4.7 0.1 4.5
v 4.3 0.1 4.3
v 4.4 0.1 4.3
v 4.6 0.1 4.2
v 4.7 0.1 4.2
v 4.7 0.1 3.9
v 4.8 0.1 3.9
v 4.8 0.1 3.5
v 5 0.1 3.5
v 4.7 0.1 3.4
v 4.8 0.1 3.4
v 4.4 0.1 3.3
v 4.5 0.1 3.3
v 4.6 0.1 3.3
v 4.7 0.1 3.3
v 4.5 0.1 3.2
v 4.5 0.1 2.4
v 4.6 0.1 2.4
v 4.7 0.1 2.4
v 4.6 0.1 1.4
v 4.7 0.1 1.4
v 4.8 0.1 1.4
v 4.7 0.1 0.5
v 4.8 0.1 0.5
v 4.9 0.1 0.5
v 4.8 0.1 -0.5
v 4.9 0.1 -0.5
v 5 0.1 -0.5
v 4.9 0.1 -1
v 5 0.1 -1
v -5 0.1 -2
v -4.9 0.1 -2
v -4.9 0.1 -2.4
v -4.8 0.1 -2.4
v -5 0.1 -2.7
v -4.9 0.1 -2.7
v -4.8 0.1 -2.8
v -4.7 0.1 -2.8
v -5 0.1 -2.9
v -4.9 0.1 -2.9
v -4.8 0.1 -2.9
v -5 0.1 -3.1
v -4.9 0.1 -3.1
v -4.9 0.1 -3.2
v -4.8 0.1 -3.2
v -4.7 0.1 -3.2
v -4.7 0.1 -3.3
v -4.6 0.1 -3.3
v -5 0.1 -3.4
v -4.9 0.1 -3.4
v -4.8 0.1 -3.4
v -4.8 0.1 -3.5
v -4.7 0.1 -3.5
v -4.9 0.1 -3.6
v -4.8 0.1 -3.6
v -4.7 0.1 -3.6
v -4.6 0.1 -3.8
v -4.5 0.1 -3.8
v -4.8 0.1 -3.9
v -4.7 0.1 -3.9
v -4.7 0.1 -4.1
v -4.6 0.1 -4.1
v -4.5 0.1 -4.2
v -4.4 0.1 -4.2
v -4.4 0.1 -4.3
v -4.3 0.1 -4.3
v -4.6 0.1 -4.4
v -4.5 0.1 -4.4
v -4.3 0.1 -4.4
v -4.2 0.1 -4.4
v -4.2 0.1 -4.5
v -4.1 0.1 -4.5
v -4.5 0.1 -4.6
v -4.4 0.1 -4.6
v -4.1 0.1 -4.6
v -3.9 0.1 -4.6
v -3.9 0.1 -4.7
v -3.8 0.1 -4.7
v -4.4 0.1 -4.8
v -4.3 0.1 -4.8
v -3.8 0.1 -4.8
v -3.7 0.1 -4.8
v 1.5 0.1 -4.8
v 2.2 0.1 -4.8
v 4.4 0.1 -4.8
v 5 0.1 -4.8
v -3.7 0.1 -4.9
v -3.6 0.1 -4.9
v -2.1 0.1 -4.9
v -0.4 0.1 -4.9
v 1.5 0.1 -4.9
v 2.2 0.1 -4.9
v 4.4 0.1 -4.9
v -5 0.1 -5
v -4.3 0.1 -5
v -3.6 0.1 -5
v -2.1 0.1 -5
v -0.4 0.1 -5
v 2.2 0.1 -5
v 5 0.1 -5
v -2.9 0.2 5
v -2.1 0.2 5
v 1.2 0.2 5
v -3.3 0.2 4.9
v -2.9 0.2 4.9
v 1.2 0.2 4.9
v 3 0.2 4.9
v -3.8 0.2 4.8
v -3.3 0.2 4.8
v 3 0.2 4.8
v 4.3 0.2 4.8
v -4.2 0.2 4.7
v -3.8 0.2 4.7
v -4.7 0.2 4.6
v -4.2 0.2 4.6
v -5 0.2 4.5
v -4.7 0.2 4.5
v -5 0.2 4.3
v -3.4 0.2 4.3
v -2.1 0.2 4.3
v -1.6 0.2 4.3
v 4.3 0.2 4.3
v 4.4 0.2 4.3
v -1.6 0.2 4.2
v -0.2 0.2 4.2
v -0.2 0.2 4.1
v -0.0999999 0.2 4.1
v -0.0999999 0.2 4
v 0 0.2 4
v -3.4 0.2 3.9
v -3.3 0.2 3.9
v -3.3 0.2 3.8
v -3.2 0.2 3.8
v -0.0999999 0.2 3.8
v 0 0.2 3.8
v -3.2 0.2 3.7
v -3.1 0.2 3.7
v -0.2 0.2 3.7
v -0.0999999 0.2 3.7
v -3.1 0.2 3.6
v -3 0.2 3.6
v -0.3 0.2 3.6
v -0.2 0.2 3.6
v -3 0.2 3.5
v -2.9 0.2 3.5
v 4.8 0.2 3.5
v 5 0.2 3.5
v -2.9 0.2 3.4
v -2.8 0.2 3.4
v -0.4 0.2 3.4
v -0.3 0.2 3.4
v 4.7 0.2 3.4
v 4.8 0.2 3.4
v -2.8 0.2 3.3
v -2.7 0.2 3.3
v -0.5 0.2 3.3
v -0.4 0.2 3.3
v 4.4 0.2 3.3
v 4.5 0.2 3.3
v 4.6 0.2 3.3
v 4.7 0.2 3.3
v -2.7 0.2 3.2
v -2.6 0.2 3.2
v 4.4 0.2 3.2
v 4.5 0.2 3.2
v -2.6 0.2 3.1
v -2.5 0.2 3.1
v 4.3 0.2 3.1
v 4.4 0.2 3.1
v -5 0.2 3
v -4.2 0.2 3
v -2.5 0.2 3
v -2.4 0.2 3
v -0.6 0.2 3
v -0.5 0.2 3
v -2.4 0.2 2.9
v -2.2 0.2 2.9
v -4.2 0.2 2.8
v -4.1 0.2 2.8
v -2.2 0.2 2.8
v -2.1 0.2 2.8
v 4.2 0.2 2.8
v 4.3 0.2 2.8
v -2.1 0.2 2.7
v -1.9 0.2 2.7
v -0.6 0.2 2.7
v -0.5 0.2 2.7
v -4.1 0.2 2.6
v -4 0.2 2.6
v -1.9 0.2 2.6
v -1.6 0.2 2.6
v -0.5 0.2 2.6
v -0.3 0.2 2.6
v 4.1 0.2 2.6
v 4.2 0.2 2.6
v -1.6 0.2 2.5
v -1.4 0.2 2.5
v -0.3 0.2 2.5
v -0.0999999 0.2 2.5
v -4 0.2 2.4
v -3.9 0.2 2.4
v -0.0999999 0.2 2.4
v 0.2 0.2 2.4
v 4 0.2 2.4
v 4.1 0.2 2.4
v 4.5 0.2 2.4
v 4.6 0.2 2.4
v 4.7 0.2 2.4
v -1.4 0.2 2.3
v -1.3 0.2 2.3
v 0.2 0.2 2.3
v 0.5 0.2 2.3
v 3.9 0.2 2.3
v 4 0.2 2.3
v -3.9 0.2 2.2
v -3.8 0.2 2.2
v -1.3 0.2 2.2
v -1.2 0.2 2.2
v 0.5 0.2 2.2
v 0.8 0.2 2.2
v 3.3 0.2 2.2
v 3.9 0.2 2.2
v -1.3 0.2 2.1
v -1.2 0.2 2.1
v 0.8 0.2 2.1
v 1.2 0.2 2.1
v 2.4 0.2 2.1
v 3.3 0.2 2.1
v -3.8 0.2 2
v -3.7 0.2 2
v -1.4 0.2 2
v -1.3 0.2 2
v 1.2 0.2 2
v 2.4 0.2 2
v -1.5 0.2 1.9
v -1.4 0.2 1.9
v -1.6 0.2 1.8
v -1.5 0.2 1.8
v -1.7 0.2 1.7
v -1.6 0.2 1.7
v -3.7 0.2 1.6
v -3.6 0.2 1.6
v -1.9 0.2 1.6
v -1.7 0.2 1.6
v -2 0.2 1.5
v -1.9 0.2 1.5
v -2.1 0.2 1.4
v -2 0.2 1.4
v 4.6 0.2 1.4
v 4.7 0.2 1.4
v 4.8 0.2 1.4
v -2.2 0.2 1.3
v -2.1 0.2 1.3
v -3.6 0.2 1.1
v -3.5 0.2 1.1
v -2.3 0.2 1.1
v -2.2 0.2 1.1
v -2.3 0.2 0.7
v -2.1 0.2 0.7
v -2.1 0.2 0.6
v -2 0.2 0.6
v -2 0.2 0.5
v -1.8 0.2 0.5
v 4.7 0.2 0.5
v 4.8 0.2 0.5
v 4.9 0.2 0.5
v -3.6 0.2 0.4
v -3.5 0.2 0.4
v -1.8 0.2 0.4
v -1.7 0.2 0.4
v -1.7 0.2 0.3
v -1.6 0.2 0.3
v -1.6 0.2 0.2
v -1.4 0.2 0.2
v -3.7 0.2 0.0999999
v -3.6 0.2 0.0999999
v -1.4 0.2 0.0999999
v -1.3 0.2 0.0999999
v -3.8 0.2 0
v -3.7 0.2 0
v -1.3 0.2 0
v -1.1 0.2 0
v -1.1 0.2 -0.1
v -1 0.2 -0.1
v 2.3 0.2 -0.1
v 3.7 0.2 -0.1
v -4.8 0.2 -0.2
v -4.6 0.2 -0.2
v -3.9 0.2 -0.2
v -3.8 0.2 -0.2
v -1 0.2 -0.2
v -0.9 0.2 -0.2
v 2 0.2 -0.2
v 2.3 0.2 -0.2
v 3.7 0.2 -0.2
v 3.9 0.2 -0.2
v -5 0.2 -0.3
v -4.8 0.2 -0.3
v -4.6 0.2 -0.3
v -3.9 0.2 -0.3
v -0.9 0.2 -0.3
v -0.8 0.2 -0.3
v 1.9 0.2 -0.3
v 2 0.2 -0.3
v 3.9 0.2 -0.3
v 4 0.2 -0.3
v -0.8 0.2 -0.4
v -0.7 0.2 -0.4
v 1.8 0.2 -0.4
v 1.9 0.2 -0.4
v -0.7 0.2 -0.5
v -0.6 0.2 -0.5
v 4 0.2 -0.5
v 4.1 0.2 -0.5
v 4.8 0.2 -0.5
v 4.9 0.2 -0.5
v 5 0.2 -0.5
v 1.8 0.2 -0.8
v 1.9 0.2 -0.8
v 4 0.2 -0.8
v 4.1 0.2 -0.8
v -0.7 0.2 -1
v -0.6 0.2 -1
v 4.9 0.2 -1
v 5 0.2 -1
v 1.9 0.2 -1.1
v 2 0.2 -1.1
v -0.8 0.2 -1.2
v -0.7 0.2 -1.2
v 2 0.2 -1.3
v 2.1 0.2 -1.3
v 3.9 0.2 -1.3
v 4 0.2 -1.3
v -0.9 0.2 -1.4
v -0.8 0.2 -1.4
v 2.1 0.2 -1.4
v 2.2 0.2 -1.4
v -1 0.2 -1.6
v -0.9 0.2 -1.6
v 2.2 0.2 -1.6
v 2.3 0.2 -1.6
v 3.8 0.2 -1.6
v 3.9 0.2 -1.6
v -1.1 0.2 -1.7
v -1 0.2 -1.7
v 2.3 0.2 -1.7
v 2.4 0.2 -1.7
v -1.2 0.2 -1.8
v -1.1 0.2 -1.8
v 2.4 0.2 -1.8
v 2.5 0.2 -1.8
v 3.7 0.2 -1.8
v 3.8 0.2 -1.8
v -1.3 0.2 -1.9
v -1.2 0.2 -1.9
v 2.5 0.2 -1.9
v 2.7 0.2 -1.9
v 3.6 0.2 -1.9
v 3.7 0.2 -1.9
v -5 0.2 -2
v -4.9 0.2 -2
v -1.6 0.2 -2
v -1.3 0.2 -2
v 2.7 0.2 -2
v 3 0.2 -2
v 3.3 0.2 -2
v 3.6 0.2 -2
v -2 0.2 -2.1
v -1.6 0.2 -2.1
v 3 0.2 -2.1
v 3.3 0.2 -2.1
v -2.9 0.2 -2.2
v -2 0.2 -2.2
v -3.3 0.2 -2.3
v -2.9 0.2 -2.3
v -4.9 0.2 -2.4
v -4.8 0.2 -2.4
v -3.5 0.2 -2.4
v -3.3 0.2 -2.4
v -3.6 0.2 -2.6
v -3.5 0.2 -2.6
v -4.8 0.2 -2.8
v -4.7 0.2 -2.8
v -3.7 0.2 -2.8
v -3.6 0.2 -2.8
v 2.7 0.2 -3
v 3.2 0.2 -3
v -3.8 0.2 -3.1
v -3.7 0.2 -3.1
v 2.5 0.2 -3.1
v 2.7 0.2 -3.1
v 3.2 0.2 -3.1
v 3.7 0.2 -3.1
v -0.4 0.2 -3.2
v 0.3 0.2 -3.2
v 2.3 0.2 -3.2
v 2.5 0.2 -3.2
v 3.7 0.2 -3.2
v 4 0.2 -3.2
v -4.7 0.2 -3.3
v -4.6 0.2 -3.3
v -0.7 0.2 -3.3
v -0.4 0.2 -3.3
v 0.3 0.2 -3.3
v 0.6 0.2 -3.3
v 2.1 0.2 -3.3
v 2.3 0.2 -3.3
v 4 0.2 -3.3
v 4.3 0.2 -3.3
v -3.9 0.2 -3.4
v -3.8 0.2 -3.4
v -0.8 0.2 -3.4
v -0.7 0.2 -3.4
v 0.6 0.2 -3.4
v 0.9 0.2 -3.4
v 1.9 0.2 -3.4
v 2.1 0.2 -3.4
v 4.3 0.2 -3.4
v 4.4 0.2 -3.4
v -1 0.2 -3.5
v -0.8 0.2 -3.5
v 0.9 0.2 -3.5
v 1.9 0.2 -3.5
v 4.4 0.2 -3.5
v 4.5 0.2 -3.5
v -1.1 0.2 -3.6
v -1 0.2 -3.6
v 4.5 0.2 -3.6
v 5 0.2 -3.6
v -4 0.2 -3.7
v -3.9 0.2 -3.7
v -1.3 0.2 -3.7
v -1.1 0.2 -3.7
v -4.6 0.2 -3.8
v -4.5 0.2 -3.8
v -1.4 0.2 -3.8
v -1.3 0.2 -3.8
v -4.1 0.2 -3.9
v -4 0.2 -3.9
v -1.7 0.2 -3.9
v -1.4 0.2 -3.9
v -2.4 0.2 -4
v -1.7 0.2 -4
v -4.2 0.2 -4.1
v -4.1 0.2 -4.1
v -2.5 0.2 -4.1
v -2.4 0.2 -4.1
v -4.5 0.2 -4.2
v -4.4 0.2 -4.2
v -4.3 0.2 -4.2
v -4.2 0.2 -4.2
v -4.4 0.2 -4.3
v -4.3 0.2 -4.3
v -4.3 0.2 -4.4
v -4.2 0.2 -4.4
v -4.2 0.2 -4.5
v -4.1 0.2 -4.5
v -2.5 0.2 -4.5
v -2.4 0.2 -4.5
v -4.1 0.2 -4.6
v -3.9 0.2 -4.6
v -2.4 0.2 -4.6
v -2.3 0.2 -4.6
v -3.9 0.2 -4.7
v -3.8 0.2 -4.7
v -2.3 0.2 -4.7
v -2.1 0.2 -4.7
v -3.8 0.2 -4.8
v -3.7 0.2 -4.8
v 1.5 0.2 -4.8
v 5 0.2 -4.8
v -3.7 0.2 -4.9
v -3.6 0.2 -4.9
v -2.1 0.2 -4.9
v 1.5 0.2 -4.9
v -3.6 0.2 -5
v -2.1 0.2 -5

# faces
f 8/1/1 2/1/1 1/1/1
f 9/2/1 3/2/1 2/2/1
f 9/1/1 2/1/1 8/1/1
f 10/2/1 3/2/1 9/2/1
f 11/2/1 3/2/1 10/2/1
f 12/2/1 3/2/1 11/2/1
f 13/2/1 3/2/1 12/2/1
f 14/2/1 3/2/1 13/2/1
f 15/1/1 4/1/1 3/1/1
f 15/2/1 3/2/1 14/2/1
f 16/2/1 5/2/1 4/2/1
f 16/1/1 4/1/1 15/1/1
f 17/1/1 6/1/1 5/1/1
f 17/2/1 5/2/1 16/2/1
f 18/2/1 7/2/1 6/2/1
f 18/1/1 6/1/1 17/1/1
f 19/2/1 7/2/1 18/2/1
f 20/3/1 11/3/1 10/3/1
f 21/4/1 12/4/1 11/4/1
f 21/3/1 11/3/1 20/3/1
f 22/3/1 13/3/1 12/3/1
f 22/4/1 12/4/1 21/4/1
f 23/4/1 14/4/1 13/4/1
f 23/3/1 13/3/1 22/3/1
f 24/4/1 14/4/1 23/4/1
f 27/4/1 26/4/1 25/4/1
f 28/4/1 26/4/1 27/4/1
f 31/4/1 30/4/1 29/4/1
f 32/4/1 30/4/1 31/4/1
f 38/3/1 34/3/1 33/3/1
f 39/3/1 34/3/1 38/3/1
f 40/4/1 37/4/1 36/4/1
f 40/4/1 36/4/1 35/4/1
f 41/4/1 37/4/1 40/4/1
f 44/4/1 43/4/1 42/4/1
f 45/4/1 43/4/1 44/4/1
f 48/4/1 47/4/1 46/4/1
f 49/4/1 47/4/1 48/4/1
f 52/4/1 51/4/1 50/4/1
f 53/4/1 51/4/1 52/4/1
f 56/3/1 55/3/1 54/3/1
f 57/3/1 55/3/1 56/3/1
f 62/3/1 59/3/1 58/3/1
f 63/3/1 59/3/1 62/3/1
f 64/3/1 61/3/1 60/3/1
f 65/3/1 61/3/1 64/3/1
f 68/3/1 67/3/1 66/3/1
f 69/3/1 67/3/1 68/3/1
f 72/3/1 71/3/1 70/3/1
f 73/3/1 71/3/1 72/3/1
f 78/3/1 75/3/1 74/3/1
f 79/3/1 75/3/1 78/3/1
f 80/3/1 77/3/1 76/3/1
f 81/3/1 77/3/1 80/3/1
f 84/3/1 83/3/1 82/3/1
f 85/3/1 83/3/1 84/3/1
f 88/3/1 87/3/1 86/3/1
f 89/3/1 87/3/1 88/3/1
f 92/3/1 91/3/1 90/3/1
f 93/3/1 91/3/1 92/3/1
f 96/3/1 95/3/1 94/3/1
f 97/3/1 95/3/1 96/3/1
f 100/3/1 99/3/1 98/3/1
f 101/3/1 99/3/1 100/3/1
f 106/3/1 103/3/1 102/3/1
f 107/3/1 103/3/1 106/3/1
f 108/3/1 105/3/1 104/3/1
f 109/3/1 105/3/1 108/3/1
f 114/3/1 111/3/1 110/3/1
f 115/3/1 111/3/1 114/3/1
f 116/3/1 113/3/1 112/3/1
f 117/3/1 113/3/1 116/3/1
f 120/3/1 119/3/1 118/3/1
f 121/3/1 119/3/1 120/3/1
f 122/3/2 123/3/2 124/3/2
f 124/3/2 123/3/2 125/3/2
f 126/4/2 127/4/2 128/4/2
f 128/4/2 127/4/2 129/4/2
f 130/4/2 131/4/2 132/4/2
f 132/4/2 131/4/2 133/4/2
f 134/4/2 135/4/2 136/4/2
f 136/4/2 135/4/2 137/4/2
f 138/4/2 139/4/2 140/4/2
f 140/4/2 139/4/2 141/4/2
f 142/4/2 143/4/2 144/4/2
f 144/4/2 143/4/2 145/4/2
f 146/4/2 147/4/2 149/4/2
f 147/3/2 148/3/2 150/3/2
f 149/4/2 147/4/2 150/4/2
f 150/3/2 148/3/2 151/3/2
f 152/3/2 153/3/2 154/3/2
f 154/3/2 153/3/2 155/3/2
f 156/3/2 157/3/2 158/3/2
f 158/3/2 157/3/2 159/3/2
f 160/3/2 161/3/2 162/3/2
f 162/3/2 161/3/2 163/3/2
f 164/3/2 165/3/2 166/3/2
f 166/3/2 165/3/2 167/3/2
f 168/1/2 169/1/2 171/1/2
f 169/2/2 170/2/2 172/2/2
f 171/1/2 169/1/2 172/1/2
f 172/2/2 170/2/2 173/2/2
f 173/2/2 170/2/2 174/2/2
f 174/2/2 170/2/2 175/2/2
f 175/2/2 170/2/2 176/2/2
f 176/2/2 170/2/2 177/2/2
f 172/3/2 173/3/2 178/3/2
f 178/3/2 173/3/2 179/3/2
f 174/3/2 175/3/2 180/3/2
f 175/4/2 176/4/2 181/4/2
f 180/3/2 175/3/2 181/3/2
f 181/4/2 176/4/2 182/4/2
f 185/1/3 184/1/3 183/1/3
f 186/1/3 184/1/3 185/1/3
f 187/2/3 186/2/3 185/2/3
f 189/2/3 187/2/3 185/2/3
f 189/3/3 188/3/3 187/3/3
f 190/3/3 188/3/3 189/3/3
f 191/2/3 189/2/3 185/2/3
f 191/4/3 190/4/3 189/4/3
f 192/4/3 190/4/3 191/4/3
f 193/2/3 191/2/3 185/2/3
f 194/2/3 191/2/3 193/2/3
f 195/1/3 194/1/3 193/1/3
f 196/1/3 194/1/3 195/1/3
f 199/3/3 198/3/3 197/3/3
f 200/3/3 198/3/3 199/3/3
f 203/4/3 202/4/3 201/4/3
f 204/4/3 202/4/3 203/4/3
f 207/3/3 206/3/3 205/3/3
f 208/3/3 206/3/3 207/3/3
f 211/4/3 210/4/3 209/4/3
f 212/4/3 210/4/3 211/4/3
f 213/4/3 210/4/3 212/4/3
f 216/3/3 215/3/3 214/3/3
f 217/3/3 215/3/3 216/3/3
f 220/3/3 219/3/3 218/3/3
f 221/3/3 219/3/3 220/3/3
f 224/3/3 223/3/3 222/3/3
f 225/3/3 223/3/3 224/3/3
f 228/4/3 227/4/3 226/4/3
f 229/4/3 227/4/3 228/4/3
f 232/3/3 231/3/3 230/3/3
f 233/3/3 231/3/3 232/3/3
f 236/3/3 235/3/3 234/3/3
f 237/3/3 235/3/3 236/3/3
f 240/4/3 239/4/3 238/4/3
f 241/4/3 239/4/3 240/4/3
f 244/3/3 243/3/3 242/3/3
f 245/3/3 243/3/3 244/3/3
f 248/3/3 247/3/3 246/3/3
f 249/3/3 247/3/3 248/3/3
f 252/3/3 251/3/3 250/3/3
f 253/3/3 251/3/3 252/3/3
f 256/3/3 255/3/3 254/3/3
f 257/3/3 255/3/3 256/3/3
f 260/3/3 259/3/3 258/3/3
f 261/3/3 259/3/3 260/3/3
f 264/3/3 263/3/3 262/3/3
f 265/3/3 263/3/3 264/3/3
f 266/3/4 267/3/4 268/3/4
f 268/3/4 267/3/4 269/3/4
f 270/3/4 271/3/4 272/3/4
f 272/3/4 271/3/4 273/3/4
f 274/3/4 275/3/4 276/3/4
f 276/3/4 275/3/4 277/3/4
f 278/3/4 279/3/4 280/3/4
f 280/3/4 279/3/4 281/3/4
f 282/4/4 283/4/4 284/4/4
f 284/4/4 283/4/4 285/4/4
f 286/4/4 287/4/4 288/4/4
f 288/4/4 287/4/4 289/4/4
f 290/4/4 291/4/4 292/4/4
f 292/4/4 291/4/4 293/4/4
f 294/4/4 295/4/4 296/4/4
f 296/4/4 295/4/4 297/4/4
f 298/4/4 299/4/4 300/4/4
f 300/4/4 299/4/4 301/4/4
f 302/4/4 303/4/4 304/4/4
f 304/4/4 303/4/4 305/4/4
f 306/4/4 307/4/4 308/4/4
f 308/4/4 307/4/4 309/4/4
f 310/3/4 311/3/4 312/3/4
f 312/3/4 311/3/4 313/3/4
f 314/3/4 315/3/4 316/3/4
f 316/3/4 315/3/4 317/3/4
f 318/3/4 319/3/4 320/3/4
f 320/3/4 319/3/4 321/3/4
f 322/3/4 323/3/4 324/3/4
f 324/3/4 323/3/4 325/3/4
f 326/3/4 327/3/4 328/3/4
f 328/3/4 327/3/4 329/3/4
f 330/4/4 331/4/4 332/4/4
f 332/4/4 331/4/4 333/4/4
f 333/4/4 331/4/4 334/4/4
f 334/4/4 331/4/4 335/4/4
f 336/3/4 337/3/4 338/3/4
f 338/3/4 337/3/4 339/3/4
f 340/4/4 341/4/4 342/4/4
f 342/4/4 341/4/4 343/4/4
f 343/4/4 341/4/4 344/4/4
f 345/2/4 346/2/4 347/2/4
f 347/2/4 346/2/4 348/2/4
f 347/1/4 348/1/4 349/1/4
f 349/1/4 348/1/4 350/1/4
f 349/2/4 350/2/4 352/2/4
f 350/3/4 351/3/4 352/3/4
f 352/3/4 351/3/4 353/3/4
f 349/2/4 352/2/4 354/2/4
f 354/2/4 352/2/4 355/2/4
f 354/1/4 355/1/4 356/1/4
f 356/1/4 355/1/4 357/1/4
f 356/2/4 357/2/4 358/2/4
f 358/2/4 357/2/4 359/2/4
f 364/1/5 361/1/5 360/1/5
f 365/2/5 362/2/5 361/2/5
f 365/1/5 361/1/5 364/1/5
f 366/1/5 364/1/5 360/1/5
f 367/2/5 365/2/5 364/2/5
f 367/1/5 364/1/5 366/1/5
f 368/1/5 363/1/5 362/1/5
f 368/2/5 365/2/5 367/2/5
f 368/2/5 362/2/5 365/2/5
f 369/1/5 363/1/5 368/1/5
f 370/1/5 366/1/5 360/1/5
f 371/2/5 367/2/5 366/2/5
f 371/1/5 366/1/5 370/1/5
f 371/2/5 368/2/5 367/2/5
f 371/2/5 369/2/5 368/2/5
f 372/1/5 363/1/5 369/1/5
f 372/2/5 369/2/5 371/2/5
f 372/2/5 371/2/5 370/2/5
f 373/1/5 363/1/5 372/1/5
f 374/2/5 373/2/5 372/2/5
f 374/1/5 363/1/5 373/1/5
f 375/1/5 363/1/5 374/1/5
f 376/2/5 375/2/5 374/2/5
f 376/1/5 363/1/5 375/1/5
f 377/1/5 363/1/5 376/1/5
f 378/2/5 377/2/5 376/2/5
f 378/1/5 363/1/5 377/1/5
f 379/1/5 363/1/5 378/1/5
f 380/2/5 372/2/5 370/2/5
f 380/2/5 374/2/5 372/2/5
f 380/2/5 379/2/5 378/2/5
f 380/2/5 378/2/5 376/2/5
f 380/2/5 376/2/5 374/2/5
f 381/2/5 379/2/5 380/2/5
f 382/1/5 381/1/5 380/1/5
f 383/2/5 379/2/5 381/2/5
f 383/1/5 381/1/5 382/1/5
f 384/2/5 379/2/5 383/2/5
f 385/2/5 383/2/5 382/2/5
f 386/1/5 384/1/5 383/1/5
f 386/2/5 383/2/5 385/2/5
f 387/1/5 386/1/5 385/1/5
f 387/1/5 384/1/5 386/1/5
f 388/2/5 379/2/5 384/2/5
f 388/1/5 384/1/5 387/1/5
f 389/2/5 379/2/5 388/2/5
f 390/1/5 389/1/5 388/1/5
f 390/2/5 379/2/5 389/2/5
f 391/2/5 379/2/5 390/2/5
f 392/1/5 387/1/5 385/1/5
f 393/2/5 388/2/5 387/2/5
f 393/1/5 387/1/5 392/1/5
f 394/1/5 390/1/5 388/1/5
f 394/2/5 388/2/5 393/2/5
f 394/1/5 391/1/5 390/1/5
f 395/1/5 394/1/5 393/1/5
f 395/1/5 391/1/5 394/1/5
f 396/1/5 391/1/5 395/1/5
f 397/2/5 393/2/5 392/2/5
f 397/1/5 395/1/5 393/1/5
f 398/2/5 396/2/5 395/2/5
f 398/1/5 395/1/5 397/1/5
f 399/1/5 391/1/5 396/1/5
f 399/2/5 396/2/5 398/2/5
f 400/2/5 379/2/5 391/2/5
f 400/1/5 391/1/5 399/1/5
f 400/1/5 399/1/5 398/1/5
f 401/2/5 379/2/5 400/2/5
f 402/2/5 398/2/5 397/2/5
f 402/1/5 400/1/5 398/1/5
f 402/1/5 401/1/5 400/1/5
f 403/1/5 401/1/5 402/1/5
f 404/2/5 403/2/5 402/2/5
f 404/1/5 401/1/5 403/1/5
f 405/1/5 401/1/5 404/1/5
f 406/2/5 379/2/5 401/2/5
f 406/1/5 401/1/5 405/1/5
f 407/2/5 379/2/5 406/2/5
f 408/1/5 407/1/5 406/1/5
f 408/2/5 379/2/5 407/2/5
f 409/2/5 379/2/5 408/2/5
f 410/2/5 405/2/5 404/2/5
f 410/1/5 406/1/5 405/1/5
f 410/1/5 409/1/5 408/1/5
f 410/1/5 408/1/5 406/1/5
f 411/1/5 409/1/5 410/1/5
f 412/2/5 379/2/5 409/2/5
f 412/1/5 409/1/5 411/1/5
f 413/2/5 379/2/5 412/2/5
f 414/1/5 412/1/5 411/1/5
f 414/2/5 379/2/5 413/2/5
f 414/1/5 413/1/5 412/1/5
f 415/2/5 379/2/5 414/2/5
f 416/2/5 411/2/5 410/2/5
f 416/1/5 414/1/5 411/1/5
f 416/1/5 415/1/5 414/1/5
f 417/1/5 415/1/5 416/1/5
f 418/2/5 379/2/5 415/2/5
f 418/1/5 415/1/5 417/1/5
f 419/2/5 379/2/5 418/2/5
f 420/1/5 418/1/5 417/1/5
f 420/2/5 379/2/5 419/2/5
f 420/1/5 419/1/5 418/1/5
f 421/2/5 379/2/5 420/2/5
f 422/2/5 417/2/5 416/2/5
f 422/1/5 420/1/5 417/1/5
f 422/1/5 421/1/5 420/1/5
f 423/1/5 421/1/5 422/1/5
f 424/2/5 379/2/5 421/2/5
f 424/1/5 421/1/5 423/1/5
f 425/2/5 379/2/5 424/2/5
f 426/2/5 379/2/5 425/2/5
f 427/2/5 379/2/5 426/2/5
f 428/1/5 424/1/5 423/1/5
f 428/1/5 425/1/5 424/1/5
f 428/2/5 426/2/5 425/2/5
f 429/2/5 426/2/5 428/2/5
f 430/2/5 426/2/5 429/2/5
f 431/1/5 427/1/5 426/1/5
f 431/2/5 426/2/5 430/2/5
f 432/2/5 379/2/5 427/2/5
f 432/1/5 427/1/5 431/1/5
f 433/2/5 397/2/5 392/2/5
f 433/2/5 423/2/5 422/2/5
f 433/2/5 402/2/5 397/2/5
f 433/2/5 404/2/5 402/2/5
f 433/2/5 410/2/5 404/2/5
f 433/2/5 416/2/5 410/2/5
f 433/2/5 422/2/5 416/2/5
f 434/1/5 429/1/5 428/1/5
f 434/2/5 423/2/5 433/2/5
f 434/1/5 428/1/5 423/1/5
f 435/2/5 430/2/5 429/2/5
f 435/1/5 429/1/5 434/1/5
f 436/1/5 431/1/5 430/1/5
f 436/2/5 430/2/5 435/2/5
f 437/2/5 432/2/5 431/2/5
f 437/1/5 431/1/5 436/1/5
f 438/2/5 379/2/5 432/2/5
f 438/2/5 432/2/5 437/2/5
f 439/1/6 440/1/6 445/1/6
f 440/2/6 441/2/6 446/2/6
f 445/1/6 440/1/6 446/1/6
f 446/2/6 441/2/6 447/2/6
f 447/2/6 441/2/6 448/2/6
f 442/2/6 443/2/6 449/2/6
f 449/2/6 443/2/6 450/2/6
f 439/1/6 445/1/6 451/1/6
f 445/2/6 446/2/6 452/2/6
f 451/1/6 445/1/6 452/1/6
f 446/2/6 447/2/6 452/2/6
f 452/2/6 447/2/6 453/2/6
f 453/2/6 447/2/6 454/2/6
f 450/2/6 443/2/6 455/2/6
f 443/1/6 444/1/6 456/1/6
f 455/2/6 443/2/6 456/2/6
f 456/1/6 444/1/6 457/1/6
f 457/1/6 444/1/6 458/1/6
f 439/1/6 451/1/6 459/1/6
f 451/2/6 452/2/6 460/2/6
f 459/1/6 451/1/6 460/1/6
f 452/2/6 453/2/6 460/2/6
f 460/2/6 453/2/6 461/2/6
f 461/2/6 453/2/6 462/2/6
f 459/2/6 460/2/6 463/2/6
f 460/2/6 461/2/6 463/2/6
f 463/2/6 461/2/6 464/2/6
f 458/1/6 444/1/6 465/1/6
f 457/2/6 458/2/6 465/2/6
f 465/1/6 444/1/6 466/1/6
f 459/2/6 463/2/6 467/2/6
f 467/2/6 463/2/6 468/2/6
f 465/2/6 466/2/6 469/2/6
f 457/2/6 465/2/6 469/2/6
f 469/2/6 466/2/6 470/2/6
f 466/1/6 444/1/6 471/1/6
f 470/2/6 466/2/6 471/2/6
f 471/1/6 444/1/6 472/1/6
f 471/2/6 472/2/6 473/2/6
f 472/1/6 444/1/6 473/1/6
f 473/1/6 444/1/6 474/1/6
f 473/2/6 474/2/6 475/2/6
f 474/1/6 444/1/6 475/1/6
f 475/1/6 444/1/6 476/1/6
f 471/2/6 473/2/6 477/2/6
f 473/2/6 475/2/6 477/2/6
f 477/2/6 475/2/6 478/2/6
f 470/2/6 471/2/6 479/2/6
f 471/2/6 477/2/6 479/2/6
f 479/2/6 477/2/6 480/2/6
f 480/2/6 477/2/6 481/2/6
f 481/2/6 477/2/6 482/2/6
f 480/2/6 481/2/6 483/2/6
f 483/2/6 481/2/6 484/2/6
f 484/2/6 481/2/6 485/2/6
f 485/2/6 486/2/6 487/2/6
f 487/2/6 486/2/6 488/2/6
f 488/2/6 489/2/6 490/2/6
f 490/2/6 489/2/6 491/2/6
f 491/2/6 492/2/6 493/2/6
f 493/2/6 492/2/6 494/2/6
f 494/2/6 495/2/6 496/2/6
f 496/2/6 495/2/6 497/2/6
f 498/2/6 499/2/6 500/2/6
f 498/2/6 500/2/6 502/2/6
f 500/2/6 501/2/6 502/2/6
f 502/2/6 501/2/6 503/2/6
f 503/2/6 501/2/6 504/2/6
f 502/1/6 503/1/6 506/1/6
f 504/2/6 505/2/6 507/2/6
f 506/1/6 503/1/6 507/1/6
f 503/2/6 504/2/6 507/2/6
f 507/2/6 505/2/6 508/2/6
f 506/2/6 507/2/6 509/2/6
f 507/1/6 508/1/6 510/1/6
f 509/2/6 507/2/6 510/2/6
f 509/1/6 510/1/6 511/1/6
f 510/1/6 508/1/6 511/1/6
f 508/2/6 505/2/6 512/2/6
f 511/1/6 508/1/6 512/1/6
f 512/2/6 505/2/6 513/2/6
f 512/1/6 513/1/6 514/1/6
f 509/1/6 511/1/6 516/1/6
f 511/2/6 512/2/6 517/2/6
f 516/1/6 511/1/6 517/1/6
f 514/1/6 515/1/6 518/1/6
f 517/2/6 512/2/6 518/2/6
f 512/1/6 514/1/6 518/1/6
f 517/1/6 518/1/6 519/1/6
f 518/1/6 515/1/6 519/1/6
f 519/1/6 515/1/6 520/1/6
f 516/2/6 517/2/6 521/2/6
f 517/1/6 519/1/6 521/1/6
f 519/2/6 520/2/6 522/2/6
f 521/1/6 519/1/6 522/1/6
f 520/1/6 515/1/6 523/1/6
f 522/2/6 520/2/6 523/2/6
f 522/1/6 523/1/6 524/1/6
f 523/1/6 515/1/6 524/1/6
f 521/2/6 522/2/6 526/2/6
f 524/1/6 525/1/6 526/1/6
f 522/1/6 524/1/6 526/1/6
f 526/1/6 525/1/6 527/1/6
f 526/2/6 527/2/6 528/2/6
f 527/1/6 525/1/6 528/1/6
f 528/1/6 525/1/6 529/1/6
f 529/1/6 525/1/6 530/1/6
f 530/1/6 531/1/6 532/1/6
f 528/2/6 529/2/6 534/2/6
f 532/1/6 533/1/6 534/1/6
f 530/1/6 532/1/6 534/1/6
f 529/1/6 530/1/6 534/1/6
f 534/1/6 533/1/6 535/1/6
f 535/1/6 533/1/6 536/1/6
f 535/1/6 536/1/6 538/1/6
f 536/1/6 537/1/6 538/1/6
f 534/2/6 535/2/6 540/2/6
f 538/1/6 539/1/6 540/1/6
f 535/1/6 538/1/6 540/1/6
f 540/1/6 539/1/6 541/1/6
f 541/1/6 539/1/6 542/1/6
f 541/1/6 542/1/6 544/1/6
f 542/1/6 543/1/6 544/1/6
f 540/2/6 541/2/6 546/2/6
f 544/1/6 545/1/6 546/1/6
f 541/1/6 544/1/6 546/1/6
f 546/1/6 545/1/6 547/1/6
f 547/1/6 545/1/6 548/1/6
f 547/1/6 548/1/6 554/1/6
f 548/1/6 549/1/6 554/1/6
f 550/2/6 551/2/6 558/2/6
f 551/1/6 552/1/6 559/1/6
f 558/2/6 551/2/6 559/2/6
f 552/2/6 553/2/6 560/2/6
f 559/1/6 552/1/6 560/1/6
f 516/2/6 521/2/6 561/2/6
f 521/2/6 526/2/6 561/2/6
f 526/2/6 528/2/6 561/2/6
f 528/2/6 534/2/6 561/2/6
f 534/2/6 540/2/6 561/2/6
f 540/2/6 546/2/6 561/2/6
f 546/2/6 547/2/6 561/2/6
f 554/1/6 555/1/6 562/1/6
f 561/2/6 547/2/6 562/2/6
f 547/1/6 554/1/6 562/1/6
f 562/1/6 555/1/6 563/1/6
f 556/2/6 557/2/6 564/2/6
f 558/1/6 559/1/6 565/1/6
f 564/2/6 557/2/6 565/2/6
f 557/1/6 558/1/6 565/1/6
f 559/2/6 560/2/6 566/2/6
f 565/1/6 559/1/6 566/1/6
f 560/2/6 553/2/6 567/2/6
f 566/2/6 560/2/6 567/2/6
f 568/3/6 569/3/6 572/3/6
f 569/4/6 570/4/6 573/4/6
f 571/3/6 572/3/6 576/3/6
f 573/4/6 574/4/6 577/4/6
f 575/3/6 576/3/6 580/3/6
f 579/3/6 580/3/6 582/3/6
f 581/3/6 582/3/6 584/3/6
f 583/3/6 584/3/6 585/3/6
f 580/3/6 576/3/6 586/3/6
f 585/3/6 584/3/6 586/3/6
f 582/3/6 580/3/6 586/3/6
f 584/3/6 582/3/6 586/3/6
f 577/4/6 578/4/6 587/4/6
f 586/3/6 576/3/6 587/3/6
f 572/3/6 569/3/6 587/3/6
f 569/4/6 573/4/6 587/4/6
f 576/3/6 572/3/6 587/3/6
f 573/4/6 577/4/6 587/4/6
f 587/4/6 578/4/6 588/4/6
f 588/4/6 578/4/6 589/4/6
f 586/3/6 587/3/6 591/3/6
f 589/4/6 590/4/6 591/4/6
f 588/4/6 589/4/6 591/4/6
f 587/3/6 588/3/6 591/3/6
f 591/4/6 590/4/6 592/4/6
f 591/3/6 592/3/6 593/3/6
f 592/4/6 590/4/6 593/4/6
f 593/4/6 590/4/6 594/4/6
f 593/3/6 594/3/6 595/3/6
f 594/4/6 590/4/6 595/4/6
f 595/4/6 590/4/6 596/4/6
f 585/4/6 586/4/6 597/4/6
f 586/3/6 591/3/6 597/3/6
f 595/3/6 596/3/6 597/3/6
f 593/3/6 595/3/6 597/3/6
f 591/3/6 593/3/6 597/3/6
f 597/3/6 596/3/6 598/3/6
f 597/4/6 598/4/6 599/4/6
f 598/3/6 596/3/6 599/3/6
f 599/3/6 596/3/6 600/3/6
f 600/3/6 596/3/6 601/3/6
f 596/4/6 590/4/6 602/4/6
f 601/3/6 596/3/6 602/3/6
f 600/3/6 601/3/6 603/3/6
f 599/4/6 600/4/6 603/4/6
f 603/3/6 601/3/6 604/3/6
f 604/3/6 601/3/6 605/3/6
f 601/4/6 602/4/6 606/4/6
f 605/3/6 601/3/6 606/3/6
f 604/3/6 605/3/6 607/3/6
f 603/4/6 604/4/6 607/4/6
f 607/3/6 605/3/6 608/3/6
f 608/3/6 605/3/6 609/3/6
f 605/4/6 606/4/6 610/4/6
f 609/3/6 605/3/6 610/3/6
f 608/3/6 609/3/6 611/3/6
f 607/4/6 608/4/6 611/4/6
f 611/3/6 609/3/6 612/3/6
f 611/4/6 612/4/6 615/4/6
f 612/3/6 609/3/6 615/3/6
f 615/3/6 609/3/6 616/3/6
f 616/3/6 609/3/6 617/3/6
f 609/4/6 610/4/6 618/4/6
f 617/3/6 609/3/6 618/3/6
f 613/3/6 614/3/6 620/3/6
f 616/3/6 617/3/6 621/3/6
f 615/4/6 616/4/6 621/4/6
f 621/3/6 617/3/6 622/3/6
f 622/3/6 617/3/6 623/3/6
f 617/4/6 618/4/6 624/4/6
f 623/3/6 617/3/6 624/3/6
f 602/4/6 590/4/6 625/4/6
f 624/4/6 618/4/6 625/4/6
f 606/4/6 602/4/6 625/4/6
f 610/4/6 606/4/6 625/4/6
f 618/4/6 610/4/6 625/4/6
f 619/3/6 620/3/6 628/3/6
f 621/4/6 622/4/6 629/4/6
f 622/3/6 623/3/6 629/3/6
f 629/3/6 623/3/6 630/3/6
f 623/4/6 624/4/6 631/4/6
f 625/4/6 626/4/6 631/4/6
f 624/4/6 625/4/6 631/4/6
f 631/4/6 626/4/6 632/4/6
f 630/3/6 623/3/6 633/3/6
f 629/4/6 630/4/6 633/4/6
f 633/3/6 623/3/6 634/3/6
f 623/4/6 631/4/6 635/4/6
f 631/3/6 632/3/6 636/3/6
f 635/4/6 631/4/6 636/4/6
f 585/4/6 597/4/6 637/4/6
f 597/4/6 599/4/6 637/4/6
f 599/4/6 603/4/6 637/4/6
f 633/4/6 634/4/6 637/4/6
f 629/4/6 633/4/6 637/4/6
f 615/4/6 621/4/6 637/4/6
f 603/4/6 607/4/6 637/4/6
f 621/4/6 629/4/6 637/4/6
f 607/4/6 611/4/6 637/4/6
f 611/4/6 615/4/6 637/4/6
f 637/4/6 634/4/6 638/4/6
f 634/3/6 623/3/6 639/3/6
f 638/4/6 634/4/6 639/4/6
f 639/3/6 623/3/6 640/3/6
f 640/3/6 623/3/6 641/3/6
f 623/4/6 635/4/6 642/4/6
f 641/3/6 623/3/6 642/3/6
f 640/3/6 641/3/6 643/3/6
f 638/4/6 639/4/6 643/4/6
f 639/4/6 640/4/6 643/4/6
f 643/3/6 641/3/6 644/3/6
f 637/3/6 638/3/6 645/3/6
f 638/4/6 643/4/6 645/4/6
f 643/4/6 644/4/6 645/4/6
f 645/4/6 644/4/6 646/4/6
f 644/3/6 641/3/6 647/3/6
f 646/4/6 644/4/6 647/4/6
f 647/3/6 641/3/6 648/3/6
f 642/4/6 635/4/6 649/4/6
f 641/4/6 642/4/6 649/4/6
f 635/3/6 636/3/6 650/3/6
f 649/4/6 635/4/6 650/4/6
f 648/3/6 641/3/6 651/3/6
f 647/4/6 648/4/6 651/4/6
f 646/4/6 647/4/6 651/4/6
f 651/3/6 641/3/6 652/3/6
f 641/4/6 649/4/6 653/4/6
f 652/3/6 641/3/6 653/3/6
f 653/4/6 649/4/6 654/4/6
f 651/4/6 652/4/6 655/4/6
f 645/3/6 646/3/6 655/3/6
f 646/4/6 651/4/6 655/4/6
f 655/4/6 652/4/6 656/4/6
f 653/3/6 654/3/6 657/3/6
f 656/4/6 652/4/6 657/4/6
f 652/3/6 653/3/6 657/3/6
f 657/3/6 654/3/6 658/3/6
f 654/4/6 649/4/6 659/4/6
f 658/3/6 654/3/6 659/3/6
f 659/4/6 649/4/6 660/4/6
f 660/4/6 649/4/6 661/4/6
f 649/3/6 650/3/6 662/3/6
f 661/4/6 649/4/6 662/4/6
f 657/4/6 658/4/6 663/4/6
f 656/4/6 657/4/6 663/4/6
f 658/3/6 659/3/6 663/3/6
f 659/3/6 660/3/6 663/3/6
f 663/3/6 660/3/6 664/3/6
f 660/4/6 661/4/6 665/4/6
f 664/3/6 660/3/6 665/3/6
f 665/4/6 661/4/6 666/4/6
f 655/3/6 656/3/6 667/3/6
f 663/4/6 664/4/6 667/4/6
f 656/4/6 663/4/6 667/4/6
f 667/4/6 664/4/6 668/4/6
f 666/4/6 661/4/6 669/4/6
f 665/3/6 666/3/6 669/3/6
f 664/3/6 665/3/6 669/3/6
f 669/4/6 661/4/6 670/4/6
f 670/4/6 661/4/6 671/4/6
f 661/3/6 662/3/6 672/3/6
f 671/4/6 661/4/6 672/4/6
f 636/3/6 632/3/6 673/3/6
f 672/3/6 662/3/6 673/3/6
f 662/3/6 650/3/6 673/3/6
f 650/3/6 636/3/6 673/3/6
f 627/3/6 628/3/6 674/3/6
f 628/3/6 620/3/6 675/3/6
f 674/3/6 628/3/6 675/3/6
f 669/3/6 670/3/6 676/3/6
f 668/4/6 664/4/6 676/4/6
f 664/3/6 669/3/6 676/3/6
f 676/3/6 670/3/6 677/3/6
f 670/4/6 671/4/6 678/4/6
f 677/3/6 670/3/6 678/3/6
f 678/4/6 671/4/6 679/4/6
f 679/4/6 671/4/6 680/4/6
f 672/3/6 673/3/6 681/3/6
f 680/4/6 671/4/6 681/4/6
f 671/3/6 672/3/6 681/3/6
f 673/3/6 674/3/6 681/3/6
f 676/4/6 677/4/6 682/4/6
f 667/3/6 668/3/6 682/3/6
f 668/4/6 676/4/6 682/4/6
f 682/4/6 677/4/6 683/4/6
f 678/3/6 679/3/6 684/3/6
f 683/4/6 677/4/6 684/4/6
f 677/3/6 678/3/6 684/3/6
f 684/3/6 679/3/6 685/3/6
f 679/4/6 680/4/6 686/4/6
f 685/3/6 679/3/6 686/3/6
f 686/4/6 680/4/6 687/4/6
f 687/4/6 680/4/6 688/4/6
f 680/3/6 681/3/6 689/3/6
f 688/4/6 680/4/6 689/4/6
f 684/4/6 685/4/6 690/4/6
f 683/4/6 684/4/6 690/4/6
f 685/3/6 686/3/6 691/3/6
f 690/4/6 685/4/6 691/4/6
f 686/3/6 687/3/6 691/3/6
f 687/4/6 688/4/6 692/4/6
f 691/3/6 687/3/6 692/3/6
f 692/4/6 688/4/6 693/4/6
f 693/4/6 688/4/6 694/4/6
f 688/3/6 689/3/6 695/3/6
f 694/4/6 688/4/6 695/4/6
f 682/3/6 683/3/6 696/3/6
f 683/4/6 690/4/6 696/4/6
f 696/4/6 690/4/6 697/4/6
f 697/4/6 690/4/6 698/4/6
f 690/3/6 691/3/6 699/3/6
f 698/4/6 690/4/6 699/4/6
f 691/3/6 692/3/6 699/3/6
f 692/3/6 693/3/6 699/3/6
f 693/4/6 694/4/6 700/4/6
f 699/3/6 693/3/6 700/3/6
f 694/3/6 695/3/6 701/3/6
f 700/4/6 694/4/6 701/4/6
f 697/4/6 698/4/6 702/4/6
f 698/3/6 699/3/6 703/3/6
f 702/4/6 698/4/6 703/4/6
f 699/3/6 700/3/6 703/3/6
f 700/3/6 701/3/6 703/3/6
f 697/4/6 702/4/6 704/4/6
f 702/3/6 703/3/6 705/3/6
f 704/4/6 702/4/6 705/4/6
f 697/4/6 704/4/6 706/4/6
f 704/3/6 705/3/6 707/3/6
f 706/4/6 704/4/6 707/4/6
f 696/3/6 697/3/6 708/3/6
f 697/4/6 706/4/6 708/4/6
f 708/4/6 706/4/6 709/4/6
f 709/4/6 706/4/6 710/4/6
f 706/3/6 707/3/6 711/3/6
f 710/4/6 706/4/6 711/4/6
f 709/4/6 710/4/6 712/4/6
f 710/3/6 711/3/6 713/3/6
f 712/4/6 710/4/6 713/4/6
f 709/4/6 712/4/6 714/4/6
f 712/3/6 713/3/6 715/3/6
f 714/4/6 712/4/6 715/4/6
f 689/3/6 681/3/6 716/3/6
f 715/3/6 713/3/6 716/3/6
f 695/3/6 689/3/6 716/3/6
f 681/3/6 674/3/6 716/3/6
f 713/3/6 711/3/6 716/3/6
f 701/3/6 695/3/6 716/3/6
f 703/3/6 701/3/6 716/3/6
f 711/3/6 707/3/6 716/3/6
f 705/3/6 703/3/6 716/3/6
f 707/3/6 705/3/6 716/3/6
f 675/3/6 620/3/6 717/3/6
f 620/3/6 614/3/6 718/3/6
f 717/3/6 620/3/6 718/3/6
f 709/4/6 714/4/6 719/4/6
f 714/3/6 715/3/6 720/3/6
f 719/4/6 714/4/6 720/4/6
f 715/3/6 716/3/6 720/3/6
f 716/3/6 717/3/6 720/3/6
f 709/4/6 719/4/6 721/4/6
f 708/3/6 709/3/6 721/3/6
f 721/4/6 719/4/6 722/4/6
f 722/4/6 719/4/6 723/4/6
f 719/3/6 720/3/6 724/3/6
f 723/4/6 719/4/6 724/4/6
f 722/4/6 723/4/6 725/4/6
f 723/3/6 724/3/6 725/3/6
f 720/3/6 717/3/6 726/3/6
f 725/3/6 724/3/6 726/3/6
f 724/3/6 720/3/6 726/3/6
f 725/4/6 726/4/6 727/4/6
f 726/3/6 717/3/6 727/3/6
f 727/3/6 717/3/6 728/3/6
f 727/4/6 728/4/6 729/4/6
f 728/3/6 717/3/6 729/3/6
f 729/3/6 717/3/6 730/3/6
f 730/3/6 717/3/6 731/3/6
f 718/3/6 614/3/6 732/3/6
f 732/3/6 614/3/6 733/3/6
f 721/3/6 722/3/6 734/3/6
f 708/3/6 721/3/6 734/3/6
f 722/4/6 725/4/6 735/4/6
f 734/3/6 722/3/6 735/3/6
f 725/4/6 727/4/6 735/4/6
f 727/4/6 729/4/6 735/4/6
f 729/4/6 730/4/6 735/4/6
f 730/3/6 731/3/6 736/3/6
f 735/4/6 730/4/6 736/4/6
f 731/3/6 732/3/6 736/3/6
f 736/3/6 732/3/6 737/3/6
f 734/4/6 735/4/6 738/4/6
f 737/3/6 732/3/6 738/3/6
f 736/4/6 737/4/6 738/4/6
f 735/4/6 736/4/6 738/4/6
f 738/3/6 732/3/6 739/3/6
f 738/4/6 739/4/6 740/4/6
f 739/3/6 732/3/6 740/3/6
f 740/3/6 732/3/6 741/3/6
f 708/3/6 734/3/6 742/3/6
f 696/3/6 708/3/6 742/3/6
f 740/4/6 741/4/6 743/4/6
f 742/3/6 734/3/6 743/3/6
f 734/4/6 738/4/6 743/4/6
f 738/4/6 740/4/6 743/4/6
f 741/3/6 732/3/6 744/3/6
f 743/4/6 741/4/6 744/4/6
f 744/3/6 732/3/6 745/3/6
f 682/3/6 696/3/6 746/3/6
f 696/3/6 742/3/6 746/3/6
f 742/4/6 743/4/6 747/4/6
f 746/3/6 742/3/6 747/3/6
f 744/4/6 745/4/6 747/4/6
f 743/4/6 744/4/6 747/4/6
f 745/3/6 732/3/6 748/3/6
f 747/4/6 745/4/6 748/4/6
f 748/3/6 732/3/6 749/3/6
f 746/4/6 747/4/6 750/4/6
f 749/3/6 732/3/6 750/3/6
f 748/4/6 749/4/6 750/4/6
f 747/4/6 748/4/6 750/4/6
f 750/3/6 732/3/6 751/3/6
f 751/3/6 732/3/6 752/3/6
f 752/3/6 732/3/6 753/3/6
f 682/3/6 746/3/6 754/3/6
f 655/3/6 667/3/6 754/3/6
f 667/3/6 682/3/6 754/3/6
f 637/3/6 645/3/6 754/3/6
f 645/3/6 655/3/6 754/3/6
f 754/3/6 746/3/6 755/3/6
f 755/3/6 746/3/6 756/3/6
f 750/4/6 751/4/6 757/4/6
f 756/3/6 746/3/6 757/3/6
f 746/4/6 750/4/6 757/4/6
f 751/3/6 752/3/6 758/3/6
f 757/4/6 751/4/6 758/4/6
f 758/3/6 752/3/6 759/3/6
f 759/3/6 752/3/6 760/3/6
f 752/4/6 753/4/6 761/4/6
f 760/3/6 752/3/6 761/3/6
f 753/3/6 732/3/6 762/3/6
f 761/4/6 753/4/6 762/4/6
f 762/3/6 732/3/6 763/3/6
f 637/3/6 754/3/6 764/3/6
f 754/4/6 755/4/6 765/4/6
f 764/3/6 754/3/6 765/3/6
f 755/3/6 756/3/6 766/3/6
f 765/4/6 755/4/6 766/4/6
f 756/4/6 757/4/6 767/4/6
f 766/3/6 756/3/6 767/3/6
f 757/4/6 758/4/6 767/4/6
f 758/4/6 759/4/6 767/4/6
f 759/3/6 760/3/6 768/3/6
f 767/4/6 759/4/6 768/4/6
f 768/3/6 760/3/6 769/3/6
f 769/3/6 760/3/6 770/3/6
f 760/4/6 761/4/6 771/4/6
f 770/3/6 760/3/6 771/3/6
f 762/4/6 763/4/6 771/4/6
f 761/4/6 762/4/6 771/4/6
f 763/3/6 732/3/6 772/3/6
f 771/4/6 763/4/6 772/4/6
f 772/3/6 732/3/6 773/3/6
f 769/3/6 770/3/6 774/3/6
f 766/4/6 767/4/6 774/4/6
f 765/4/6 766/4/6 774/4/6
f 764/4/6 765/4/6 774/4/6
f 767/4/6 768/4/6 774/4/6
f 768/4/6 769/4/6 774/4/6
f 774/3/6 770/3/6 775/3/6
f 775/3/6 770/3/6 776/3/6
f 772/4/6 773/4/6 777/4/6
f 776/3/6 770/3/6 777/3/6
f 771/4/6 772/4/6 777/4/6
f 770/4/6 771/4/6 777/4/6
f 775/3/6 776/3/6 778/3/6
f 774/4/6 775/4/6 778/4/6
f 778/3/6 776/3/6 779/3/6
f 773/3/6 732/3/6 780/3/6
f 777/4/6 773/4/6 780/4/6
f 776/4/6 777/4/6 780/4/6
f 780/3/6 732/3/6 781/3/6
f 781/3/6 732/3/6 782/3/6
f 733/3/6 614/3/6 783/3/6
f 783/3/6 614/3/6 784/3/6
f 779/3/6 776/3/6 785/3/6
f 776/4/6 780/4/6 785/4/6
f 780/4/6 781/4/6 785/4/6
f 785/4/6 781/4/6 786/4/6
f 786/4/6 781/4/6 787/4/6
f 781/3/6 782/3/6 788/3/6
f 787/4/6 781/4/6 788/4/6
f 782/3/6 783/3/6 788/3/6
f 778/4/6 779/4/6 789/4/6
f 774/4/6 778/4/6 789/4/6
f 785/3/6 786/3/6 790/3/6
f 789/4/6 779/4/6 790/4/6
f 779/3/6 785/3/6 790/3/6
f 788/3/6 783/3/6 791/3/6
f 787/3/6 788/3/6 791/3/6
f 790/3/6 786/3/6 793/3/6
f 789/3/6 790/3/6 793/3/6
f 786/4/6 787/4/6 793/4/6
f 793/4/6 787/4/6 794/4/6
f 764/4/6 774/4/6 795/4/6
f 774/4/6 789/4/6 795/4/6
f 793/3/6 794/3/6 796/3/6
f 795/4/6 789/4/6 796/4/6
f 789/3/6 793/3/6 796/3/6
f 794/4/6 787/4/6 797/4/6
f 796/3/6 794/3/6 797/3/6
f 795/3/6 796/3/6 797/3/6
f 797/4/6 787/4/6 798/4/6
f 798/4/6 787/4/6 799/4/6
f 791/3/6 792/3/6 800/3/6
f 799/4/6 787/4/6 800/4/6
f 787/3/6 791/3/6 800/3/6
f 764/4/6 795/4/6 801/4/6
f 797/3/6 798/3/6 802/3/6
f 801/4/6 795/4/6 802/4/6
f 795/3/6 797/3/6 802/3/6
f 798/4/6 799/4/6 803/4/6
f 802/3/6 798/3/6 803/3/6
f 803/4/6 799/4/6 804/4/6
f 764/4/6 801/4/6 805/4/6
f 801/3/6 802/3/6 806/3/6
f 805/4/6 801/4/6 806/4/6
f 802/3/6 803/3/6 806/3/6
f 803/3/6 804/3/6 806/3/6
f 804/4/6 799/4/6 807/4/6
f 806/3/6 804/3/6 807/3/6
f 807/4/6 799/4/6 808/4/6
f 808/4/6 799/4/6 809/4/6
f 799/3/6 800/3/6 810/3/6
f 809/4/6 799/4/6 810/4/6
f 764/4/6 805/4/6 811/4/6
f 805/3/6 806/3/6 812/3/6
f 811/4/6 805/4/6 812/4/6
f 806/3/6 807/3/6 812/3/6
f 807/3/6 808/3/6 812/3/6
f 808/4/6 809/4/6 813/4/6
f 812/3/6 808/3/6 813/3/6
f 813/4/6 809/4/6 814/4/6
f 764/4/6 811/4/6 815/4/6
f 811/3/6 812/3/6 816/3/6
f 815/4/6 811/4/6 816/4/6
f 812/3/6 813/3/6 816/3/6
f 813/3/6 814/3/6 816/3/6
f 814/4/6 809/4/6 817/4/6
f 816/3/6 814/3/6 817/3/6
f 817/4/6 809/4/6 818/4/6
f 818/4/6 809/4/6 819/4/6
f 809/3/6 810/3/6 820/3/6
f 819/4/6 809/4/6 820/4/6
f 764/4/6 815/4/6 821/4/6
f 815/3/6 816/3/6 822/3/6
f 821/4/6 815/4/6 822/4/6
f 816/3/6 817/3/6 822/3/6
f 817/3/6 818/3/6 822/3/6
f 818/4/6 819/4/6 823/4/6
f 822/3/6 818/3/6 823/3/6
f 823/4/6 819/4/6 824/4/6
f 824/4/6 819/4/6 825/4/6
f 819/3/6 820/3/6 826/3/6
f 825/4/6 819/4/6 826/4/6
f 764/4/6 821/4/6 827/4/6
f 827/4/6 821/4/6 828/4/6
f 828/4/6 821/4/6 829/4/6
f 821/3/6 822/3/6 830/3/6
f 829/4/6 821/4/6 830/4/6
f 822/3/6 823/3/6 830/3/6
f 823/3/6 824/3/6 830/3/6
f 824/4/6 825/4/6 831/4/6
f 830/3/6 824/3/6 831/3/6
f 831/4/6 825/4/6 832/4/6
f 832/4/6 825/4/6 833/4/6
f 825/3/6 826/3/6 834/3/6
f 833/4/6 825/4/6 834/4/6
f 828/4/6 829/4/6 835/4/6
f 829/3/6 830/3/6 836/3/6
f 835/4/6 829/4/6 836/4/6
f 830/3/6 831/3/6 836/3/6
f 831/3/6 832/3/6 836/3/6
f 832/4/6 833/4/6 837/4/6
f 836/3/6 832/3/6 837/3/6
f 833/3/6 834/3/6 838/3/6
f 837/4/6 833/4/6 838/4/6
f 828/4/6 835/4/6 839/4/6
f 836/3/6 837/3/6 840/3/6
f 839/4/6 835/4/6 840/4/6
f 835/3/6 836/3/6 840/3/6
f 837/3/6 838/3/6 840/3/6
f 828/4/6 839/4/6 841/4/6
f 839/3/6 840/3/6 842/3/6
f 841/4/6 839/4/6 842/4/6
f 828/4/6 841/4/6 843/4/6
f 843/4/6 841/4/6 844/4/6
f 844/4/6 841/4/6 845/4/6
f 841/3/6 842/3/6 846/3/6
f 845/4/6 841/4/6 846/4/6
f 844/4/6 845/4/6 847/4/6
f 845/3/6 846/3/6 848/3/6
f 847/4/6 845/4/6 848/4/6
f 844/4/6 847/4/6 849/4/6
f 849/4/6 847/4/6 850/4/6
f 850/4/6 847/4/6 851/4/6
f 847/3/6 848/3/6 852/3/6
f 851/4/6 847/4/6 852/4/6
f 840/3/6 838/3/6 853/3/6
f 852/3/6 848/3/6 853/3/6
f 851/3/6 852/3/6 853/3/6
f 842/3/6 840/3/6 853/3/6
f 846/3/6 842/3/6 853/3/6
f 848/3/6 846/3/6 853/3/6
f 853/3/6 838/3/6 854/3/6
f 850/4/6 851/4/6 855/4/6
f 851/3/6 853/3/6 856/3/6
f 855/4/6 851/4/6 856/4/6
f 856/3/6 853/3/6 857/3/6
f 853/4/6 854/4/6 858/4/6
f 857/3/6 853/3/6 858/3/6
f 854/3/6 838/3/6 859/3/6
f 858/4/6 854/4/6 859/4/6
f 826/3/6 820/3/6 860/3/6
f 859/3/6 838/3/6 860/3/6
f 834/3/6 826/3/6 860/3/6
f 838/3/6 834/3/6 860/3/6
f 855/3/6 856/3/6 861/3/6
f 856/3/6 857/3/6 861/3/6
f 861/3/6 857/3/6 862/3/6
f 862/3/6 857/3/6 863/3/6
f 858/4/6 859/4/6 864/4/6
f 863/3/6 857/3/6 864/3/6
f 859/4/6 860/4/6 864/4/6
f 857/4/6 858/4/6 864/4/6
f 860/3/6 820/3/6 865/3/6
f 864/4/6 860/4/6 865/4/6
f 810/3/6 800/3/6 866/3/6
f 865/3/6 820/3/6 866/3/6
f 800/3/6 792/3/6 866/3/6
f 820/3/6 810/3/6 866/3/6
f 850/4/6 855/4/6 867/4/6
f 867/4/6 855/4/6 868/4/6
f 855/3/6 861/3/6 869/3/6
f 861/4/6 862/4/6 870/4/6
f 869/3/6 861/3/6 870/3/6
f 862/3/6 863/3/6 871/3/6
f 870/4/6 862/4/6 871/4/6
f 871/3/6 863/3/6 872/3/6
f 872/3/6 863/3/6 873/3/6
f 864/4/6 865/4/6 874/4/6
f 873/3/6 863/3/6 874/3/6
f 863/4/6 864/4/6 874/4/6
f 865/4/6 866/4/6 874/4/6
f 866/3/6 792/3/6 875/3/6
f 874/4/6 866/4/6 875/4/6
f 875/3/6 792/3/6 876/3/6
f 868/4/6 855/4/6 877/4/6
f 855/3/6 869/3/6 878/3/6
f 877/4/6 855/4/6 878/4/6
f 878/3/6 869/3/6 879/3/6
f 869/4/6 870/4/6 880/4/6
f 879/3/6 869/3/6 880/3/6
f 871/4/6 872/4/6 880/4/6
f 870/4/6 871/4/6 880/4/6
f 872/3/6 873/3/6 881/3/6
f 880/4/6 872/4/6 881/4/6
f 881/3/6 873/3/6 882/3/6
f 882/3/6 873/3/6 883/3/6
f 873/4/6 874/4/6 884/4/6
f 883/3/6 873/3/6 884/3/6
f 874/4/6 875/4/6 884/4/6
f 875/4/6 876/4/6 884/4/6
f 876/3/6 792/3/6 885/3/6
f 884/4/6 876/4/6 885/4/6
f 885/3/6 792/3/6 886/3/6
f 878/3/6 879/3/6 887/3/6
f 877/3/6 878/3/6 887/3/6
f 879/4/6 880/4/6 888/4/6
f 887/3/6 879/3/6 888/3/6
f 881/4/6 882/4/6 888/4/6
f 880/4/6 881/4/6 888/4/6
f 882/3/6 883/3/6 889/3/6
f 888/4/6 882/4/6 889/4/6
f 885/4/6 886/4/6 890/4/6
f 889/3/6 883/3/6 890/3/6
f 883/4/6 884/4/6 890/4/6
f 884/4/6 885/4/6 890/4/6
f 886/3/6 792/3/6 891/3/6
f 890/4/6 886/4/6 891/4/6
f 891/3/6 792/3/6 892/3/6
f 877/3/6 887/3/6 893/3/6
f 889/4/6 890/4/6 894/4/6
f 893/3/6 887/3/6 894/3/6
f 887/4/6 888/4/6 894/4/6
f 891/4/6 892/4/6 894/4/6
f 890/4/6 891/4/6 894/4/6
f 888/4/6 889/4/6 894/4/6
f 892/3/6 792/3/6 895/3/6
f 894/4/6 892/4/6 895/4/6
f 895/3/6 792/3/6 896/3/6
f 868/4/6 877/4/6 897/4/6
f 877/3/6 893/3/6 898/3/6
f 897/4/6 877/4/6 898/4/6
f 898/3/6 893/3/6 899/3/6
f 893/4/6 894/4/6 900/4/6
f 899/3/6 893/3/6 900/3/6
f 894/4/6 895/4/6 900/4/6
f 895/4/6 896/4/6 900/4/6
f 868/4/6 897/4/6 901/4/6
f 901/4/6 897/4/6 902/4/6
f 898/3/6 899/3/6 903/3/6
f 897/3/6 898/3/6 903/3/6
f 899/4/6 900/4/6 904/4/6
f 903/3/6 899/3/6 904/3/6
f 902/4/6 897/4/6 905/4/6
f 897/3/6 903/3/6 906/3/6
f 905/4/6 897/4/6 906/4/6
f 906/3/6 903/3/6 907/3/6
f 903/4/6 904/4/6 908/4/6
f 907/3/6 903/3/6 908/3/6
f 906/3/6 907/3/6 909/3/6
f 905/3/6 906/3/6 909/3/6
f 907/4/6 908/4/6 910/4/6
f 909/3/6 907/3/6 910/3/6
f 902/4/6 905/4/6 911/4/6
f 905/3/6 909/3/6 912/3/6
f 911/4/6 905/4/6 912/4/6
f 912/3/6 909/3/6 913/3/6
f 909/4/6 910/4/6 914/4/6
f 913/3/6 909/3/6 914/3/6
f 902/4/6 911/4/6 915/4/6
f 915/4/6 911/4/6 916/4/6
f 916/4/6 911/4/6 917/4/6
f 912/3/6 913/3/6 918/3/6
f 917/4/6 911/4/6 918/4/6
f 911/3/6 912/3/6 918/3/6
f 916/4/6 917/4/6 919/4/6
f 917/3/6 918/3/6 920/3/6
f 919/4/6 917/4/6 920/4/6
f 920/3/6 918/3/6 921/3/6
f 918/3/6 913/3/6 922/3/6
f 921/3/6 918/3/6 922/3/6
f 922/3/6 913/3/6 923/3/6
f 923/3/6 913/3/6 924/3/6
f 913/4/6 914/4/6 925/4/6
f 924/3/6 913/3/6 925/3/6
f 914/4/6 910/4/6 926/4/6
f 925/4/6 914/4/6 926/4/6
f 924/3/6 925/3/6 927/3/6
f 925/3/6 926/3/6 927/3/6
f 927/3/6 926/3/6 928/3/6
f 926/4/6 910/4/6 929/4/6
f 928/3/6 926/3/6 929/3/6
f 929/4/6 910/4/6 930/4/6
f 928/3/6 929/3/6 931/3/6
f 929/3/6 930/3/6 931/3/6
f 931/3/6 930/3/6 932/3/6
f 930/4/6 910/4/6 933/4/6
f 932/3/6 930/3/6 933/3/6
f 933/4/6 910/4/6 934/4/6
f 932/3/6 933/3/6 935/3/6
f 933/3/6 934/3/6 935/3/6
f 935/3/6 934/3/6 936/3/6
f 904/4/6 900/4/6 937/4/6
f 900/4/6 896/4/6 937/4/6
f 908/4/6 904/4/6 937/4/6
f 910/4/6 908/4/6 937/4/6
f 934/4/6 910/4/6 937/4/6
f 937/4/6 896/4/6 938/4/6
f 936/3/6 934/3/6 939/3/6
f 939/3/6 934/3/6 940/3/6
f 934/4/6 937/4/6 941/4/6
f 940/3/6 934/3/6 941/3/6
f 941/4/6 937/4/6 942/4/6
f 940/3/6 941/3/6 943/3/6
f 943/3/6 941/3/6 944/3/6
