# MagicaVoxel @ Ephtracy

# group
o 

# material
mtllib DungeonTile-1.mtl
usemtl palette

# normals
vn -1 0 0
vn 1 0 0
vn 0 0 1
vn 0 0 -1
vn 0 -1 0
vn 0 1 0

# texcoords
vt 0.533203 0.5
vt 0.537109 0.5
vt 0.986328 0.5
vt 0.990234 0.5
vt 0.994141 0.5

# verts
v -5 0 5
v -5 0 -3.5
v -5 0 -5
v -5 0.1 5
v -5 0.1 -3.5
v -5 0.1 -5
v -5 0.2 5
v -5 0.2 -5
v 5 0 5
v 5 0 3.4
v 5 0 3.1
v 5 0 2.9
v 5 0 2.7
v 5 0 -4.7
v 5 0 -5
v 5 0.1 5
v 5 0.1 3.4
v 5 0.1 3.1
v 5 0.1 2.9
v 5 0.1 2.7
v 5 0.1 -4.7
v 5 0.1 -5
v 5 0.2 5
v 5 0.2 -5
v -5 0 5
v -5 0.1 5
v -5 0.2 5
v -2.2 0 5
v -2.2 0.1 5
v 0.4 0 5
v 0.4 0.1 5
v 3.6 0 5
v 3.6 0.1 5
v 4.3 0 5
v 4.3 0.1 5
v 5 0 5
v 5 0.1 5
v 5 0.2 5
v -5 0 -5
v -5 0.1 -5
v -5 0.2 -5
v -3.6 0 -5
v -3.6 0.1 -5
v 3.6 0 -5
v 3.6 0.1 -5
v 5 0 -5
v 5 0.1 -5
v 5 0.2 -5
v -5 0 5
v -2.2 0 5
v 0.4 0 5
v 3.6 0 5
v 4.3 0 5
v 5 0 5
v -4.4 0 4.9
v -2.2 0 4.9
v 0.4 0 4.9
v 3.6 0 4.9
v 3.7 0 4.9
v -4.4 0 4.8
v -2.2 0 4.8
v 3.7 0 4.8
v 3.8 0 4.8
v 4.3 0 4.8
v 4.4 0 4.8
v 3.8 0 4.7
v 3.9 0 4.7
v 3.9 0 4.6
v 4.1 0 4.6
v 4.4 0 4.6
v 4.5 0 4.6
v 4.1 0 4.5
v 4.2 0 4.5
v 4.2 0 4.4
v 4.3 0 4.4
v 4.5 0 4.4
v 4.6 0 4.4
v 4.3 0 4.3
v 4.4 0 4.3
v 4.4 0 4.2
v 4.5 0 4.2
v 4.6 0 4.1
v 4.7 0 4.1
v 4.7 0 3.9
v 4.8 0 3.9
v 4.5 0 3.8
v 4.6 0 3.8
v 4.7 0 3.6
v 4.8 0 3.6
v 4.9 0 3.6
v 4.7 0 3.5
v 4.8 0 3.5
v 4.8 0 3.4
v 4.9 0 3.4
v 5 0 3.4
v 4.6 0 3.3
v 4.7 0 3.3
v 4.7 0 3.2
v 4.8 0 3.2
v 4.9 0 3.2
v 4.9 0 3.1
v 5 0 3.1
v 4.8 0 2.9
v 4.9 0 2.9
v 5 0 2.9
v 4.9 0 2.7
v 5 0 2.7
v -5 0 -3.5
v -4.8 0 -3.5
v -4.8 0 -3.9
v -4.7 0 -3.9
v -4.7 0 -4.2
v -4.6 0 -4.2
v -4.6 0 -4.6
v -4.5 0 -4.6
v 4.6 0 -4.7
v 5 0 -4.7
v -4.5 0 -4.8
v -3.6 0 -4.8
v 4 0 -4.8
v 4.6 0 -4.8
v 3.6 0 -4.9
v 4 0 -4.9
v -5 0 -5
v -3.6 0 -5
v 3.6 0 -5
v 5 0 -5
v -5 0.2 5
v 5 0.2 5
v -4.8 0.2 4.8
v 2.1 0.2 4.8
v 4.8 0.2 4.8
v 2.1 0.2 4.7
v 2.3 0.2 4.7
v 2.3 0.2 4.6
v 2.4 0.2 4.6
v 2.4 0.2 4.5
v 4.4 0.2 4.5
v 4.4 0.2 4.2
v 4.5 0.2 4.2
v 4.5 0.2 3.8
v 4.6 0.2 3.8
v -4.8 0.2 3.6
v -4.5 0.2 3.6
v -4.5 0.2 3.5
v -4.4 0.2 3.5
v -1.9 0.2 3.5
v -0.9 0.2 3.5
v -4.4 0.2 3.4
v -4.3 0.2 3.4
v -2.1 0.2 3.4
v -1.9 0.2 3.4
v -0.9 0.2 3.4
v -0.6 0.2 3.4
v -4.3 0.2 3.3
v -4 0.2 3.3
v -2.3 0.2 3.3
v -2.1 0.2 3.3
v -0.6 0.2 3.3
v -0.3 0.2 3.3
v 0.4 0.2 3.3
v 3.8 0.2 3.3
v 4.6 0.2 3.3
v 4.7 0.2 3.3
v -4 0.2 3.2
v -3.7 0.2 3.2
v -2.5 0.2 3.2
v -2.3 0.2 3.2
v -0.3 0.2 3.2
v 0.4 0.2 3.2
v -3.7 0.2 3.1
v -3.2 0.2 3.1
v -2.7 0.2 3.1
v -2.5 0.2 3.1
v 3.7 0.2 3.1
v 3.8 0.2 3.1
v -3.2 0.2 3
v -2.7 0.2 3
v 3.6 0.2 2.8
v 3.7 0.2 2.8
v 4.7 0.2 2.8
v 4.8 0.2 2.8
v 3.5 0.2 2.6
v 3.6 0.2 2.6
v 3.3 0.2 2.4
v 3.5 0.2 2.4
v 2.9 0.2 2.3
v 3.3 0.2 2.3
v 2 0.2 2.2
v 2.9 0.2 2.2
v -3.3 0.2 2.1
v -3 0.2 2.1
v 1.6 0.2 2.1
v 2 0.2 2.1
v -3.6 0.2 2
v -3.3 0.2 2
v -3 0.2 2
v -2.7 0.2 2
v 1.3 0.2 2
v 1.6 0.2 2
v -3.7 0.2 1.9
v -3.6 0.2 1.9
v -2.7 0.2 1.9
v -2.5 0.2 1.9
v 1.2 0.2 1.9
v 1.3 0.2 1.9
v -3.8 0.2 1.8
v -3.7 0.2 1.8
v -2.5 0.2 1.8
v -2.4 0.2 1.8
v 1.1 0.2 1.8
v 1.2 0.2 1.8
v -2.4 0.2 1.7
v -2.3 0.2 1.7
v 1 0.2 1.7
v 1.1 0.2 1.7
v -3.9 0.2 1.6
v -3.8 0.2 1.6
v -2.3 0.2 1.6
v -2.2 0.2 1.6
v 0.9 0.2 1.6
v 1 0.2 1.6
v -2.2 0.2 1.4
v -2.1 0.2 1.4
v 0.8 0.2 1.4
v 0.9 0.2 1.4
v -4 0.2 1.3
v -3.9 0.2 1.3
v -2.1 0.2 1.3
v -2 0.2 1.3
v -4.4 0.2 1.2
v -4 0.2 1.2
v 0.7 0.2 1.2
v 0.8 0.2 1.2
v -2 0.2 1.1
v -1.9 0.2 1.1
v 0.6 0.2 1
v 0.7 0.2 1
v -1.9 0.2 0.8
v -1.8 0.2 0.8
v 0.6 0.2 0.5
v 0.7 0.2 0.5
v -1.9 0.2 0.4
v -1.8 0.2 0.4
v 0.7 0.2 0.4
v 0.8 0.2 0.4
v -2 0.2 0.3
v -1.9 0.2 0.3
v 0.8 0.2 0.3
v 0.9 0.2 0.3
v 3.9 0.2 0.3
v 4.6 0.2 0.3
v -2.3 0.2 0.2
v -2 0.2 0.2
v 0.9 0.2 0.2
v 1 0.2 0.2
v 3.8 0.2 0.2
v 3.9 0.2 0.2
v 4.6 0.2 0.2
v 4.8 0.2 0.2
v -3.2 0.2 0.0999999
v -2.3 0.2 0.0999999
v 1 0.2 0.0999999
v 1.1 0.2 0.0999999
v 1.1 0.2 0
v 1.3 0.2 0
v 3.7 0.2 0
v 3.8 0.2 0
v 1.3 0.2 -0.1
v 1.4 0.2 -0.1
v 3.6 0.2 -0.1
v 3.7 0.2 -0.1
v 1.4 0.2 -0.2
v 1.6 0.2 -0.2
v 3.5 0.2 -0.4
v 3.6 0.2 -0.4
v -4.8 0.2 -0.6
v -4.4 0.2 -0.6
v 3.5 0.2 -1.1
v 3.6 0.2 -1.1
v -3.3 0.2 -1.2
v -3.2 0.2 -1.2
v 3.6 0.2 -1.6
v 3.7 0.2 -1.6
v 1.5 0.2 -1.8
v 1.6 0.2 -1.8
v 1.4 0.2 -1.9
v 1.5 0.2 -1.9
v -2.4 0.2 -2
v -1.2 0.2 -2
v 1.3 0.2 -2
v 1.4 0.2 -2
v 3.7 0.2 -2
v 3.8 0.2 -2
v -3.3 0.2 -2.1
v -2.4 0.2 -2.1
v -1.2 0.2 -2.1
v -0.8 0.2 -2.1
v 1.2 0.2 -2.1
v 1.3 0.2 -2.1
v -0.8 0.2 -2.2
v -0.5 0.2 -2.2
v 1.2 0.2 -2.2
v 1.3 0.2 -2.2
v 3.8 0.2 -2.2
v 3.9 0.2 -2.2
v -0.5 0.2 -2.3
v -0.2 0.2 -2.3
v 1.3 0.2 -2.3
v 1.4 0.2 -2.3
v -0.2 0.2 -2.4
v 0.1 0.2 -2.4
v 3.9 0.2 -2.4
v 4 0.2 -2.4
v 0.1 0.2 -2.5
v 0.3 0.2 -2.5
v 1.4 0.2 -2.5
v 1.6 0.2 -2.5
v 0.3 0.2 -2.6
v 0.5 0.2 -2.6
v 1.6 0.2 -2.6
v 1.9 0.2 -2.6
v 4 0.2 -2.6
v 4.1 0.2 -2.6
v 0.5 0.2 -2.7
v 0.6 0.2 -2.7
v 1.9 0.2 -2.7
v 2.1 0.2 -2.7
v 2.1 0.2 -2.8
v 2.2 0.2 -2.8
v 4.1 0.2 -2.8
v 4.2 0.2 -2.8
v 2.2 0.2 -2.9
v 2.4 0.2 -2.9
v 0.5 0.2 -3
v 0.6 0.2 -3
v 2.4 0.2 -3
v 2.5 0.2 -3
v 4.2 0.2 -3
v 4.8 0.2 -3
v 2.5 0.2 -3.1
v 2.6 0.2 -3.1
v 2.6 0.2 -3.2
v 2.7 0.2 -3.2
v 0.4 0.2 -3.3
v 0.5 0.2 -3.3
v 2.7 0.2 -3.3
v 2.8 0.2 -3.3
v 0.3 0.2 -3.4
v 0.4 0.2 -3.4
v 2.8 0.2 -3.4
v 2.9 0.2 -3.4
v 2.9 0.2 -3.5
v 3 0.2 -3.5
v 0.2 0.2 -3.6
v 0.3 0.2 -3.6
v 3 0.2 -3.6
v 3.1 0.2 -3.6
v 0.1 0.2 -3.7
v 0.2 0.2 -3.7
v 3.1 0.2 -3.7
v 3.2 0.2 -3.7
v 0 0.2 -3.8
v 0.1 0.2 -3.8
v 3.2 0.2 -3.8
v 3.3 0.2 -3.8
v 3.3 0.2 -3.9
v 3.4 0.2 -3.9
v 0 0.2 -4
v 0.1 0.2 -4
v 0.1 0.2 -4.1
v 0.2 0.2 -4.1
v 0.2 0.2 -4.2
v 1.6 0.2 -4.2
v 1.6 0.2 -4.3
v 2.1 0.2 -4.3
v 3.4 0.2 -4.3
v 4.8 0.2 -4.3
v -4.8 0.2 -4.8
v 2.1 0.2 -4.8
v 4.8 0.2 -4.8
v -5 0.2 -5
v 5 0.2 -5

# faces
f 4/2/1 2/2/1 1/2/1
f 5/1/1 3/1/1 2/1/1
f 5/2/1 2/2/1 4/2/1
f 6/1/1 3/1/1 5/1/1
f 7/5/1 5/5/1 4/5/1
f 7/5/1 6/5/1 5/5/1
f 8/5/1 6/5/1 7/5/1
f 9/2/2 10/2/2 16/2/2
f 10/1/2 11/1/2 17/1/2
f 16/2/2 10/2/2 17/2/2
f 11/2/2 12/2/2 18/2/2
f 17/1/2 11/1/2 18/1/2
f 12/1/2 13/1/2 19/1/2
f 18/2/2 12/2/2 19/2/2
f 13/2/2 14/2/2 20/2/2
f 19/1/2 13/1/2 20/1/2
f 14/1/2 15/1/2 21/1/2
f 20/2/2 14/2/2 21/2/2
f 21/1/2 15/1/2 22/1/2
f 19/5/2 20/5/2 23/5/2
f 16/5/2 17/5/2 23/5/2
f 21/5/2 22/5/2 23/5/2
f 20/5/2 21/5/2 23/5/2
f 18/5/2 19/5/2 23/5/2
f 17/5/2 18/5/2 23/5/2
f 23/5/2 22/5/2 24/5/2
f 28/2/3 26/2/3 25/2/3
f 29/5/3 27/5/3 26/5/3
f 29/2/3 26/2/3 28/2/3
f 30/1/3 29/1/3 28/1/3
f 31/5/3 27/5/3 29/5/3
f 31/1/3 29/1/3 30/1/3
f 32/2/3 31/2/3 30/2/3
f 33/5/3 27/5/3 31/5/3
f 33/2/3 31/2/3 32/2/3
f 34/1/3 33/1/3 32/1/3
f 35/5/3 27/5/3 33/5/3
f 35/1/3 33/1/3 34/1/3
f 36/2/3 35/2/3 34/2/3
f 37/5/3 27/5/3 35/5/3
f 37/2/3 35/2/3 36/2/3
f 38/5/3 27/5/3 37/5/3
f 39/1/4 40/1/4 42/1/4
f 40/5/4 41/5/4 43/5/4
f 42/1/4 40/1/4 43/1/4
f 42/2/4 43/2/4 44/2/4
f 43/5/4 41/5/4 45/5/4
f 44/2/4 43/2/4 45/2/4
f 44/1/4 45/1/4 46/1/4
f 45/5/4 41/5/4 47/5/4
f 46/1/4 45/1/4 47/1/4
f 47/5/4 41/5/4 48/5/4
f 55/2/5 50/2/5 49/2/5
f 56/1/5 51/1/5 50/1/5
f 56/2/5 50/2/5 55/2/5
f 57/2/5 52/2/5 51/2/5
f 57/1/5 51/1/5 56/1/5
f 58/1/5 53/1/5 52/1/5
f 58/2/5 52/2/5 57/2/5
f 59/1/5 53/1/5 58/1/5
f 60/2/5 55/2/5 49/2/5
f 60/1/5 56/1/5 55/1/5
f 61/2/5 59/2/5 58/2/5
f 61/1/5 56/1/5 60/1/5
f 61/2/5 57/2/5 56/2/5
f 61/2/5 58/2/5 57/2/5
f 62/1/5 53/1/5 59/1/5
f 62/2/5 59/2/5 61/2/5
f 63/1/5 53/1/5 62/1/5
f 64/2/5 54/2/5 53/2/5
f 64/1/5 53/1/5 63/1/5
f 65/2/5 54/2/5 64/2/5
f 66/2/5 63/2/5 62/2/5
f 66/2/5 61/2/5 60/2/5
f 66/1/5 65/1/5 64/1/5
f 66/1/5 64/1/5 63/1/5
f 66/2/5 62/2/5 61/2/5
f 67/1/5 65/1/5 66/1/5
f 68/2/5 67/2/5 66/2/5
f 68/1/5 65/1/5 67/1/5
f 69/1/5 65/1/5 68/1/5
f 70/2/5 54/2/5 65/2/5
f 70/1/5 65/1/5 69/1/5
f 71/2/5 54/2/5 70/2/5
f 72/2/5 69/2/5 68/2/5
f 72/1/5 70/1/5 69/1/5
f 72/1/5 71/1/5 70/1/5
f 73/1/5 71/1/5 72/1/5
f 74/2/5 73/2/5 72/2/5
f 74/1/5 71/1/5 73/1/5
f 75/1/5 71/1/5 74/1/5
f 76/2/5 54/2/5 71/2/5
f 76/1/5 71/1/5 75/1/5
f 77/2/5 54/2/5 76/2/5
f 78/2/5 75/2/5 74/2/5
f 78/1/5 76/1/5 75/1/5
f 78/1/5 77/1/5 76/1/5
f 79/1/5 77/1/5 78/1/5
f 80/2/5 79/2/5 78/2/5
f 80/1/5 77/1/5 79/1/5
f 81/1/5 77/1/5 80/1/5
f 82/2/5 54/2/5 77/2/5
f 82/1/5 77/1/5 81/1/5
f 83/2/5 54/2/5 82/2/5
f 84/1/5 83/1/5 82/1/5
f 84/2/5 54/2/5 83/2/5
f 85/2/5 54/2/5 84/2/5
f 86/2/5 81/2/5 80/2/5
f 86/1/5 82/1/5 81/1/5
f 86/1/5 85/1/5 84/1/5
f 86/1/5 84/1/5 82/1/5
f 87/1/5 85/1/5 86/1/5
f 88/1/5 85/1/5 87/1/5
f 89/2/5 54/2/5 85/2/5
f 89/1/5 85/1/5 88/1/5
f 90/2/5 54/2/5 89/2/5
f 91/1/5 88/1/5 87/1/5
f 91/2/5 89/2/5 88/2/5
f 92/1/5 90/1/5 89/1/5
f 92/2/5 89/2/5 91/2/5
f 93/1/5 92/1/5 91/1/5
f 93/1/5 90/1/5 92/1/5
f 94/2/5 54/2/5 90/2/5
f 94/1/5 90/1/5 93/1/5
f 95/2/5 54/2/5 94/2/5
f 96/1/5 93/1/5 91/1/5
f 96/2/5 87/2/5 86/2/5
f 96/1/5 91/1/5 87/1/5
f 97/1/5 93/1/5 96/1/5
f 98/2/5 97/2/5 96/2/5
f 98/1/5 93/1/5 97/1/5
f 99/2/5 94/2/5 93/2/5
f 99/1/5 93/1/5 98/1/5
f 100/1/5 95/1/5 94/1/5
f 100/2/5 94/2/5 99/2/5
f 101/1/5 100/1/5 99/1/5
f 101/1/5 95/1/5 100/1/5
f 102/1/5 95/1/5 101/1/5
f 103/2/5 99/2/5 98/2/5
f 103/1/5 101/1/5 99/1/5
f 104/2/5 102/2/5 101/2/5
f 104/1/5 101/1/5 103/1/5
f 105/2/5 102/2/5 104/2/5
f 106/2/5 104/2/5 103/2/5
f 106/1/5 105/1/5 104/1/5
f 107/1/5 105/1/5 106/1/5
f 108/2/5 60/2/5 49/2/5
f 108/2/5 66/2/5 60/2/5
f 108/2/5 107/2/5 106/2/5
f 108/2/5 106/2/5 103/2/5
f 108/2/5 68/2/5 66/2/5
f 108/2/5 103/2/5 98/2/5
f 108/2/5 96/2/5 86/2/5
f 108/2/5 98/2/5 96/2/5
f 108/2/5 72/2/5 68/2/5
f 108/2/5 86/2/5 80/2/5
f 108/2/5 80/2/5 78/2/5
f 108/2/5 78/2/5 74/2/5
f 108/2/5 74/2/5 72/2/5
f 109/2/5 107/2/5 108/2/5
f 110/1/5 109/1/5 108/1/5
f 110/2/5 107/2/5 109/2/5
f 111/2/5 107/2/5 110/2/5
f 112/1/5 111/1/5 110/1/5
f 112/2/5 107/2/5 111/2/5
f 113/2/5 107/2/5 112/2/5
f 114/1/5 113/1/5 112/1/5
f 114/2/5 107/2/5 113/2/5
f 115/2/5 107/2/5 114/2/5
f 116/2/5 107/2/5 115/2/5
f 117/2/5 107/2/5 116/2/5
f 118/1/5 115/1/5 114/1/5
f 118/2/5 116/2/5 115/2/5
f 119/2/5 116/2/5 118/2/5
f 120/2/5 116/2/5 119/2/5
f 121/1/5 117/1/5 116/1/5
f 121/2/5 116/2/5 120/2/5
f 122/2/5 120/2/5 119/2/5
f 123/1/5 121/1/5 120/1/5
f 123/2/5 120/2/5 122/2/5
f 124/1/5 110/1/5 108/1/5
f 124/1/5 112/1/5 110/1/5
f 124/1/5 114/1/5 112/1/5
f 124/1/5 118/1/5 114/1/5
f 124/1/5 119/1/5 118/1/5
f 125/2/5 122/2/5 119/2/5
f 125/1/5 119/1/5 124/1/5
f 126/1/5 123/1/5 122/1/5
f 126/2/5 122/2/5 125/2/5
f 127/1/5 121/1/5 123/1/5
f 127/1/5 123/1/5 126/1/5
f 127/1/5 117/1/5 121/1/5
f 128/5/6 129/5/6 130/5/6
f 130/5/6 129/5/6 131/5/6
f 131/5/6 129/5/6 132/5/6
f 130/4/6 131/4/6 133/4/6
f 131/3/6 132/3/6 133/3/6
f 133/3/6 132/3/6 134/3/6
f 133/4/6 134/4/6 135/4/6
f 134/3/6 132/3/6 135/3/6
f 135/3/6 132/3/6 136/3/6
f 135/4/6 136/4/6 137/4/6
f 136/3/6 132/3/6 137/3/6
f 137/3/6 132/3/6 138/3/6
f 137/4/6 138/4/6 139/4/6
f 138/3/6 132/3/6 139/3/6
f 139/3/6 132/3/6 140/3/6
f 139/4/6 140/4/6 141/4/6
f 140/3/6 132/3/6 141/3/6
f 141/3/6 132/3/6 142/3/6
f 128/5/6 130/5/6 143/5/6
f 130/4/6 133/4/6 143/4/6
f 141/4/6 142/4/6 143/4/6
f 139/4/6 141/4/6 143/4/6
f 137/4/6 139/4/6 143/4/6
f 135/4/6 137/4/6 143/4/6
f 133/4/6 135/4/6 143/4/6
f 143/4/6 142/4/6 144/4/6
f 143/3/6 144/3/6 145/3/6
f 144/4/6 142/4/6 145/4/6
f 145/4/6 142/4/6 146/4/6
f 146/4/6 142/4/6 147/4/6
f 147/4/6 142/4/6 148/4/6
f 145/3/6 146/3/6 149/3/6
f 146/4/6 147/4/6 149/4/6
f 149/4/6 147/4/6 150/4/6
f 150/4/6 147/4/6 151/4/6
f 147/3/6 148/3/6 152/3/6
f 151/4/6 147/4/6 152/4/6
f 148/4/6 142/4/6 153/4/6
f 152/3/6 148/3/6 153/3/6
f 153/4/6 142/4/6 154/4/6
f 150/4/6 151/4/6 155/4/6
f 149/3/6 150/3/6 155/3/6
f 155/4/6 151/4/6 156/4/6
f 156/4/6 151/4/6 157/4/6
f 151/3/6 152/3/6 158/3/6
f 157/4/6 151/4/6 158/4/6
f 153/3/6 154/3/6 158/3/6
f 152/3/6 153/3/6 158/3/6
f 154/4/6 142/4/6 159/4/6
f 158/3/6 154/3/6 159/3/6
f 159/4/6 142/4/6 160/4/6
f 160/4/6 142/4/6 161/4/6
f 161/4/6 142/4/6 162/4/6
f 142/3/6 132/3/6 163/3/6
f 162/4/6 142/4/6 163/4/6
f 163/3/6 132/3/6 164/3/6
f 156/4/6 157/4/6 165/4/6
f 155/3/6 156/3/6 165/3/6
f 165/4/6 157/4/6 166/4/6
f 166/4/6 157/4/6 167/4/6
f 157/3/6 158/3/6 168/3/6
f 167/4/6 157/4/6 168/4/6
f 158/3/6 159/3/6 168/3/6
f 159/3/6 160/3/6 168/3/6
f 160/4/6 161/4/6 169/4/6
f 168/3/6 160/3/6 169/3/6
f 161/3/6 162/3/6 170/3/6
f 169/4/6 161/4/6 170/4/6
f 166/4/6 167/4/6 171/4/6
f 165/3/6 166/3/6 171/3/6
f 171/4/6 167/4/6 172/4/6
f 172/4/6 167/4/6 173/4/6
f 168/3/6 169/3/6 174/3/6
f 173/4/6 167/4/6 174/4/6
f 169/3/6 170/3/6 174/3/6
f 167/3/6 168/3/6 174/3/6
f 170/3/6 162/3/6 175/3/6
f 174/3/6 170/3/6 175/3/6
f 163/4/6 164/4/6 176/4/6
f 175/3/6 162/3/6 176/3/6
f 162/4/6 163/4/6 176/4/6
f 172/4/6 173/4/6 177/4/6
f 171/3/6 172/3/6 177/3/6
f 173/3/6 174/3/6 178/3/6
f 177/4/6 173/4/6 178/4/6
f 174/3/6 175/3/6 178/3/6
f 177/3/6 178/3/6 179/3/6
f 178/3/6 175/3/6 179/3/6
f 175/4/6 176/4/6 180/4/6
f 179/3/6 175/3/6 180/3/6
f 176/4/6 164/4/6 181/4/6
f 180/4/6 176/4/6 181/4/6
f 164/3/6 132/3/6 181/3/6
f 132/5/6 129/5/6 182/5/6
f 181/3/6 132/3/6 182/3/6
f 177/3/6 179/3/6 183/3/6
f 179/4/6 180/4/6 184/4/6
f 183/3/6 179/3/6 184/3/6
f 180/4/6 181/4/6 184/4/6
f 181/4/6 182/4/6 184/4/6
f 177/3/6 183/3/6 185/3/6
f 183/4/6 184/4/6 186/4/6
f 185/3/6 183/3/6 186/3/6
f 177/3/6 185/3/6 187/3/6
f 185/4/6 186/4/6 188/4/6
f 187/3/6 185/3/6 188/3/6
f 177/3/6 187/3/6 189/3/6
f 187/4/6 188/4/6 190/4/6
f 189/3/6 187/3/6 190/3/6
f 171/3/6 177/3/6 191/3/6
f 177/3/6 189/3/6 191/3/6
f 191/3/6 189/3/6 192/3/6
f 192/3/6 189/3/6 193/3/6
f 189/4/6 190/4/6 194/4/6
f 193/3/6 189/3/6 194/3/6
f 171/3/6 191/3/6 195/3/6
f 191/4/6 192/4/6 196/4/6
f 195/3/6 191/3/6 196/3/6
f 192/3/6 193/3/6 197/3/6
f 196/4/6 192/4/6 197/4/6
f 197/3/6 193/3/6 198/3/6
f 198/3/6 193/3/6 199/3/6
f 193/4/6 194/4/6 200/4/6
f 199/3/6 193/3/6 200/3/6
f 165/3/6 171/3/6 201/3/6
f 171/3/6 195/3/6 201/3/6
f 195/4/6 196/4/6 202/4/6
f 201/3/6 195/3/6 202/3/6
f 196/4/6 197/4/6 202/4/6
f 197/4/6 198/4/6 202/4/6
f 198/3/6 199/3/6 203/3/6
f 202/4/6 198/4/6 203/4/6
f 203/3/6 199/3/6 204/3/6
f 204/3/6 199/3/6 205/3/6
f 199/4/6 200/4/6 206/4/6
f 205/3/6 199/3/6 206/3/6
f 165/3/6 201/3/6 207/3/6
f 201/4/6 202/4/6 208/4/6
f 207/3/6 201/3/6 208/3/6
f 202/4/6 203/4/6 208/4/6
f 203/4/6 204/4/6 208/4/6
f 204/3/6 205/3/6 209/3/6
f 208/4/6 204/4/6 209/4/6
f 209/3/6 205/3/6 210/3/6
f 210/3/6 205/3/6 211/3/6
f 205/4/6 206/4/6 212/4/6
f 211/3/6 205/3/6 212/3/6
f 207/4/6 208/4/6 213/4/6
f 210/3/6 211/3/6 213/3/6
f 208/4/6 209/4/6 213/4/6
f 209/4/6 210/4/6 213/4/6
f 213/3/6 211/3/6 214/3/6
f 214/3/6 211/3/6 215/3/6
f 211/4/6 212/4/6 216/4/6
f 215/3/6 211/3/6 216/3/6
f 165/3/6 207/3/6 217/3/6
f 207/4/6 213/4/6 218/4/6
f 217/3/6 207/3/6 218/3/6
f 213/4/6 214/4/6 218/4/6
f 214/3/6 215/3/6 219/3/6
f 218/4/6 214/4/6 219/4/6
f 219/3/6 215/3/6 220/3/6
f 220/3/6 215/3/6 221/3/6
f 215/4/6 216/4/6 222/4/6
f 221/3/6 215/3/6 222/3/6
f 217/4/6 218/4/6 223/4/6
f 220/3/6 221/3/6 223/3/6
f 218/4/6 219/4/6 223/4/6
f 219/4/6 220/4/6 223/4/6
f 223/3/6 221/3/6 224/3/6
f 224/3/6 221/3/6 225/3/6
f 221/4/6 222/4/6 226/4/6
f 225/3/6 221/3/6 226/3/6
f 155/3/6 165/3/6 227/3/6
f 165/3/6 217/3/6 227/3/6
f 217/4/6 223/4/6 228/4/6
f 227/3/6 217/3/6 228/3/6
f 223/4/6 224/4/6 228/4/6
f 224/3/6 225/3/6 229/3/6
f 228/4/6 224/4/6 229/4/6
f 229/3/6 225/3/6 230/3/6
f 145/3/6 149/3/6 231/3/6
f 149/3/6 155/3/6 231/3/6
f 155/3/6 227/3/6 231/3/6
f 229/4/6 230/4/6 232/4/6
f 231/3/6 227/3/6 232/3/6
f 227/4/6 228/4/6 232/4/6
f 228/4/6 229/4/6 232/4/6
f 230/3/6 225/3/6 233/3/6
f 225/4/6 226/4/6 234/4/6
f 233/3/6 225/3/6 234/3/6
f 232/4/6 230/4/6 235/4/6
f 230/3/6 233/3/6 235/3/6
f 231/4/6 232/4/6 235/4/6
f 235/3/6 233/3/6 236/3/6
f 236/3/6 233/3/6 237/3/6
f 233/4/6 234/4/6 238/4/6
f 237/3/6 233/3/6 238/3/6
f 236/3/6 237/3/6 239/3/6
f 235/4/6 236/4/6 239/4/6
f 239/3/6 237/3/6 240/3/6
f 237/4/6 238/4/6 241/4/6
f 240/3/6 237/3/6 241/3/6
f 238/4/6 234/4/6 242/4/6
f 241/4/6 238/4/6 242/4/6
f 239/4/6 240/4/6 243/4/6
f 235/4/6 239/4/6 243/4/6
f 240/3/6 241/3/6 244/3/6
f 243/4/6 240/4/6 244/4/6
f 241/3/6 242/3/6 244/3/6
f 242/4/6 234/4/6 245/4/6
f 244/3/6 242/3/6 245/3/6
f 234/4/6 226/4/6 246/4/6
f 245/4/6 234/4/6 246/4/6
f 235/4/6 243/4/6 247/4/6
f 231/4/6 235/4/6 247/4/6
f 244/3/6 245/3/6 248/3/6
f 247/4/6 243/4/6 248/4/6
f 245/3/6 246/3/6 248/3/6
f 243/3/6 244/3/6 248/3/6
f 246/4/6 226/4/6 249/4/6
f 248/3/6 246/3/6 249/3/6
f 226/4/6 222/4/6 250/4/6
f 249/4/6 226/4/6 250/4/6
f 184/4/6 182/4/6 251/4/6
f 250/4/6 222/4/6 251/4/6
f 190/4/6 188/4/6 251/4/6
f 200/4/6 194/4/6 251/4/6
f 222/4/6 216/4/6 251/4/6
f 216/4/6 212/4/6 251/4/6
f 212/4/6 206/4/6 251/4/6
f 194/4/6 190/4/6 251/4/6
f 206/4/6 200/4/6 251/4/6
f 188/4/6 186/4/6 251/4/6
f 186/4/6 184/4/6 251/4/6
f 251/4/6 182/4/6 252/4/6
f 231/4/6 247/4/6 253/4/6
f 249/3/6 250/3/6 254/3/6
f 253/4/6 247/4/6 254/4/6
f 248/3/6 249/3/6 254/3/6
f 247/3/6 248/3/6 254/3/6
f 250/4/6 251/4/6 255/4/6
f 254/3/6 250/3/6 255/3/6
f 255/4/6 251/4/6 256/4/6
f 256/4/6 251/4/6 257/4/6
f 251/3/6 252/3/6 258/3/6
f 257/4/6 251/4/6 258/4/6
f 252/4/6 182/4/6 259/4/6
f 258/3/6 252/3/6 259/3/6
f 182/5/6 129/5/6 260/5/6
f 259/4/6 182/4/6 260/4/6
f 231/4/6 253/4/6 261/4/6
f 253/3/6 254/3/6 262/3/6
f 261/4/6 253/4/6 262/4/6
f 254/3/6 255/3/6 262/3/6
f 255/3/6 256/3/6 262/3/6
f 256/4/6 257/4/6 263/4/6
f 262/3/6 256/3/6 263/3/6
f 263/4/6 257/4/6 264/4/6
f 261/3/6 262/3/6 265/3/6
f 264/4/6 257/4/6 265/4/6
f 263/3/6 264/3/6 265/3/6
f 262/3/6 263/3/6 265/3/6
f 265/4/6 257/4/6 266/4/6
f 266/4/6 257/4/6 267/4/6
f 258/3/6 259/3/6 268/3/6
f 267/4/6 257/4/6 268/4/6
f 259/3/6 260/3/6 268/3/6
f 257/3/6 258/3/6 268/3/6
f 266/4/6 267/4/6 269/4/6
f 265/3/6 266/3/6 269/3/6
f 269/4/6 267/4/6 270/4/6
f 270/4/6 267/4/6 271/4/6
f 267/3/6 268/3/6 272/3/6
f 271/4/6 267/4/6 272/4/6
f 270/4/6 271/4/6 273/4/6
f 269/3/6 270/3/6 273/3/6
f 273/4/6 271/4/6 274/4/6
f 274/4/6 271/4/6 275/4/6
f 271/3/6 272/3/6 276/3/6
f 275/4/6 271/4/6 276/4/6
f 128/5/6 143/5/6 277/5/6
f 143/3/6 145/3/6 277/3/6
f 145/3/6 231/3/6 277/3/6
f 231/4/6 261/4/6 278/4/6
f 277/3/6 231/3/6 278/3/6
f 275/3/6 276/3/6 279/3/6
f 274/4/6 275/4/6 279/4/6
f 276/3/6 272/3/6 280/3/6
f 279/3/6 276/3/6 280/3/6
f 278/4/6 261/4/6 281/4/6
f 277/4/6 278/4/6 281/4/6
f 261/3/6 265/3/6 282/3/6
f 281/4/6 261/4/6 282/4/6
f 273/3/6 274/3/6 282/3/6
f 269/3/6 273/3/6 282/3/6
f 265/3/6 269/3/6 282/3/6
f 280/3/6 272/3/6 283/3/6
f 279/4/6 280/4/6 283/4/6
f 272/3/6 268/3/6 284/3/6
f 283/3/6 272/3/6 284/3/6
f 282/3/6 274/3/6 285/3/6
f 281/3/6 282/3/6 285/3/6
f 274/4/6 279/4/6 286/4/6
f 285/3/6 274/3/6 286/3/6
f 279/4/6 283/4/6 286/4/6
f 283/4/6 284/4/6 286/4/6
f 281/3/6 285/3/6 287/3/6
f 285/4/6 286/4/6 288/4/6
f 287/3/6 285/3/6 288/3/6
f 281/3/6 287/3/6 289/3/6
f 289/3/6 287/3/6 290/3/6
f 290/3/6 287/3/6 291/3/6
f 287/4/6 288/4/6 292/4/6
f 291/3/6 287/3/6 292/3/6
f 286/4/6 284/4/6 293/4/6
f 292/4/6 288/4/6 293/4/6
f 284/3/6 268/3/6 293/3/6
f 288/4/6 286/4/6 293/4/6
f 268/3/6 260/3/6 294/3/6
f 293/3/6 268/3/6 294/3/6
f 277/4/6 281/4/6 295/4/6
f 281/3/6 289/3/6 295/3/6
f 289/4/6 290/4/6 296/4/6
f 295/3/6 289/3/6 296/3/6
f 290/3/6 291/3/6 297/3/6
f 296/4/6 290/4/6 297/4/6
f 297/3/6 291/3/6 298/3/6
f 298/3/6 291/3/6 299/3/6
f 292/4/6 293/4/6 300/4/6
f 299/3/6 291/3/6 300/3/6
f 291/4/6 292/4/6 300/4/6
f 293/4/6 294/4/6 300/4/6
f 298/3/6 299/3/6 301/3/6
f 297/4/6 298/4/6 301/4/6
f 296/4/6 297/4/6 301/4/6
f 295/4/6 296/4/6 301/4/6
f 301/3/6 299/3/6 302/3/6
f 299/4/6 300/4/6 303/4/6
f 302/3/6 299/3/6 303/3/6
f 300/4/6 294/4/6 304/4/6
f 303/4/6 300/4/6 304/4/6
f 294/3/6 260/3/6 305/3/6
f 304/4/6 294/4/6 305/4/6
f 305/3/6 260/3/6 306/3/6
f 302/3/6 303/3/6 307/3/6
f 301/4/6 302/4/6 307/4/6
f 303/3/6 304/3/6 307/3/6
f 307/3/6 304/3/6 308/3/6
f 305/4/6 306/4/6 309/4/6
f 308/3/6 304/3/6 309/3/6
f 304/4/6 305/4/6 309/4/6
f 309/4/6 306/4/6 310/4/6
f 307/4/6 308/4/6 311/4/6
f 308/3/6 309/3/6 311/3/6
f 309/3/6 310/3/6 311/3/6
f 311/3/6 310/3/6 312/3/6
f 306/3/6 260/3/6 313/3/6
f 310/4/6 306/4/6 313/4/6
f 313/3/6 260/3/6 314/3/6
f 312/3/6 310/3/6 315/3/6
f 311/4/6 312/4/6 315/4/6
f 315/3/6 310/3/6 316/3/6
f 313/4/6 314/4/6 317/4/6
f 316/3/6 310/3/6 317/3/6
f 310/4/6 313/4/6 317/4/6
f 317/4/6 314/4/6 318/4/6
f 315/4/6 316/4/6 319/4/6
f 316/3/6 317/3/6 319/3/6
f 317/3/6 318/3/6 319/3/6
f 319/3/6 318/3/6 320/3/6
f 318/4/6 314/4/6 321/4/6
f 320/3/6 318/3/6 321/3/6
f 321/4/6 314/4/6 322/4/6
f 314/3/6 260/3/6 323/3/6
f 322/4/6 314/4/6 323/4/6
f 323/3/6 260/3/6 324/3/6
f 321/3/6 322/3/6 325/3/6
f 319/4/6 320/4/6 325/4/6
f 320/3/6 321/3/6 325/3/6
f 325/3/6 322/3/6 326/3/6
f 323/4/6 324/4/6 327/4/6
f 326/3/6 322/3/6 327/3/6
f 322/4/6 323/4/6 327/4/6
f 327/4/6 324/4/6 328/4/6
f 326/3/6 327/3/6 329/3/6
f 328/4/6 324/4/6 329/4/6
f 327/3/6 328/3/6 329/3/6
f 329/4/6 324/4/6 330/4/6
f 324/3/6 260/3/6 331/3/6
f 330/4/6 324/4/6 331/4/6
f 331/3/6 260/3/6 332/3/6
f 329/3/6 330/3/6 333/3/6
f 330/4/6 331/4/6 333/4/6
f 331/4/6 332/4/6 333/4/6
f 333/4/6 332/4/6 334/4/6
f 325/4/6 326/4/6 335/4/6
f 319/4/6 325/4/6 335/4/6
f 333/3/6 334/3/6 336/3/6
f 335/4/6 326/4/6 336/4/6
f 326/3/6 329/3/6 336/3/6
f 329/3/6 333/3/6 336/3/6
f 334/4/6 332/4/6 337/4/6
f 336/3/6 334/3/6 337/3/6
f 337/4/6 332/4/6 338/4/6
f 332/3/6 260/3/6 339/3/6
f 338/4/6 332/4/6 339/4/6
f 260/5/6 129/5/6 340/5/6
f 339/3/6 260/3/6 340/3/6
f 338/4/6 339/4/6 341/4/6
f 337/3/6 338/3/6 341/3/6
f 339/4/6 340/4/6 341/4/6
f 336/3/6 337/3/6 341/3/6
f 335/3/6 336/3/6 341/3/6
f 341/4/6 340/4/6 342/4/6
f 341/3/6 342/3/6 343/3/6
f 342/4/6 340/4/6 343/4/6
f 343/4/6 340/4/6 344/4/6
f 319/4/6 335/4/6 345/4/6
f 335/3/6 341/3/6 346/3/6
f 345/4/6 335/4/6 346/4/6
f 341/3/6 343/3/6 346/3/6
f 343/3/6 344/3/6 346/3/6
f 344/4/6 340/4/6 347/4/6
f 346/3/6 344/3/6 347/3/6
f 347/4/6 340/4/6 348/4/6
f 315/4/6 319/4/6 349/4/6
f 319/4/6 345/4/6 349/4/6
f 345/3/6 346/3/6 350/3/6
f 349/4/6 345/4/6 350/4/6
f 347/3/6 348/3/6 350/3/6
f 346/3/6 347/3/6 350/3/6
f 348/4/6 340/4/6 351/4/6
f 350/3/6 348/3/6 351/3/6
f 351/4/6 340/4/6 352/4/6
f 349/3/6 350/3/6 353/3/6
f 352/4/6 340/4/6 353/4/6
f 351/3/6 352/3/6 353/3/6
f 350/3/6 351/3/6 353/3/6
f 353/4/6 340/4/6 354/4/6
f 315/4/6 349/4/6 355/4/6
f 349/3/6 353/3/6 356/3/6
f 355/4/6 349/4/6 356/4/6
f 353/3/6 354/3/6 356/3/6
f 354/4/6 340/4/6 357/4/6
f 356/3/6 354/3/6 357/3/6
f 357/4/6 340/4/6 358/4/6
f 311/4/6 315/4/6 359/4/6
f 315/4/6 355/4/6 359/4/6
f 355/3/6 356/3/6 360/3/6
f 359/4/6 355/4/6 360/4/6
f 357/3/6 358/3/6 360/3/6
f 356/3/6 357/3/6 360/3/6
f 358/4/6 340/4/6 361/4/6
f 360/3/6 358/3/6 361/3/6
f 361/4/6 340/4/6 362/4/6
f 311/4/6 359/4/6 363/4/6
f 359/3/6 360/3/6 364/3/6
f 363/4/6 359/4/6 364/4/6
f 360/3/6 361/3/6 364/3/6
f 361/3/6 362/3/6 364/3/6
f 362/4/6 340/4/6 365/4/6
f 364/3/6 362/3/6 365/3/6
f 365/4/6 340/4/6 366/4/6
f 363/3/6 364/3/6 367/3/6
f 366/4/6 340/4/6 367/4/6
f 365/3/6 366/3/6 367/3/6
f 364/3/6 365/3/6 367/3/6
f 367/4/6 340/4/6 368/4/6
f 311/4/6 363/4/6 369/4/6
f 363/3/6 367/3/6 369/3/6
f 367/3/6 368/3/6 369/3/6
f 369/3/6 368/3/6 370/3/6
f 369/4/6 370/4/6 371/4/6
f 370/3/6 368/3/6 371/3/6
f 371/3/6 368/3/6 372/3/6
f 371/4/6 372/4/6 373/4/6
f 372/3/6 368/3/6 373/3/6
f 373/3/6 368/3/6 374/3/6
f 373/4/6 374/4/6 375/4/6
f 374/3/6 368/3/6 375/3/6
f 375/3/6 368/3/6 376/3/6
f 368/4/6 340/4/6 377/4/6
f 376/3/6 368/3/6 377/3/6
f 340/5/6 129/5/6 378/5/6
f 377/4/6 340/4/6 378/4/6
f 307/4/6 311/4/6 379/4/6
f 375/4/6 376/4/6 379/4/6
f 277/4/6 295/4/6 379/4/6
f 373/4/6 375/4/6 379/4/6
f 371/4/6 373/4/6 379/4/6
f 369/4/6 371/4/6 379/4/6
f 311/4/6 369/4/6 379/4/6
f 295/4/6 301/4/6 379/4/6
f 128/5/6 277/5/6 379/5/6
f 301/4/6 307/4/6 379/4/6
f 376/3/6 377/3/6 380/3/6
f 379/4/6 376/4/6 380/4/6
f 377/3/6 378/3/6 380/3/6
f 378/5/6 129/5/6 381/5/6
f 380/3/6 378/3/6 381/3/6
f 128/5/6 379/5/6 382/5/6
f 379/5/6 380/5/6 382/5/6
f 380/5/6 381/5/6 382/5/6
f 381/5/6 129/5/6 383/5/6
f 382/5/6 381/5/6 383/5/6
