# MagicaVoxel @ Ephtracy

# group
o 

# material
mtllib tombstone.mtl
usemtl palette

# normals
vn -1 0 0
vn 1 0 0
vn 0 0 1
vn 0 0 -1
vn 0 -1 0
vn 0 1 0

# texcoords
vt 0.962891 0.5
vt 0.986328 0.5
vt 0.990234 0.5

# verts
v -5 0 2
v -5 0 -2
v -5 1 2
v -5 1 -2
v -4.3 1 1.8
v -4.3 1 -1.8
v -4.3 1.2 1.8
v -4.3 1.2 1.7
v -4.3 1.7 1.7
v -4.3 1.7 1.6
v -4.3 1.9 1.6
v -4.3 1.9 1.5
v -4.3 2 1.5
v -4.3 2 1.4
v -4.3 2.1 1.4
v -4.3 2.1 1.3
v -4.3 2.2 1.3
v -4.3 2.2 1.2
v -4.3 2.4 1.2
v -4.3 2.4 0.3
v -4.3 2.5 0.3
v -4.3 2.5 -0.3
v -4.3 2.6 -0.3
v -4.3 2.6 -1.8
v -4.2 1.2 1.8
v -4.2 1.2 1.7
v -4.2 1.7 1.8
v -4.2 1.7 1.7
v -4.2 1.7 1.6
v -4.2 1.9 1.6
v -4.2 1.9 1.5
v -4.2 2 1.7
v -4.2 2 1.6
v -4.2 2 1.5
v -4.2 2 1.4
v -4.2 2.1 1.6
v -4.2 2.1 1.5
v -4.2 2.1 1.4
v -4.2 2.1 1.3
v -4.2 2.2 1.5
v -4.2 2.2 1.4
v -4.2 2.2 1.3
v -4.2 2.2 1.2
v -4.2 2.4 1.4
v -4.2 2.4 1.3
v -4.2 2.4 1.2
v -4.2 2.4 0.3
v -4.2 2.5 1.3
v -4.2 2.5 0.7
v -4.2 2.5 0.3
v -4.2 2.5 -0.3
v -4.2 2.6 0.7
v -4.2 2.6 -0.3
v -4.1 1.7 1.8
v -4.1 1.7 1.7
v -4.1 1.9 1.8
v -4.1 1.9 1.7
v -4.1 2 1.7
v -4.1 2 1.6
v -4.1 2.1 1.6
v -4.1 2.1 1.5
v -4.1 2.2 1.7
v -4.1 2.2 1.6
v -4.1 2.2 1.5
v -4.1 2.2 1.4
v -4.1 2.3 1.6
v -4.1 2.3 1.4
v -4.1 2.5 1.2
v -4.1 2.5 0.7
v -4.1 2.6 1.2
v -4.1 2.6 0.7
v -3.8 2.3 1.5
v -3.8 2.3 1.4
v -3.8 2.4 1.5
v -3.8 2.4 1.4
v -3.7 1.9 1.8
v -3.7 1.9 1.7
v -3.7 2.2 1.7
v -3.7 2.2 1.6
v -3.7 2.3 1.8
v -3.7 2.3 1.6
v -3.7 2.3 1.5
v -3.7 2.4 1.6
v -3.7 2.4 1.5
v -3.7 2.4 1.4
v -3.7 2.4 1.3
v -3.7 2.5 1.4
v -3.7 2.5 1.3
v -3.7 2.5 1.2
v -3.7 2.6 1.3
v -3.7 2.6 1.2
v -3.6 2.3 1.8
v -3.6 2.3 1.6
v -3.6 2.4 1.8
v -3.6 2.4 1.6
v -3.6 2.4 1.5
v -3.6 2.4 1.4
v -3.6 2.5 1.5
v -3.6 2.5 1.4
v -3.6 2.5 1.3
v -3.6 2.6 1.4
v -3.6 2.6 1.3
v -3.5 2.4 1.8
v -3.5 2.4 1.5
v -3.5 2.5 1.8
v -3.5 2.5 1.5
v -3.5 2.5 1.4
v -3.5 2.6 1.5
v -3.5 2.6 1.4
v -3.4 2.5 1.8
v -3.4 2.5 1.5
v -3.4 2.6 1.8
v -3.4 2.6 1.5
v -2.8 1 1.9
v -2.8 1 1.8
v -2.8 1 -1.8
v -2.8 1 -1.9
v -2.8 2.6 1.8
v -2.8 2.6 -1.8
v -2.8 10.4 1.9
v -2.8 10.4 -1.9
v -0.8 2.6 2
v -0.8 2.6 1.9
v -0.8 10.3 1.9
v -0.8 10.4 1.9
v -0.8 10.4 -1.9
v -0.8 10.5 2
v -0.8 10.5 -1.9
v 2.7 1.1 1.9
v 2.7 1.1 1.8
v 2.7 1.1 -1.8
v 2.7 1.1 -1.9
v 2.7 10.3 1.9
v 2.7 10.3 1.8
v 2.7 10.3 -1.8
v 2.7 10.3 -1.9
v -2.7 1.1 1.9
v -2.7 1.1 1.8
v -2.7 1.1 -1.8
v -2.7 1.1 -1.9
v -2.7 10.3 1.9
v -2.7 10.3 1.8
v -2.7 10.3 -1.8
v -2.7 10.3 -1.9
v 0.8 2.6 2
v 0.8 2.6 1.9
v 0.8 10.3 1.9
v 0.8 10.4 1.9
v 0.8 10.4 -1.9
v 0.8 10.5 2
v 0.8 10.5 -1.9
v 2.8 1 1.9
v 2.8 1 -1.9
v 2.8 10.4 1.9
v 2.8 10.4 -1.9
v 5 0 2
v 5 0 -2
v 5 1 2
v 5 1 -2
v -5 0 2
v -5 1 2
v -0.8 2.6 2
v -0.8 10.5 2
v -0.6 2.8 2
v -0.6 2.9 2
v -0.6 9.6 2
v -0.6 10 2
v -0.5 9 2
v -0.5 9.2 2
v -0.5 9.5 2
v -0.5 9.6 2
v -0.5 9.7 2
v -0.5 9.9 2
v -0.4 2.9 2
v -0.4 3 2
v -0.4 3.3 2
v -0.4 3.4 2
v -0.4 4.1 2
v -0.4 4.3 2
v -0.4 5.6 2
v -0.4 6.1 2
v -0.4 8.5 2
v -0.4 8.9 2
v -0.4 9 2
v -0.4 9.1 2
v -0.4 9.6 2
v -0.4 9.7 2
v -0.3 2.8 2
v -0.3 2.9 2
v -0.3 3.4 2
v -0.3 3.7 2
v -0.3 4.1 2
v -0.3 4.2 2
v -0.3 4.3 2
v -0.3 4.5 2
v -0.3 5.5 2
v -0.3 5.6 2
v -0.3 5.7 2
v -0.3 6 2
v -0.3 6.1 2
v -0.3 6.3 2
v -0.3 8.4 2
v -0.3 8.5 2
v -0.3 8.8 2
v -0.3 9.2 2
v -0.3 9.4 2
v -0.2 3 2
v -0.2 3.3 2
v -0.2 3.6 2
v -0.2 4.2 2
v -0.2 4.5 2
v -0.2 4.8 2
v -0.2 5.4 2
v -0.2 5.5 2
v -0.2 5.7 2
v -0.2 5.9 2
v -0.2 6 2
v -0.2 6.3 2
v -0.2 6.8 2
v -0.2 7.9 2
v -0.2 8.3 2
v -0.2 8.4 2
v -0.2 8.9 2
v -0.2 9 2
v -0.2 9.1 2
v -0.2 9.3 2
v -0.0999999 2.9 2
v -0.0999999 3 2
v -0.0999999 3.1 2
v -0.0999999 3.2 2
v -0.0999999 3.6 2
v -0.0999999 3.7 2
v -0.0999999 3.8 2
v -0.0999999 4.5 2
v -0.0999999 4.7 2
v -0.0999999 4.8 2
v -0.0999999 5.4 2
v -0.0999999 5.5 2
v -0.0999999 5.8 2
v -0.0999999 5.9 2
v -0.0999999 6.8 2
v -0.0999999 7.8 2
v -0.0999999 7.9 2
v -0.0999999 8.1 2
v -0.0999999 8.2 2
v -0.0999999 8.3 2
v -0.0999999 8.4 2
v -0.0999999 8.5 2
v -0.0999999 8.8 2
v -0.0999999 8.9 2
v -0.0999999 9.4 2
v -0.0999999 9.5 2
v 0 3.1 2
v 0 3.2 2
v 0 3.3 2
v 0 3.4 2
v 0 4.7 2
v 0 5.2 2
v 0 5.3 2
v 0 5.4 2
v 0 5.7 2
v 0 5.8 2
v 0 5.9 2
v 0 6 2
v 0 7.8 2
v 0 8 2
v 0 8.1 2
v 0 8.2 2
v 0 8.3 2
v 0 8.4 2
v 0 8.9 2
v 0 9 2
v 0 9.3 2
v 0 9.4 2
v 0.1 3 2
v 0.1 3.1 2
v 0.1 3.2 2
v 0.1 3.3 2
v 0.1 5.3 2
v 0.1 5.5 2
v 0.1 5.8 2
v 0.1 5.9 2
v 0.1 6.3 2
v 0.1 6.4 2
v 0.1 7.4 2
v 0.1 7.7 2
v 0.1 8 2
v 0.1 8.3 2
v 0.1 9.5 2
v 0.1 9.6 2
v 0.2 3.2 2
v 0.2 3.3 2
v 0.2 3.4 2
v 0.2 3.8 2
v 0.2 3.9 2
v 0.2 5.2 2
v 0.2 5.4 2
v 0.2 5.5 2
v 0.2 5.7 2
v 0.2 7 2
v 0.2 7.4 2
v 0.2 7.5 2
v 0.2 7.7 2
v 0.2 9.4 2
v 0.2 9.5 2
v 0.2 9.9 2
v 0.2 10 2
v 0.3 3.1 2
v 0.3 3.2 2
v 0.3 3.3 2
v 0.3 3.4 2
v 0.3 5.4 2
v 0.3 5.6 2
v 0.3 5.8 2
v 0.3 5.9 2
v 0.3 6.2 2
v 0.3 6.3 2
v 0.3 6.9 2
v 0.3 7 2
v 0.3 7.1 2
v 0.3 7.5 2
v 0.4 3.2 2
v 0.4 3.3 2
v 0.4 3.6 2
v 0.4 3.7 2
v 0.4 3.8 2
v 0.4 3.9 2
v 0.4 5.6 2
v 0.4 5.9 2
v 0.4 6.2 2
v 0.4 6.3 2
v 0.4 6.4 2
v 0.4 6.9 2
v 0.4 7.1 2
v 0.5 3.3 2
v 0.5 3.4 2
v 0.5 3.6 2
v 0.5 3.8 2
v 0.5 5.9 2
v 0.5 6.3 2
v 0.8 2.6 2
v 0.8 10.5 2
v 5 0 2
v 5 1 2
v -2.8 1 1.9
v -2.8 10.4 1.9
v -2.7 1.1 1.9
v -2.7 10.3 1.9
v -0.8 10.3 1.9
v -0.8 10.4 1.9
v 0.8 10.3 1.9
v 0.8 10.4 1.9
v 2.7 1.1 1.9
v 2.7 10.3 1.9
v 2.8 1 1.9
v 2.8 10.4 1.9
v -4.3 1 1.8
v -4.3 1.2 1.8
v -4.2 1.2 1.8
v -4.2 1.7 1.8
v -4.1 1.7 1.8
v -4.1 1.9 1.8
v -3.7 1.9 1.8
v -3.7 2.3 1.8
v -3.6 2.3 1.8
v -3.6 2.4 1.8
v -3.5 2.4 1.8
v -3.5 2.5 1.8
v -3.4 2.5 1.8
v -3.4 2.6 1.8
v -2.8 1 1.8
v -2.8 2.6 1.8
v -2.7 1.1 1.8
v -2.7 10.3 1.8
v 2.7 1.1 1.8
v 2.7 10.3 1.8
v -4.3 1.2 1.7
v -4.3 1.7 1.7
v -4.2 1.2 1.7
v -4.2 1.7 1.7
v -4.2 2 1.7
v -4.1 1.7 1.7
v -4.1 1.9 1.7
v -4.1 2 1.7
v -4.1 2.2 1.7
v -3.7 1.9 1.7
v -3.7 2.2 1.7
v -4.3 1.7 1.6
v -4.3 1.9 1.6
v -4.2 1.7 1.6
v -4.2 1.9 1.6
v -4.2 2 1.6
v -4.2 2.1 1.6
v -4.1 2 1.6
v -4.1 2.1 1.6
v -4.1 2.2 1.6
v -4.1 2.3 1.6
v -3.7 2.2 1.6
v -3.7 2.3 1.6
v -3.7 2.4 1.6
v -3.6 2.3 1.6
v -3.6 2.4 1.6
v -4.3 1.9 1.5
v -4.3 2 1.5
v -4.2 1.9 1.5
v -4.2 2 1.5
v -4.2 2.1 1.5
v -4.2 2.2 1.5
v -4.1 2.1 1.5
v -4.1 2.2 1.5
v -3.8 2.3 1.5
v -3.8 2.4 1.5
v -3.7 2.3 1.5
v -3.7 2.4 1.5
v -3.6 2.4 1.5
v -3.6 2.5 1.5
v -3.5 2.4 1.5
v -3.5 2.5 1.5
v -3.5 2.6 1.5
v -3.4 2.5 1.5
v -3.4 2.6 1.5
v -4.3 2 1.4
v -4.3 2.1 1.4
v -4.2 2 1.4
v -4.2 2.1 1.4
v -4.2 2.2 1.4
v -4.2 2.4 1.4
v -4.1 2.2 1.4
v -4.1 2.3 1.4
v -3.8 2.3 1.4
v -3.8 2.4 1.4
v -3.7 2.4 1.4
v -3.7 2.5 1.4
v -3.6 2.4 1.4
v -3.6 2.5 1.4
v -3.6 2.6 1.4
v -3.5 2.5 1.4
v -3.5 2.6 1.4
v -4.3 2.1 1.3
v -4.3 2.2 1.3
v -4.2 2.1 1.3
v -4.2 2.2 1.3
v -4.2 2.4 1.3
v -4.2 2.5 1.3
v -3.7 2.4 1.3
v -3.7 2.5 1.3
v -3.7 2.6 1.3
v -3.6 2.5 1.3
v -3.6 2.6 1.3
v -4.3 2.2 1.2
v -4.3 2.4 1.2
v -4.2 2.2 1.2
v -4.2 2.4 1.2
v -4.1 2.5 1.2
v -4.1 2.6 1.2
v -3.7 2.5 1.2
v -3.7 2.6 1.2
v -4.2 2.5 0.7
v -4.2 2.6 0.7
v -4.1 2.5 0.7
v -4.1 2.6 0.7
v -4.3 2.4 0.3
v -4.3 2.5 0.3
v -4.2 2.4 0.3
v -4.2 2.5 0.3
v -4.3 2.5 -0.3
v -4.3 2.6 -0.3
v -4.2 2.5 -0.3
v -4.2 2.6 -0.3
v -0.8 2.6 1.9
v -0.8 10.3 1.9
v -0.6 2.8 1.9
v -0.6 2.9 1.9
v -0.6 9.6 1.9
v -0.6 10 1.9
v -0.5 9 1.9
v -0.5 9.2 1.9
v -0.5 9.5 1.9
v -0.5 9.6 1.9
v -0.5 9.7 1.9
v -0.5 9.9 1.9
v -0.4 2.9 1.9
v -0.4 3 1.9
v -0.4 3.3 1.9
v -0.4 3.4 1.9
v -0.4 4.1 1.9
v -0.4 4.3 1.9
v -0.4 5.6 1.9
v -0.4 6.1 1.9
v -0.4 8.5 1.9
v -0.4 8.9 1.9
v -0.4 9 1.9
v -0.4 9.1 1.9
v -0.4 9.6 1.9
v -0.4 9.7 1.9
v -0.3 2.8 1.9
v -0.3 2.9 1.9
v -0.3 3.4 1.9
v -0.3 3.7 1.9
v -0.3 4.1 1.9
v -0.3 4.2 1.9
v -0.3 4.3 1.9
v -0.3 4.5 1.9
v -0.3 5.5 1.9
v -0.3 5.6 1.9
v -0.3 5.7 1.9
v -0.3 6 1.9
v -0.3 6.1 1.9
v -0.3 6.3 1.9
v -0.3 8.4 1.9
v -0.3 8.5 1.9
v -0.3 8.8 1.9
v -0.3 9.2 1.9
v -0.3 9.4 1.9
v -0.2 3 1.9
v -0.2 3.3 1.9
v -0.2 3.6 1.9
v -0.2 4.2 1.9
v -0.2 4.5 1.9
v -0.2 4.8 1.9
v -0.2 5.4 1.9
v -0.2 5.5 1.9
v -0.2 5.7 1.9
v -0.2 5.9 1.9
v -0.2 6 1.9
v -0.2 6.3 1.9
v -0.2 6.8 1.9
v -0.2 7.9 1.9
v -0.2 8.3 1.9
v -0.2 8.4 1.9
v -0.2 8.9 1.9
v -0.2 9 1.9
v -0.2 9.1 1.9
v -0.2 9.3 1.9
v -0.0999999 2.9 1.9
v -0.0999999 3 1.9
v -0.0999999 3.1 1.9
v -0.0999999 3.2 1.9
v -0.0999999 3.6 1.9
v -0.0999999 3.7 1.9
v -0.0999999 3.8 1.9
v -0.0999999 4.5 1.9
v -0.0999999 4.7 1.9
v -0.0999999 4.8 1.9
v -0.0999999 5.4 1.9
v -0.0999999 5.5 1.9
v -0.0999999 5.8 1.9
v -0.0999999 5.9 1.9
v -0.0999999 6.8 1.9
v -0.0999999 7.8 1.9
v -0.0999999 7.9 1.9
v -0.0999999 8.1 1.9
v -0.0999999 8.2 1.9
v -0.0999999 8.3 1.9
v -0.0999999 8.4 1.9
v -0.0999999 8.5 1.9
v -0.0999999 8.8 1.9
v -0.0999999 8.9 1.9
v -0.0999999 9.4 1.9
v -0.0999999 9.5 1.9
v 0 3.1 1.9
v 0 3.2 1.9
v 0 3.3 1.9
v 0 3.4 1.9
v 0 4.7 1.9
v 0 5.2 1.9
v 0 5.3 1.9
v 0 5.4 1.9
v 0 5.7 1.9
v 0 5.8 1.9
v 0 5.9 1.9
v 0 6 1.9
v 0 7.8 1.9
v 0 8 1.9
v 0 8.1 1.9
v 0 8.2 1.9
v 0 8.3 1.9
v 0 8.4 1.9
v 0 8.9 1.9
v 0 9 1.9
v 0 9.3 1.9
v 0 9.4 1.9
v 0.1 3 1.9
v 0.1 3.1 1.9
v 0.1 3.2 1.9
v 0.1 3.3 1.9
v 0.1 5.3 1.9
v 0.1 5.5 1.9
v 0.1 5.8 1.9
v 0.1 5.9 1.9
v 0.1 6.3 1.9
v 0.1 6.4 1.9
v 0.1 7.4 1.9
v 0.1 7.7 1.9
v 0.1 8 1.9
v 0.1 8.3 1.9
v 0.1 9.5 1.9
v 0.1 9.6 1.9
v 0.2 3.2 1.9
v 0.2 3.3 1.9
v 0.2 3.4 1.9
v 0.2 3.8 1.9
v 0.2 3.9 1.9
v 0.2 5.2 1.9
v 0.2 5.4 1.9
v 0.2 5.5 1.9
v 0.2 5.7 1.9
v 0.2 7 1.9
v 0.2 7.4 1.9
v 0.2 7.5 1.9
v 0.2 7.7 1.9
v 0.2 9.4 1.9
v 0.2 9.5 1.9
v 0.2 9.9 1.9
v 0.2 10 1.9
v 0.3 3.1 1.9
v 0.3 3.2 1.9
v 0.3 3.3 1.9
v 0.3 3.4 1.9
v 0.3 5.4 1.9
v 0.3 5.6 1.9
v 0.3 5.8 1.9
v 0.3 5.9 1.9
v 0.3 6.2 1.9
v 0.3 6.3 1.9
v 0.3 6.9 1.9
v 0.3 7 1.9
v 0.3 7.1 1.9
v 0.3 7.5 1.9
v 0.4 3.2 1.9
v 0.4 3.3 1.9
v 0.4 3.6 1.9
v 0.4 3.7 1.9
v 0.4 3.8 1.9
v 0.4 3.9 1.9
v 0.4 5.6 1.9
v 0.4 5.9 1.9
v 0.4 6.2 1.9
v 0.4 6.3 1.9
v 0.4 6.4 1.9
v 0.4 6.9 1.9
v 0.4 7.1 1.9
v 0.5 3.3 1.9
v 0.5 3.4 1.9
v 0.5 3.6 1.9
v 0.5 3.8 1.9
v 0.5 5.9 1.9
v 0.5 6.3 1.9
v 0.8 2.6 1.9
v 0.8 10.3 1.9
v -4.3 1 -1.8
v -4.3 2.6 -1.8
v -2.8 1 -1.8
v -2.8 2.6 -1.8
v -2.7 1.1 -1.8
v -2.7 10.3 -1.8
v 2.7 1.1 -1.8
v 2.7 10.3 -1.8
v -2.8 1 -1.9
v -2.8 10.4 -1.9
v -2.7 1.1 -1.9
v -2.7 10.3 -1.9
v -0.8 10.4 -1.9
v -0.8 10.5 -1.9
v 0.8 10.4 -1.9
v 0.8 10.5 -1.9
v 2.7 1.1 -1.9
v 2.7 10.3 -1.9
v 2.8 1 -1.9
v 2.8 10.4 -1.9
v -5 0 -2
v -5 1 -2
v 5 0 -2
v 5 1 -2
v -5 0 2
v 5 0 2
v -5 0 -2
v 5 0 -2
v -0.8 2.6 2
v 0.8 2.6 2
v -0.8 2.6 1.9
v 0.8 2.6 1.9
v -2.7 10.3 1.9
v -0.8 10.3 1.9
v 0.8 10.3 1.9
v 2.7 10.3 1.9
v -2.7 10.3 1.8
v 2.7 10.3 1.8
v -2.7 10.3 -1.8
v 2.7 10.3 -1.8
v -2.7 10.3 -1.9
v 2.7 10.3 -1.9
v -5 1 2
v 5 1 2
v -2.8 1 1.9
v 2.8 1 1.9
v -4.3 1 1.8
v -2.8 1 1.8
v -4.3 1 -1.8
v -2.8 1 -1.8
v -2.8 1 -1.9
v 2.8 1 -1.9
v -5 1 -2
v 5 1 -2
v -2.7 1.1 1.9
v 2.7 1.1 1.9
v -2.7 1.1 1.8
v 2.7 1.1 1.8
v -2.7 1.1 -1.8
v 2.7 1.1 -1.8
v -2.7 1.1 -1.9
v 2.7 1.1 -1.9
v -4.3 1.2 1.8
v -4.2 1.2 1.8
v -4.3 1.2 1.7
v -4.2 1.2 1.7
v -4.2 1.7 1.8
v -4.1 1.7 1.8
v -4.3 1.7 1.7
v -4.2 1.7 1.7
v -4.1 1.7 1.7
v -4.3 1.7 1.6
v -4.2 1.7 1.6
v -4.1 1.9 1.8
v -3.7 1.9 1.8
v -4.1 1.9 1.7
v -3.7 1.9 1.7
v -4.3 1.9 1.6
v -4.2 1.9 1.6
v -4.3 1.9 1.5
v -4.2 1.9 1.5
v -4.2 2 1.7
v -4.1 2 1.7
v -4.2 2 1.6
v -4.1 2 1.6
v -4.3 2 1.5
v -4.2 2 1.5
v -4.3 2 1.4
v -4.2 2 1.4
v -4.2 2.1 1.6
v -4.1 2.1 1.6
v -4.2 2.1 1.5
v -4.1 2.1 1.5
v -4.3 2.1 1.4
v -4.2 2.1 1.4
v -4.3 2.1 1.3
v -4.2 2.1 1.3
v -4.1 2.2 1.7
v -3.7 2.2 1.7
v -4.1 2.2 1.6
v -3.7 2.2 1.6
v -4.2 2.2 1.5
v -4.1 2.2 1.5
v -4.2 2.2 1.4
v -4.1 2.2 1.4
v -4.3 2.2 1.3
v -4.2 2.2 1.3
v -4.3 2.2 1.2
v -4.2 2.2 1.2
v -3.7 2.3 1.8
v -3.6 2.3 1.8
v -4.1 2.3 1.6
v -3.7 2.3 1.6
v -3.6 2.3 1.6
v -3.8 2.3 1.5
v -3.7 2.3 1.5
v -4.1 2.3 1.4
v -3.8 2.3 1.4
v -3.6 2.4 1.8
v -3.5 2.4 1.8
v -3.7 2.4 1.6
v -3.6 2.4 1.6
v -3.8 2.4 1.5
v -3.7 2.4 1.5
v -3.6 2.4 1.5
v -3.5 2.4 1.5
v -4.2 2.4 1.4
v -3.8 2.4 1.4
v -3.7 2.4 1.4
v -3.6 2.4 1.4
v -4.2 2.4 1.3
v -3.7 2.4 1.3
v -4.3 2.4 1.2
v -4.2 2.4 1.2
v -4.3 2.4 0.3
v -4.2 2.4 0.3
v -3.5 2.5 1.8
v -3.4 2.5 1.8
v -3.6 2.5 1.5
v -3.5 2.5 1.5
v -3.4 2.5 1.5
v -3.7 2.5 1.4
v -3.6 2.5 1.4
v -3.5 2.5 1.4
v -4.2 2.5 1.3
v -3.7 2.5 1.3
v -3.6 2.5 1.3
v -4.1 2.5 1.2
v -3.7 2.5 1.2
v -4.2 2.5 0.7
v -4.1 2.5 0.7
v -4.3 2.5 0.3
v -4.2 2.5 0.3
v -4.3 2.5 -0.3
v -4.2 2.5 -0.3
v -3.4 2.6 1.8
v -2.8 2.6 1.8
v -3.5 2.6 1.5
v -3.4 2.6 1.5
v -3.6 2.6 1.4
v -3.5 2.6 1.4
v -3.7 2.6 1.3
v -3.6 2.6 1.3
v -4.1 2.6 1.2
v -3.7 2.6 1.2
v -4.2 2.6 0.7
v -4.1 2.6 0.7
v -4.3 2.6 -0.3
v -4.2 2.6 -0.3
v -4.3 2.6 -1.8
v -2.8 2.6 -1.8
v -2.8 10.4 1.9
v -0.8 10.4 1.9
v 0.8 10.4 1.9
v 2.8 10.4 1.9
v -2.8 10.4 -1.9
v -0.8 10.4 -1.9
v 0.8 10.4 -1.9
v 2.8 10.4 -1.9
v -0.8 10.5 2
v 0.8 10.5 2
v -0.8 10.5 -1.9
v 0.8 10.5 -1.9

# faces
f 3/2/1 2/2/1 1/2/1
f 4/2/1 2/2/1 3/2/1
f 7/2/1 6/2/1 5/2/1
f 8/2/1 6/2/1 7/2/1
f 9/2/1 6/2/1 8/2/1
f 10/2/1 6/2/1 9/2/1
f 11/2/1 6/2/1 10/2/1
f 12/2/1 6/2/1 11/2/1
f 13/2/1 6/2/1 12/2/1
f 14/2/1 6/2/1 13/2/1
f 15/2/1 6/2/1 14/2/1
f 16/2/1 6/2/1 15/2/1
f 17/2/1 6/2/1 16/2/1
f 18/2/1 6/2/1 17/2/1
f 19/2/1 6/2/1 18/2/1
f 20/2/1 6/2/1 19/2/1
f 21/2/1 6/2/1 20/2/1
f 22/2/1 6/2/1 21/2/1
f 23/2/1 6/2/1 22/2/1
f 24/2/1 6/2/1 23/2/1
f 27/2/1 26/2/1 25/2/1
f 28/2/1 26/2/1 27/2/1
f 30/2/1 29/2/1 28/2/1
f 32/2/1 30/2/1 28/2/1
f 32/2/1 31/2/1 30/2/1
f 33/2/1 31/2/1 32/2/1
f 34/2/1 31/2/1 33/2/1
f 36/2/1 35/2/1 34/2/1
f 36/2/1 34/2/1 33/2/1
f 37/2/1 35/2/1 36/2/1
f 38/2/1 35/2/1 37/2/1
f 40/2/1 39/2/1 38/2/1
f 40/2/1 38/2/1 37/2/1
f 41/2/1 39/2/1 40/2/1
f 42/2/1 39/2/1 41/2/1
f 44/2/1 43/2/1 42/2/1
f 44/2/1 42/2/1 41/2/1
f 45/2/1 43/2/1 44/2/1
f 46/2/1 43/2/1 45/2/1
f 48/2/1 47/2/1 46/2/1
f 48/2/1 46/2/1 45/2/1
f 49/2/1 47/2/1 48/2/1
f 50/2/1 47/2/1 49/2/1
f 52/2/1 51/2/1 50/2/1
f 52/2/1 50/2/1 49/2/1
f 53/2/1 51/2/1 52/2/1
f 56/2/1 55/2/1 54/2/1
f 57/2/1 55/2/1 56/2/1
f 60/2/1 59/2/1 58/2/1
f 62/2/1 60/2/1 58/2/1
f 62/2/1 61/2/1 60/2/1
f 63/2/1 61/2/1 62/2/1
f 64/2/1 61/2/1 63/2/1
f 66/2/1 65/2/1 64/2/1
f 66/2/1 64/2/1 63/2/1
f 67/2/1 65/2/1 66/2/1
f 70/2/1 69/2/1 68/2/1
f 71/2/1 69/2/1 70/2/1
f 74/2/1 73/2/1 72/2/1
f 75/2/1 73/2/1 74/2/1
f 78/2/1 77/2/1 76/2/1
f 80/2/1 78/2/1 76/2/1
f 80/2/1 79/2/1 78/2/1
f 81/2/1 79/2/1 80/2/1
f 83/2/1 82/2/1 81/2/1
f 84/2/1 82/2/1 83/2/1
f 87/2/1 86/2/1 85/2/1
f 88/2/1 86/2/1 87/2/1
f 90/2/1 89/2/1 88/2/1
f 91/2/1 89/2/1 90/2/1
f 94/2/1 93/2/1 92/2/1
f 95/2/1 93/2/1 94/2/1
f 98/2/1 97/2/1 96/2/1
f 99/2/1 97/2/1 98/2/1
f 101/2/1 100/2/1 99/2/1
f 102/2/1 100/2/1 101/2/1
f 105/2/1 104/2/1 103/2/1
f 106/2/1 104/2/1 105/2/1
f 108/2/1 107/2/1 106/2/1
f 109/2/1 107/2/1 108/2/1
f 112/2/1 111/2/1 110/2/1
f 113/2/1 111/2/1 112/2/1
f 118/3/1 115/3/1 114/3/1
f 119/3/1 117/3/1 116/3/1
f 120/3/1 118/3/1 114/3/1
f 120/3/1 119/3/1 118/3/1
f 121/3/1 117/3/1 119/3/1
f 121/3/1 119/3/1 120/3/1
f 124/1/1 123/1/1 122/1/1
f 125/1/1 124/1/1 122/1/1
f 127/1/1 125/1/1 122/1/1
f 127/1/1 126/1/1 125/1/1
f 128/1/1 126/1/1 127/1/1
f 133/3/1 130/3/1 129/3/1
f 134/3/1 130/3/1 133/3/1
f 135/3/1 132/3/1 131/3/1
f 136/3/1 132/3/1 135/3/1
f 137/3/2 138/3/2 141/3/2
f 141/3/2 138/3/2 142/3/2
f 139/3/2 140/3/2 143/3/2
f 143/3/2 140/3/2 144/3/2
f 145/1/2 146/1/2 147/1/2
f 145/1/2 147/1/2 148/1/2
f 145/1/2 148/1/2 150/1/2
f 148/1/2 149/1/2 150/1/2
f 150/1/2 149/1/2 151/1/2
f 152/3/2 153/3/2 154/3/2
f 154/3/2 153/3/2 155/3/2
f 156/2/2 157/2/2 158/2/2
f 158/2/2 157/2/2 159/2/2
f 164/1/3 163/1/3 162/1/3
f 165/1/3 163/1/3 164/1/3
f 166/1/3 163/1/3 165/1/3
f 167/1/3 163/1/3 166/1/3
f 168/1/3 166/1/3 165/1/3
f 169/1/3 166/1/3 168/1/3
f 170/1/3 166/1/3 169/1/3
f 171/3/3 167/3/3 166/3/3
f 171/1/3 166/1/3 170/1/3
f 172/3/3 167/3/3 171/3/3
f 173/3/3 167/3/3 172/3/3
f 174/3/3 165/3/3 164/3/3
f 174/1/3 168/1/3 165/1/3
f 175/1/3 168/1/3 174/1/3
f 176/1/3 168/1/3 175/1/3
f 177/1/3 168/1/3 176/1/3
f 178/1/3 168/1/3 177/1/3
f 179/1/3 168/1/3 178/1/3
f 180/1/3 168/1/3 179/1/3
f 181/1/3 168/1/3 180/1/3
f 182/1/3 168/1/3 181/1/3
f 183/1/3 168/1/3 182/1/3
f 184/3/3 169/3/3 168/3/3
f 184/1/3 168/1/3 183/1/3
f 185/3/3 169/3/3 184/3/3
f 186/3/3 171/3/3 170/3/3
f 186/3/3 172/3/3 171/3/3
f 187/1/3 173/1/3 172/1/3
f 187/3/3 172/3/3 186/3/3
f 188/1/3 164/1/3 162/1/3
f 188/3/3 174/3/3 164/3/3
f 188/3/3 175/3/3 174/3/3
f 189/3/3 175/3/3 188/3/3
f 190/3/3 177/3/3 176/3/3
f 190/1/3 178/1/3 177/1/3
f 191/1/3 178/1/3 190/1/3
f 192/3/3 179/3/3 178/3/3
f 192/1/3 178/1/3 191/1/3
f 193/3/3 179/3/3 192/3/3
f 194/1/3 180/1/3 179/1/3
f 194/3/3 179/3/3 193/3/3
f 195/1/3 180/1/3 194/1/3
f 196/1/3 180/1/3 195/1/3
f 197/3/3 181/3/3 180/3/3
f 197/1/3 180/1/3 196/1/3
f 198/3/3 181/3/3 197/3/3
f 199/3/3 181/3/3 198/3/3
f 200/1/3 182/1/3 181/1/3
f 200/3/3 181/3/3 199/3/3
f 201/1/3 182/1/3 200/1/3
f 202/1/3 182/1/3 201/1/3
f 203/3/3 183/3/3 182/3/3
f 203/1/3 182/1/3 202/1/3
f 204/3/3 183/3/3 203/3/3
f 205/1/3 170/1/3 169/1/3
f 205/3/3 169/3/3 185/3/3
f 206/1/3 170/1/3 205/1/3
f 207/1/3 176/1/3 175/1/3
f 207/3/3 175/3/3 189/3/3
f 208/3/3 191/3/3 190/3/3
f 208/1/3 176/1/3 207/1/3
f 208/3/3 190/3/3 176/3/3
f 209/3/3 191/3/3 208/3/3
f 210/1/3 193/1/3 192/1/3
f 210/1/3 192/1/3 191/1/3
f 210/3/3 194/3/3 193/3/3
f 210/3/3 195/3/3 194/3/3
f 211/1/3 196/1/3 195/1/3
f 211/3/3 195/3/3 210/3/3
f 212/1/3 196/1/3 211/1/3
f 213/1/3 196/1/3 212/1/3
f 214/3/3 197/3/3 196/3/3
f 214/1/3 196/1/3 213/1/3
f 214/3/3 198/3/3 197/3/3
f 215/1/3 199/1/3 198/1/3
f 215/3/3 198/3/3 214/3/3
f 216/1/3 199/1/3 215/1/3
f 217/3/3 200/3/3 199/3/3
f 217/1/3 199/1/3 216/1/3
f 217/3/3 201/3/3 200/3/3
f 218/1/3 202/1/3 201/1/3
f 218/3/3 201/3/3 217/3/3
f 219/1/3 202/1/3 218/1/3
f 220/1/3 202/1/3 219/1/3
f 221/1/3 202/1/3 220/1/3
f 222/3/3 203/3/3 202/3/3
f 222/1/3 202/1/3 221/1/3
f 223/3/3 183/3/3 204/3/3
f 223/1/3 185/1/3 184/1/3
f 223/1/3 184/1/3 183/1/3
f 224/1/3 185/1/3 223/1/3
f 225/3/3 206/3/3 205/3/3
f 225/1/3 185/1/3 224/1/3
f 225/3/3 205/3/3 185/3/3
f 226/3/3 206/3/3 225/3/3
f 227/1/3 189/1/3 188/1/3
f 227/3/3 207/3/3 189/3/3
f 227/3/3 208/3/3 207/3/3
f 228/3/3 208/3/3 227/3/3
f 229/3/3 208/3/3 228/3/3
f 230/3/3 208/3/3 229/3/3
f 231/3/3 191/3/3 209/3/3
f 231/1/3 209/1/3 208/1/3
f 232/1/3 210/1/3 191/1/3
f 232/3/3 191/3/3 231/3/3
f 232/1/3 211/1/3 210/1/3
f 233/1/3 211/1/3 232/1/3
f 234/3/3 212/3/3 211/3/3
f 234/1/3 211/1/3 233/1/3
f 235/3/3 212/3/3 234/3/3
f 236/1/3 213/1/3 212/1/3
f 236/3/3 212/3/3 235/3/3
f 237/3/3 214/3/3 213/3/3
f 237/1/3 213/1/3 236/1/3
f 238/1/3 216/1/3 215/1/3
f 238/3/3 214/3/3 237/3/3
f 238/1/3 215/1/3 214/1/3
f 239/1/3 216/1/3 238/1/3
f 240/3/3 217/3/3 216/3/3
f 240/1/3 216/1/3 239/1/3
f 241/3/3 220/3/3 219/3/3
f 241/1/3 218/1/3 217/1/3
f 241/1/3 219/1/3 218/1/3
f 242/3/3 220/3/3 241/3/3
f 243/1/3 221/1/3 220/1/3
f 243/3/3 220/3/3 242/3/3
f 244/1/3 221/1/3 243/1/3
f 245/1/3 221/1/3 244/1/3
f 246/3/3 222/3/3 221/3/3
f 246/1/3 221/1/3 245/1/3
f 247/3/3 203/3/3 222/3/3
f 247/3/3 222/3/3 246/3/3
f 248/1/3 204/1/3 203/1/3
f 248/3/3 203/3/3 247/3/3
f 249/3/3 224/3/3 223/3/3
f 249/1/3 204/1/3 248/1/3
f 249/3/3 223/3/3 204/3/3
f 250/3/3 224/3/3 249/3/3
f 251/1/3 170/1/3 206/1/3
f 251/3/3 206/3/3 226/3/3
f 252/3/3 186/3/3 170/3/3
f 252/1/3 170/1/3 251/1/3
f 253/1/3 230/1/3 229/1/3
f 253/3/3 229/3/3 228/3/3
f 254/3/3 208/3/3 230/3/3
f 254/1/3 230/1/3 253/1/3
f 255/1/3 231/1/3 208/1/3
f 255/3/3 208/3/3 254/3/3
f 255/1/3 232/1/3 231/1/3
f 256/1/3 232/1/3 255/1/3
f 257/3/3 236/3/3 235/3/3
f 257/1/3 235/1/3 234/1/3
f 257/3/3 237/3/3 236/3/3
f 257/1/3 234/1/3 233/1/3
f 258/3/3 237/3/3 257/3/3
f 259/3/3 237/3/3 258/3/3
f 260/1/3 239/1/3 238/1/3
f 260/3/3 237/3/3 259/3/3
f 260/1/3 238/1/3 237/1/3
f 261/1/3 239/1/3 260/1/3
f 262/3/3 240/3/3 239/3/3
f 262/1/3 239/1/3 261/1/3
f 263/3/3 217/3/3 240/3/3
f 263/3/3 240/3/3 262/3/3
f 264/1/3 242/1/3 241/1/3
f 264/3/3 217/3/3 263/3/3
f 264/1/3 241/1/3 217/1/3
f 265/3/3 244/3/3 243/3/3
f 265/1/3 242/1/3 264/1/3
f 265/3/3 243/3/3 242/3/3
f 266/3/3 244/3/3 265/3/3
f 267/1/3 245/1/3 244/1/3
f 267/3/3 244/3/3 266/3/3
f 268/3/3 246/3/3 245/3/3
f 268/1/3 245/1/3 267/1/3
f 268/3/3 247/3/3 246/3/3
f 269/3/3 247/3/3 268/3/3
f 270/1/3 248/1/3 247/1/3
f 270/3/3 247/3/3 269/3/3
f 270/1/3 250/1/3 249/1/3
f 270/1/3 249/1/3 248/1/3
f 271/3/3 224/3/3 250/3/3
f 271/1/3 250/1/3 270/1/3
f 272/1/3 226/1/3 225/1/3
f 272/3/3 224/3/3 271/3/3
f 272/1/3 225/1/3 224/1/3
f 273/3/3 251/3/3 226/3/3
f 273/1/3 226/1/3 272/1/3
f 273/3/3 252/3/3 251/3/3
f 274/3/3 252/3/3 273/3/3
f 275/3/3 253/3/3 228/3/3
f 275/3/3 254/3/3 253/3/3
f 275/3/3 256/3/3 255/3/3
f 275/3/3 255/3/3 254/3/3
f 275/1/3 228/1/3 227/1/3
f 276/3/3 256/3/3 275/3/3
f 277/3/3 256/3/3 276/3/3
f 278/3/3 256/3/3 277/3/3
f 279/3/3 259/3/3 258/3/3
f 279/1/3 260/1/3 259/1/3
f 279/1/3 261/1/3 260/1/3
f 280/1/3 261/1/3 279/1/3
f 281/3/3 262/3/3 261/3/3
f 281/3/3 263/3/3 262/3/3
f 282/1/3 265/1/3 264/1/3
f 282/3/3 263/3/3 281/3/3
f 282/1/3 266/1/3 265/1/3
f 282/1/3 264/1/3 263/1/3
f 283/1/3 266/1/3 282/1/3
f 284/1/3 266/1/3 283/1/3
f 285/1/3 266/1/3 284/1/3
f 286/1/3 266/1/3 285/1/3
f 287/3/3 267/3/3 266/3/3
f 287/1/3 266/1/3 286/1/3
f 287/3/3 269/3/3 268/3/3
f 287/3/3 268/3/3 267/3/3
f 288/1/3 272/1/3 271/1/3
f 288/3/3 269/3/3 287/3/3
f 288/1/3 270/1/3 269/1/3
f 288/1/3 271/1/3 270/1/3
f 288/1/3 274/1/3 273/1/3
f 288/1/3 273/1/3 272/1/3
f 289/3/3 252/3/3 274/3/3
f 289/3/3 186/3/3 252/3/3
f 290/1/3 187/1/3 186/1/3
f 290/3/3 186/3/3 289/3/3
f 291/1/3 278/1/3 277/1/3
f 291/3/3 277/3/3 276/3/3
f 292/3/3 256/3/3 278/3/3
f 292/1/3 278/1/3 291/1/3
f 293/1/3 232/1/3 256/1/3
f 293/3/3 256/3/3 292/3/3
f 294/3/3 233/3/3 232/3/3
f 294/1/3 257/1/3 233/1/3
f 294/1/3 258/1/3 257/1/3
f 295/1/3 258/1/3 294/1/3
f 296/3/3 279/3/3 258/3/3
f 296/1/3 258/1/3 295/1/3
f 296/3/3 280/3/3 279/3/3
f 297/3/3 280/3/3 296/3/3
f 298/1/3 261/1/3 280/1/3
f 298/3/3 280/3/3 297/3/3
f 299/3/3 281/3/3 261/3/3
f 299/1/3 261/1/3 298/1/3
f 300/1/3 285/1/3 284/1/3
f 301/3/3 286/3/3 285/3/3
f 301/1/3 285/1/3 300/1/3
f 302/3/3 286/3/3 301/3/3
f 303/1/3 287/1/3 286/1/3
f 303/3/3 286/3/3 302/3/3
f 303/1/3 288/1/3 287/1/3
f 304/3/3 289/3/3 274/3/3
f 304/1/3 288/1/3 303/1/3
f 304/1/3 274/1/3 288/1/3
f 305/1/3 290/1/3 289/1/3
f 305/3/3 289/3/3 304/3/3
f 306/1/3 173/1/3 187/1/3
f 306/1/3 290/1/3 305/1/3
f 306/3/3 167/3/3 173/3/3
f 306/1/3 187/1/3 290/1/3
f 307/1/3 163/1/3 167/1/3
f 307/3/3 167/3/3 306/3/3
f 308/3/3 291/3/3 276/3/3
f 308/3/3 292/3/3 291/3/3
f 308/1/3 276/1/3 275/1/3
f 309/3/3 292/3/3 308/3/3
f 310/1/3 293/1/3 292/1/3
f 310/3/3 292/3/3 309/3/3
f 311/1/3 232/1/3 293/1/3
f 311/1/3 293/1/3 310/1/3
f 312/1/3 296/1/3 295/1/3
f 312/3/3 298/3/3 297/3/3
f 312/1/3 297/1/3 296/1/3
f 312/3/3 299/3/3 298/3/3
f 313/3/3 299/3/3 312/3/3
f 314/1/3 283/1/3 282/1/3
f 314/3/3 299/3/3 313/3/3
f 314/3/3 281/3/3 299/3/3
f 314/1/3 282/1/3 281/1/3
f 315/1/3 283/1/3 314/1/3
f 316/1/3 283/1/3 315/1/3
f 317/3/3 284/3/3 283/3/3
f 317/1/3 283/1/3 316/1/3
f 318/1/3 300/1/3 284/1/3
f 319/3/3 302/3/3 301/3/3
f 319/1/3 300/1/3 318/1/3
f 319/3/3 301/3/3 300/3/3
f 320/3/3 302/3/3 319/3/3
f 321/1/3 305/1/3 304/1/3
f 321/3/3 302/3/3 320/3/3
f 321/1/3 306/1/3 305/1/3
f 321/1/3 303/1/3 302/1/3
f 321/1/3 304/1/3 303/1/3
f 321/1/3 307/1/3 306/1/3
f 322/3/3 311/3/3 310/3/3
f 322/3/3 310/3/3 309/3/3
f 322/1/3 309/1/3 308/1/3
f 323/3/3 311/3/3 322/3/3
f 324/1/3 232/1/3 311/1/3
f 325/3/3 295/3/3 294/3/3
f 325/1/3 232/1/3 324/1/3
f 325/3/3 294/3/3 232/3/3
f 326/3/3 295/3/3 325/3/3
f 327/1/3 313/1/3 312/1/3
f 327/3/3 295/3/3 326/3/3
f 327/1/3 312/1/3 295/1/3
f 328/3/3 315/3/3 314/3/3
f 328/1/3 313/1/3 327/1/3
f 328/3/3 314/3/3 313/3/3
f 329/1/3 316/1/3 315/1/3
f 329/3/3 315/3/3 328/3/3
f 330/3/3 317/3/3 316/3/3
f 330/1/3 316/1/3 329/1/3
f 331/3/3 284/3/3 317/3/3
f 331/3/3 317/3/3 330/3/3
f 332/1/3 318/1/3 284/1/3
f 332/3/3 284/3/3 331/3/3
f 333/3/3 320/3/3 319/3/3
f 333/1/3 318/1/3 332/1/3
f 333/3/3 319/3/3 318/3/3
f 334/1/3 321/1/3 320/1/3
f 334/3/3 320/3/3 333/3/3
f 335/3/3 311/3/3 323/3/3
f 335/1/3 323/1/3 322/1/3
f 336/1/3 324/1/3 311/1/3
f 336/3/3 311/3/3 335/3/3
f 337/3/3 326/3/3 325/3/3
f 337/1/3 324/1/3 336/1/3
f 337/3/3 325/3/3 324/3/3
f 338/1/3 329/1/3 328/1/3
f 338/3/3 326/3/3 337/3/3
f 338/1/3 327/1/3 326/1/3
f 338/1/3 328/1/3 327/1/3
f 339/3/3 330/3/3 329/3/3
f 339/1/3 329/1/3 338/1/3
f 339/3/3 331/3/3 330/3/3
f 340/1/3 332/1/3 331/1/3
f 340/3/3 331/3/3 339/3/3
f 340/1/3 334/1/3 333/1/3
f 340/1/3 333/1/3 332/1/3
f 341/1/3 339/1/3 338/1/3
f 341/1/3 337/1/3 336/1/3
f 341/1/3 340/1/3 339/1/3
f 341/1/3 322/1/3 308/1/3
f 341/1/3 227/1/3 188/1/3
f 341/1/3 336/1/3 335/1/3
f 341/1/3 308/1/3 275/1/3
f 341/1/3 188/1/3 162/1/3
f 341/1/3 335/1/3 322/1/3
f 341/1/3 338/1/3 337/1/3
f 341/1/3 275/1/3 227/1/3
f 342/1/3 334/1/3 340/1/3
f 342/1/3 340/1/3 341/1/3
f 342/1/3 321/1/3 334/1/3
f 342/1/3 163/1/3 307/1/3
f 342/1/3 307/1/3 321/1/3
f 343/2/3 161/2/3 160/2/3
f 344/2/3 161/2/3 343/2/3
f 347/3/3 346/3/3 345/3/3
f 348/3/3 346/3/3 347/3/3
f 349/3/3 346/3/3 348/3/3
f 350/3/3 346/3/3 349/3/3
f 353/3/3 347/3/3 345/3/3
f 354/3/3 352/3/3 351/3/3
f 355/3/3 353/3/3 345/3/3
f 355/3/3 354/3/3 353/3/3
f 356/3/3 352/3/3 354/3/3
f 356/3/3 354/3/3 355/3/3
f 359/2/3 358/2/3 357/2/3
f 361/2/3 360/2/3 359/2/3
f 363/2/3 362/2/3 361/2/3
f 365/2/3 364/2/3 363/2/3
f 367/2/3 366/2/3 365/2/3
f 369/2/3 368/2/3 367/2/3
f 371/2/3 359/2/3 357/2/3
f 371/2/3 370/2/3 369/2/3
f 371/2/3 369/2/3 367/2/3
f 371/2/3 367/2/3 365/2/3
f 371/2/3 365/2/3 363/2/3
f 371/2/3 363/2/3 361/2/3
f 371/2/3 361/2/3 359/2/3
f 372/2/3 370/2/3 371/2/3
f 375/3/3 374/3/3 373/3/3
f 376/3/3 374/3/3 375/3/3
f 379/2/3 378/2/3 377/2/3
f 380/2/3 378/2/3 379/2/3
f 382/2/3 381/2/3 380/2/3
f 383/2/3 381/2/3 382/2/3
f 384/2/3 381/2/3 383/2/3
f 386/2/3 385/2/3 384/2/3
f 386/2/3 384/2/3 383/2/3
f 387/2/3 385/2/3 386/2/3
f 390/2/3 389/2/3 388/2/3
f 391/2/3 389/2/3 390/2/3
f 394/2/3 393/2/3 392/2/3
f 395/2/3 393/2/3 394/2/3
f 398/2/3 397/2/3 396/2/3
f 399/2/3 397/2/3 398/2/3
f 401/2/3 400/2/3 399/2/3
f 402/2/3 400/2/3 401/2/3
f 405/2/3 404/2/3 403/2/3
f 406/2/3 404/2/3 405/2/3
f 409/2/3 408/2/3 407/2/3
f 410/2/3 408/2/3 409/2/3
f 413/2/3 412/2/3 411/2/3
f 414/2/3 412/2/3 413/2/3
f 417/2/3 416/2/3 415/2/3
f 418/2/3 416/2/3 417/2/3
f 420/2/3 419/2/3 418/2/3
f 421/2/3 419/2/3 420/2/3
f 424/2/3 423/2/3 422/2/3
f 425/2/3 423/2/3 424/2/3
f 428/2/3 427/2/3 426/2/3
f 429/2/3 427/2/3 428/2/3
f 430/2/3 427/2/3 429/2/3
f 431/2/3 427/2/3 430/2/3
f 434/2/3 433/2/3 432/2/3
f 435/2/3 433/2/3 434/2/3
f 437/2/3 436/2/3 435/2/3
f 438/2/3 436/2/3 437/2/3
f 441/2/3 440/2/3 439/2/3
f 442/2/3 440/2/3 441/2/3
f 445/2/3 444/2/3 443/2/3
f 446/2/3 444/2/3 445/2/3
f 448/2/3 447/2/3 446/2/3
f 449/2/3 447/2/3 448/2/3
f 452/2/3 451/2/3 450/2/3
f 453/2/3 451/2/3 452/2/3
f 456/2/3 455/2/3 454/2/3
f 457/2/3 455/2/3 456/2/3
f 460/2/3 459/2/3 458/2/3
f 461/2/3 459/2/3 460/2/3
f 464/2/3 463/2/3 462/2/3
f 465/2/3 463/2/3 464/2/3
f 468/2/3 467/2/3 466/2/3
f 469/2/3 467/2/3 468/2/3
f 470/1/4 471/1/4 472/1/4
f 472/1/4 471/1/4 473/1/4
f 473/1/4 471/1/4 474/1/4
f 474/1/4 471/1/4 475/1/4
f 473/1/4 474/1/4 476/1/4
f 476/1/4 474/1/4 477/1/4
f 477/1/4 474/1/4 478/1/4
f 474/3/4 475/3/4 479/3/4
f 478/1/4 474/1/4 479/1/4
f 479/3/4 475/3/4 480/3/4
f 480/3/4 475/3/4 481/3/4
f 472/3/4 473/3/4 482/3/4
f 473/1/4 476/1/4 482/1/4
f 482/1/4 476/1/4 483/1/4
f 483/1/4 476/1/4 484/1/4
f 484/1/4 476/1/4 485/1/4
f 485/1/4 476/1/4 486/1/4
f 486/1/4 476/1/4 487/1/4
f 487/1/4 476/1/4 488/1/4
f 488/1/4 476/1/4 489/1/4
f 489/1/4 476/1/4 490/1/4
f 490/1/4 476/1/4 491/1/4
f 476/3/4 477/3/4 492/3/4
f 491/1/4 476/1/4 492/1/4
f 492/3/4 477/3/4 493/3/4
f 478/3/4 479/3/4 494/3/4
f 479/3/4 480/3/4 494/3/4
f 480/1/4 481/1/4 495/1/4
f 494/3/4 480/3/4 495/3/4
f 470/1/4 472/1/4 496/1/4
f 472/3/4 482/3/4 496/3/4
f 482/3/4 483/3/4 496/3/4
f 496/3/4 483/3/4 497/3/4
f 484/3/4 485/3/4 498/3/4
f 485/1/4 486/1/4 498/1/4
f 498/1/4 486/1/4 499/1/4
f 486/3/4 487/3/4 500/3/4
f 499/1/4 486/1/4 500/1/4
f 500/3/4 487/3/4 501/3/4
f 487/1/4 488/1/4 502/1/4
f 501/3/4 487/3/4 502/3/4
f 502/1/4 488/1/4 503/1/4
f 503/1/4 488/1/4 504/1/4
f 488/3/4 489/3/4 505/3/4
f 504/1/4 488/1/4 505/1/4
f 505/3/4 489/3/4 506/3/4
f 506/3/4 489/3/4 507/3/4
f 489/1/4 490/1/4 508/1/4
f 507/3/4 489/3/4 508/3/4
f 508/1/4 490/1/4 509/1/4
f 509/1/4 490/1/4 510/1/4
f 490/3/4 491/3/4 511/3/4
f 510/1/4 490/1/4 511/1/4
f 511/3/4 491/3/4 512/3/4
f 477/1/4 478/1/4 513/1/4
f 493/3/4 477/3/4 513/3/4
f 513/1/4 478/1/4 514/1/4
f 483/1/4 484/1/4 515/1/4
f 497/3/4 483/3/4 515/3/4
f 498/3/4 499/3/4 516/3/4
f 515/1/4 484/1/4 516/1/4
f 484/3/4 498/3/4 516/3/4
f 516/3/4 499/3/4 517/3/4
f 500/1/4 501/1/4 518/1/4
f 499/1/4 500/1/4 518/1/4
f 501/3/4 502/3/4 518/3/4
f 502/3/4 503/3/4 518/3/4
f 503/1/4 504/1/4 519/1/4
f 518/3/4 503/3/4 519/3/4
f 519/1/4 504/1/4 520/1/4
f 520/1/4 504/1/4 521/1/4
f 504/3/4 505/3/4 522/3/4
f 521/1/4 504/1/4 522/1/4
f 505/3/4 506/3/4 522/3/4
f 506/1/4 507/1/4 523/1/4
f 522/3/4 506/3/4 523/3/4
f 523/1/4 507/1/4 524/1/4
f 507/3/4 508/3/4 525/3/4
f 524/1/4 507/1/4 525/1/4
f 508/3/4 509/3/4 525/3/4
f 509/1/4 510/1/4 526/1/4
f 525/3/4 509/3/4 526/3/4
f 526/1/4 510/1/4 527/1/4
f 527/1/4 510/1/4 528/1/4
f 528/1/4 510/1/4 529/1/4
f 510/3/4 511/3/4 530/3/4
f 529/1/4 510/1/4 530/1/4
f 512/3/4 491/3/4 531/3/4
f 492/1/4 493/1/4 531/1/4
f 491/1/4 492/1/4 531/1/4
f 531/1/4 493/1/4 532/1/4
f 513/3/4 514/3/4 533/3/4
f 532/1/4 493/1/4 533/1/4
f 493/3/4 513/3/4 533/3/4
f 533/3/4 514/3/4 534/3/4
f 496/1/4 497/1/4 535/1/4
f 497/3/4 515/3/4 535/3/4
f 515/3/4 516/3/4 535/3/4
f 535/3/4 516/3/4 536/3/4
f 536/3/4 516/3/4 537/3/4
f 537/3/4 516/3/4 538/3/4
f 517/3/4 499/3/4 539/3/4
f 516/1/4 517/1/4 539/1/4
f 499/1/4 518/1/4 540/1/4
f 539/3/4 499/3/4 540/3/4
f 518/1/4 519/1/4 540/1/4
f 540/1/4 519/1/4 541/1/4
f 519/3/4 520/3/4 542/3/4
f 541/1/4 519/1/4 542/1/4
f 542/3/4 520/3/4 543/3/4
f 520/1/4 521/1/4 544/1/4
f 543/3/4 520/3/4 544/3/4
f 521/3/4 522/3/4 545/3/4
f 544/1/4 521/1/4 545/1/4
f 523/1/4 524/1/4 546/1/4
f 545/3/4 522/3/4 546/3/4
f 522/1/4 523/1/4 546/1/4
f 546/1/4 524/1/4 547/1/4
f 524/3/4 525/3/4 548/3/4
f 547/1/4 524/1/4 548/1/4
f 527/3/4 528/3/4 549/3/4
f 525/1/4 526/1/4 549/1/4
f 526/1/4 527/1/4 549/1/4
f 549/3/4 528/3/4 550/3/4
f 528/1/4 529/1/4 551/1/4
f 550/3/4 528/3/4 551/3/4
f 551/1/4 529/1/4 552/1/4
f 552/1/4 529/1/4 553/1/4
f 529/3/4 530/3/4 554/3/4
f 553/1/4 529/1/4 554/1/4
f 530/3/4 511/3/4 555/3/4
f 554/3/4 530/3/4 555/3/4
f 511/1/4 512/1/4 556/1/4
f 555/3/4 511/3/4 556/3/4
f 531/3/4 532/3/4 557/3/4
f 556/1/4 512/1/4 557/1/4
f 512/3/4 531/3/4 557/3/4
f 557/3/4 532/3/4 558/3/4
f 514/1/4 478/1/4 559/1/4
f 534/3/4 514/3/4 559/3/4
f 478/3/4 494/3/4 560/3/4
f 559/1/4 478/1/4 560/1/4
f 537/1/4 538/1/4 561/1/4
f 536/3/4 537/3/4 561/3/4
f 538/3/4 516/3/4 562/3/4
f 561/1/4 538/1/4 562/1/4
f 516/1/4 539/1/4 563/1/4
f 562/3/4 516/3/4 563/3/4
f 539/1/4 540/1/4 563/1/4
f 563/1/4 540/1/4 564/1/4
f 543/3/4 544/3/4 565/3/4
f 542/1/4 543/1/4 565/1/4
f 544/3/4 545/3/4 565/3/4
f 541/1/4 542/1/4 565/1/4
f 565/3/4 545/3/4 566/3/4
f 566/3/4 545/3/4 567/3/4
f 546/1/4 547/1/4 568/1/4
f 567/3/4 545/3/4 568/3/4
f 545/1/4 546/1/4 568/1/4
f 568/1/4 547/1/4 569/1/4
f 547/3/4 548/3/4 570/3/4
f 569/1/4 547/1/4 570/1/4
f 548/3/4 525/3/4 571/3/4
f 570/3/4 548/3/4 571/3/4
f 549/1/4 550/1/4 572/1/4
f 571/3/4 525/3/4 572/3/4
f 525/1/4 549/1/4 572/1/4
f 551/3/4 552/3/4 573/3/4
f 572/1/4 550/1/4 573/1/4
f 550/3/4 551/3/4 573/3/4
f 573/3/4 552/3/4 574/3/4
f 552/1/4 553/1/4 575/1/4
f 574/3/4 552/3/4 575/3/4
f 553/3/4 554/3/4 576/3/4
f 575/1/4 553/1/4 576/1/4
f 554/3/4 555/3/4 576/3/4
f 576/3/4 555/3/4 577/3/4
f 555/1/4 556/1/4 578/1/4
f 577/3/4 555/3/4 578/3/4
f 557/1/4 558/1/4 578/1/4
f 556/1/4 557/1/4 578/1/4
f 558/3/4 532/3/4 579/3/4
f 578/1/4 558/1/4 579/1/4
f 533/1/4 534/1/4 580/1/4
f 579/3/4 532/3/4 580/3/4
f 532/1/4 533/1/4 580/1/4
f 534/3/4 559/3/4 581/3/4
f 580/1/4 534/1/4 581/1/4
f 559/3/4 560/3/4 581/3/4
f 581/3/4 560/3/4 582/3/4
f 536/3/4 561/3/4 583/3/4
f 561/3/4 562/3/4 583/3/4
f 563/3/4 564/3/4 583/3/4
f 562/3/4 563/3/4 583/3/4
f 535/1/4 536/1/4 583/1/4
f 583/3/4 564/3/4 584/3/4
f 584/3/4 564/3/4 585/3/4
f 585/3/4 564/3/4 586/3/4
f 566/3/4 567/3/4 587/3/4
f 567/1/4 568/1/4 587/1/4
f 568/1/4 569/1/4 587/1/4
f 587/1/4 569/1/4 588/1/4
f 569/3/4 570/3/4 589/3/4
f 570/3/4 571/3/4 589/3/4
f 572/1/4 573/1/4 590/1/4
f 589/3/4 571/3/4 590/3/4
f 573/1/4 574/1/4 590/1/4
f 571/1/4 572/1/4 590/1/4
f 590/1/4 574/1/4 591/1/4
f 591/1/4 574/1/4 592/1/4
f 592/1/4 574/1/4 593/1/4
f 593/1/4 574/1/4 594/1/4
f 574/3/4 575/3/4 595/3/4
f 594/1/4 574/1/4 595/1/4
f 576/3/4 577/3/4 595/3/4
f 575/3/4 576/3/4 595/3/4
f 579/1/4 580/1/4 596/1/4
f 595/3/4 577/3/4 596/3/4
f 577/1/4 578/1/4 596/1/4
f 578/1/4 579/1/4 596/1/4
f 581/1/4 582/1/4 596/1/4
f 580/1/4 581/1/4 596/1/4
f 582/3/4 560/3/4 597/3/4
f 560/3/4 494/3/4 597/3/4
f 494/1/4 495/1/4 598/1/4
f 597/3/4 494/3/4 598/3/4
f 585/1/4 586/1/4 599/1/4
f 584/3/4 585/3/4 599/3/4
f 586/3/4 564/3/4 600/3/4
f 599/1/4 586/1/4 600/1/4
f 564/1/4 540/1/4 601/1/4
f 600/3/4 564/3/4 601/3/4
f 540/3/4 541/3/4 602/3/4
f 541/1/4 565/1/4 602/1/4
f 565/1/4 566/1/4 602/1/4
f 602/1/4 566/1/4 603/1/4
f 566/3/4 587/3/4 604/3/4
f 603/1/4 566/1/4 604/1/4
f 587/3/4 588/3/4 604/3/4
f 604/3/4 588/3/4 605/3/4
f 588/1/4 569/1/4 606/1/4
f 605/3/4 588/3/4 606/3/4
f 569/3/4 589/3/4 607/3/4
f 606/1/4 569/1/4 607/1/4
f 592/1/4 593/1/4 608/1/4
f 593/3/4 594/3/4 609/3/4
f 608/1/4 593/1/4 609/1/4
f 609/3/4 594/3/4 610/3/4
f 594/1/4 595/1/4 611/1/4
f 610/3/4 594/3/4 611/3/4
f 595/1/4 596/1/4 611/1/4
f 582/3/4 597/3/4 612/3/4
f 611/1/4 596/1/4 612/1/4
f 596/1/4 582/1/4 612/1/4
f 597/1/4 598/1/4 613/1/4
f 612/3/4 597/3/4 613/3/4
f 495/1/4 481/1/4 614/1/4
f 613/1/4 598/1/4 614/1/4
f 481/3/4 475/3/4 614/3/4
f 598/1/4 495/1/4 614/1/4
f 475/1/4 471/1/4 615/1/4
f 614/3/4 475/3/4 615/3/4
f 584/3/4 599/3/4 616/3/4
f 599/3/4 600/3/4 616/3/4
f 583/1/4 584/1/4 616/1/4
f 616/3/4 600/3/4 617/3/4
f 600/1/4 601/1/4 618/1/4
f 617/3/4 600/3/4 618/3/4
f 601/1/4 540/1/4 619/1/4
f 618/1/4 601/1/4 619/1/4
f 603/1/4 604/1/4 620/1/4
f 605/3/4 606/3/4 620/3/4
f 604/1/4 605/1/4 620/1/4
f 606/3/4 607/3/4 620/3/4
f 620/3/4 607/3/4 621/3/4
f 590/1/4 591/1/4 622/1/4
f 621/3/4 607/3/4 622/3/4
f 607/3/4 589/3/4 622/3/4
f 589/1/4 590/1/4 622/1/4
f 622/1/4 591/1/4 623/1/4
f 623/1/4 591/1/4 624/1/4
f 591/3/4 592/3/4 625/3/4
f 624/1/4 591/1/4 625/1/4
f 592/1/4 608/1/4 626/1/4
f 609/3/4 610/3/4 627/3/4
f 626/1/4 608/1/4 627/1/4
f 608/3/4 609/3/4 627/3/4
f 627/3/4 610/3/4 628/3/4
f 612/1/4 613/1/4 629/1/4
f 628/3/4 610/3/4 629/3/4
f 613/1/4 614/1/4 629/1/4
f 610/1/4 611/1/4 629/1/4
f 611/1/4 612/1/4 629/1/4
f 614/1/4 615/1/4 629/1/4
f 618/3/4 619/3/4 630/3/4
f 617/3/4 618/3/4 630/3/4
f 616/1/4 617/1/4 630/1/4
f 630/3/4 619/3/4 631/3/4
f 619/1/4 540/1/4 632/1/4
f 602/3/4 603/3/4 633/3/4
f 632/1/4 540/1/4 633/1/4
f 540/3/4 602/3/4 633/3/4
f 633/3/4 603/3/4 634/3/4
f 620/1/4 621/1/4 635/1/4
f 634/3/4 603/3/4 635/3/4
f 603/1/4 620/1/4 635/1/4
f 622/3/4 623/3/4 636/3/4
f 635/1/4 621/1/4 636/1/4
f 621/3/4 622/3/4 636/3/4
f 623/1/4 624/1/4 637/1/4
f 636/3/4 623/3/4 637/3/4
f 624/3/4 625/3/4 638/3/4
f 637/1/4 624/1/4 638/1/4
f 625/3/4 592/3/4 639/3/4
f 638/3/4 625/3/4 639/3/4
f 592/1/4 626/1/4 640/1/4
f 639/3/4 592/3/4 640/3/4
f 627/3/4 628/3/4 641/3/4
f 640/1/4 626/1/4 641/1/4
f 626/3/4 627/3/4 641/3/4
f 628/1/4 629/1/4 642/1/4
f 641/3/4 628/3/4 642/3/4
f 631/3/4 619/3/4 643/3/4
f 630/1/4 631/1/4 643/1/4
f 619/1/4 632/1/4 644/1/4
f 643/3/4 619/3/4 644/3/4
f 633/3/4 634/3/4 645/3/4
f 644/1/4 632/1/4 645/1/4
f 632/3/4 633/3/4 645/3/4
f 636/1/4 637/1/4 646/1/4
f 645/3/4 634/3/4 646/3/4
f 634/1/4 635/1/4 646/1/4
f 635/1/4 636/1/4 646/1/4
f 637/3/4 638/3/4 647/3/4
f 646/1/4 637/1/4 647/1/4
f 638/3/4 639/3/4 647/3/4
f 639/1/4 640/1/4 648/1/4
f 647/3/4 639/3/4 648/3/4
f 641/1/4 642/1/4 648/1/4
f 640/1/4 641/1/4 648/1/4
f 646/1/4 647/1/4 649/1/4
f 644/1/4 645/1/4 649/1/4
f 647/1/4 648/1/4 649/1/4
f 616/1/4 630/1/4 649/1/4
f 496/1/4 535/1/4 649/1/4
f 643/1/4 644/1/4 649/1/4
f 583/1/4 616/1/4 649/1/4
f 470/1/4 496/1/4 649/1/4
f 630/1/4 643/1/4 649/1/4
f 645/1/4 646/1/4 649/1/4
f 535/1/4 583/1/4 649/1/4
f 648/1/4 642/1/4 650/1/4
f 649/1/4 648/1/4 650/1/4
f 642/1/4 629/1/4 650/1/4
f 615/1/4 471/1/4 650/1/4
f 629/1/4 615/1/4 650/1/4
f 651/2/4 652/2/4 653/2/4
f 653/2/4 652/2/4 654/2/4
f 655/3/4 656/3/4 657/3/4
f 657/3/4 656/3/4 658/3/4
f 659/3/4 660/3/4 661/3/4
f 661/3/4 660/3/4 662/3/4
f 662/3/4 660/3/4 663/3/4
f 662/3/4 663/3/4 665/3/4
f 663/1/4 664/1/4 665/1/4
f 665/1/4 664/1/4 666/1/4
f 659/3/4 661/3/4 667/3/4
f 662/3/4 665/3/4 668/3/4
f 659/3/4 667/3/4 669/3/4
f 667/3/4 668/3/4 669/3/4
f 668/3/4 665/3/4 670/3/4
f 669/3/4 668/3/4 670/3/4
f 671/2/4 672/2/4 673/2/4
f 673/2/4 672/2/4 674/2/4
f 677/2/5 676/2/5 675/2/5
f 678/2/5 676/2/5 677/2/5
f 681/1/5 680/1/5 679/1/5
f 682/1/5 680/1/5 681/1/5
f 687/3/5 684/3/5 683/3/5
f 687/3/5 686/3/5 685/3/5
f 687/3/5 685/3/5 684/3/5
f 688/3/5 686/3/5 687/3/5
f 691/3/5 690/3/5 689/3/5
f 692/3/5 690/3/5 691/3/5
f 693/2/6 694/2/6 695/2/6
f 695/2/6 694/2/6 696/2/6
f 693/2/6 695/2/6 697/2/6
f 697/2/6 695/2/6 698/2/6
f 693/2/6 697/2/6 699/2/6
f 699/2/6 700/2/6 701/2/6
f 696/2/6 694/2/6 702/2/6
f 699/2/6 701/2/6 703/2/6
f 701/2/6 702/2/6 703/2/6
f 693/2/6 699/2/6 703/2/6
f 702/2/6 694/2/6 704/2/6
f 703/2/6 702/2/6 704/2/6
f 705/3/6 706/3/6 707/3/6
f 707/3/6 706/3/6 708/3/6
f 709/3/6 710/3/6 711/3/6
f 711/3/6 710/3/6 712/3/6
f 713/2/6 714/2/6 715/2/6
f 715/2/6 714/2/6 716/2/6
f 717/2/6 718/2/6 720/2/6
f 720/2/6 718/2/6 721/2/6
f 719/2/6 720/2/6 722/2/6
f 722/2/6 720/2/6 723/2/6
f 724/2/6 725/2/6 726/2/6
f 726/2/6 725/2/6 727/2/6
f 728/2/6 729/2/6 730/2/6
f 730/2/6 729/2/6 731/2/6
f 732/2/6 733/2/6 734/2/6
f 734/2/6 733/2/6 735/2/6
f 736/2/6 737/2/6 738/2/6
f 738/2/6 737/2/6 739/2/6
f 740/2/6 741/2/6 742/2/6
f 742/2/6 741/2/6 743/2/6
f 744/2/6 745/2/6 746/2/6
f 746/2/6 745/2/6 747/2/6
f 748/2/6 749/2/6 750/2/6
f 750/2/6 749/2/6 751/2/6
f 752/2/6 753/2/6 754/2/6
f 754/2/6 753/2/6 755/2/6
f 756/2/6 757/2/6 758/2/6
f 758/2/6 757/2/6 759/2/6
f 760/2/6 761/2/6 763/2/6
f 763/2/6 761/2/6 764/2/6
f 762/2/6 763/2/6 765/2/6
f 765/2/6 763/2/6 766/2/6
f 762/2/6 765/2/6 767/2/6
f 767/2/6 765/2/6 768/2/6
f 769/2/6 770/2/6 772/2/6
f 771/2/6 772/2/6 774/2/6
f 772/2/6 770/2/6 775/2/6
f 774/2/6 772/2/6 775/2/6
f 775/2/6 770/2/6 776/2/6
f 773/2/6 774/2/6 778/2/6
f 774/2/6 775/2/6 778/2/6
f 778/2/6 775/2/6 779/2/6
f 779/2/6 775/2/6 780/2/6
f 777/2/6 778/2/6 781/2/6
f 778/2/6 779/2/6 781/2/6
f 781/2/6 779/2/6 782/2/6
f 783/2/6 784/2/6 785/2/6
f 785/2/6 784/2/6 786/2/6
f 787/2/6 788/2/6 790/2/6
f 790/2/6 788/2/6 791/2/6
f 789/2/6 790/2/6 793/2/6
f 793/2/6 790/2/6 794/2/6
f 792/2/6 793/2/6 796/2/6
f 796/2/6 793/2/6 797/2/6
f 795/2/6 796/2/6 798/2/6
f 798/2/6 796/2/6 799/2/6
f 795/2/6 798/2/6 800/2/6
f 800/2/6 798/2/6 801/2/6
f 802/2/6 803/2/6 804/2/6
f 804/2/6 803/2/6 805/2/6
f 806/2/6 807/2/6 809/2/6
f 808/2/6 809/2/6 811/2/6
f 810/2/6 811/2/6 813/2/6
f 812/2/6 813/2/6 815/2/6
f 814/2/6 815/2/6 817/2/6
f 816/2/6 817/2/6 819/2/6
f 818/2/6 819/2/6 820/2/6
f 809/2/6 807/2/6 821/2/6
f 820/2/6 819/2/6 821/2/6
f 811/2/6 809/2/6 821/2/6
f 819/2/6 817/2/6 821/2/6
f 813/2/6 811/2/6 821/2/6
f 817/2/6 815/2/6 821/2/6
f 815/2/6 813/2/6 821/2/6
f 822/3/6 823/3/6 826/3/6
f 826/3/6 823/3/6 827/3/6
f 824/3/6 825/3/6 828/3/6
f 828/3/6 825/3/6 829/3/6
f 830/1/6 831/1/6 832/1/6
f 832/1/6 831/1/6 833/1/6
